<mxfile host="Electron" modified="2024-04-21T21:06:13.212Z" agent="Mozilla/5.0 (X11; Linux x86_64) AppleWebKit/537.36 (KHTML, like Gecko) draw.io/24.2.5 Chrome/120.0.6099.109 Electron/28.1.0 Safari/537.36" etag="whWpdqmGLcRnKvcuD-4D" version="24.2.5" type="device">
  <diagram name="Página-1" id="qfUFeaAO-_vtEtD5GhWJ">
    <mxGraphModel dx="10607" dy="2486" grid="1" gridSize="10" guides="1" tooltips="1" connect="1" arrows="1" fold="1" page="1" pageScale="1" pageWidth="4681" pageHeight="3300" math="0" shadow="0">
      <root>
        <mxCell id="0" />
        <mxCell id="1" parent="0" />
        <mxCell id="ZWtzyO7zbN0nfAJwWL_--401" value="" style="rounded=0;whiteSpace=wrap;html=1;movable=1;resizable=1;rotatable=1;deletable=1;editable=1;locked=0;connectable=1;" parent="1" vertex="1">
          <mxGeometry x="-4680" y="100" width="4670" height="3120" as="geometry" />
        </mxCell>
        <mxCell id="tRb8fAjMVTqseip-Pkmx-3" value="" style="fillColor=none;strokeColor=default;dashed=1;verticalAlign=top;fontStyle=0;fontColor=#232F3D;whiteSpace=wrap;html=1;movable=1;resizable=1;rotatable=1;deletable=1;editable=1;locked=0;connectable=1;" parent="1" vertex="1">
          <mxGeometry x="-3950" y="590" width="120" height="1970" as="geometry" />
        </mxCell>
        <mxCell id="UM05papVInRiucUio6Ng-52" value="&lt;font style=&quot;font-size: 14px;&quot;&gt;&lt;b&gt;MAINFRAME&lt;/b&gt;&lt;/font&gt;" style="fillColor=#EFF0F3;strokeColor=none;dashed=0;verticalAlign=top;fontStyle=0;fontColor=#232F3D;whiteSpace=wrap;html=1;movable=1;resizable=1;rotatable=1;deletable=1;editable=1;locked=0;connectable=1;" parent="1" vertex="1">
          <mxGeometry x="-770" y="246.99" width="700" height="273.01" as="geometry" />
        </mxCell>
        <mxCell id="ZWtzyO7zbN0nfAJwWL_--4" value="&lt;font style=&quot;font-size: 14px;&quot;&gt;&lt;b&gt;INTERNET&lt;/b&gt;&lt;/font&gt;" style="fillColor=#f5f5f5;strokeColor=#666666;dashed=1;verticalAlign=top;fontStyle=0;fontColor=#333333;whiteSpace=wrap;html=1;movable=1;resizable=1;rotatable=1;deletable=1;editable=1;locked=0;connectable=1;" parent="1" vertex="1">
          <mxGeometry x="-4640" y="160" width="438" height="3010" as="geometry" />
        </mxCell>
        <mxCell id="oXsWMwM0G2av0L4SChWs-2" value="&lt;font style=&quot;font-size: 14px;&quot;&gt;&lt;b&gt;Clientes&lt;/b&gt;&lt;/font&gt;" style="fillColor=#EFF0F3;strokeColor=none;dashed=0;verticalAlign=top;fontStyle=0;fontColor=#232F3D;whiteSpace=wrap;html=1;movable=1;resizable=1;rotatable=1;deletable=1;editable=1;locked=0;connectable=1;" parent="1" vertex="1">
          <mxGeometry x="-4624.07" y="190" width="406.14" height="250" as="geometry" />
        </mxCell>
        <mxCell id="ZWtzyO7zbN0nfAJwWL_--128" value="&lt;font color=&quot;#000000&quot;&gt;VPC&amp;nbsp;&lt;span style=&quot;font-size: var(--cib-type-body1-font-size); font-weight: var(--cib-type-body1-font-weight);&quot;&gt;CIDR: 10.0.0.0/16&lt;/span&gt;&lt;/font&gt;" style="points=[[0,0],[0.25,0],[0.5,0],[0.75,0],[1,0],[1,0.25],[1,0.5],[1,0.75],[1,1],[0.75,1],[0.5,1],[0.25,1],[0,1],[0,0.75],[0,0.5],[0,0.25]];outlineConnect=0;gradientColor=none;html=1;whiteSpace=wrap;fontSize=12;fontStyle=0;container=1;pointerEvents=0;collapsible=0;recursiveResize=0;shape=mxgraph.aws4.group;grIcon=mxgraph.aws4.group_vpc2;strokeColor=#8C4FFF;fillColor=none;verticalAlign=top;align=left;spacingLeft=30;fontColor=#AAB7B8;dashed=0;movable=1;resizable=1;rotatable=1;deletable=1;editable=1;locked=0;connectable=1;" parent="1" vertex="1">
          <mxGeometry x="-3750" y="260" width="2540" height="2840" as="geometry" />
        </mxCell>
        <mxCell id="ZWtzyO7zbN0nfAJwWL_--155" value="Availability Zone (AZ) - BR:&lt;b style=&quot;text-align: left;&quot;&gt;São Paulo -&amp;nbsp;&lt;span style=&quot;font-size: 14px; line-height: var(--cib-type-body1-strong-line-height); font-variation-settings: var(--cib-type-body1-strong-font-variation-settings); font-family: -apple-system, Roboto, SegoeUI, &amp;quot;Segoe UI&amp;quot;, &amp;quot;Helvetica Neue&amp;quot;, Helvetica, &amp;quot;Microsoft YaHei&amp;quot;, &amp;quot;Meiryo UI&amp;quot;, Meiryo, &amp;quot;Arial Unicode MS&amp;quot;, sans-serif; background-color: rgb(243, 243, 243);&quot;&gt;sa-east-1a&lt;/span&gt;&lt;/b&gt;" style="fillColor=none;strokeColor=#147EBA;dashed=1;verticalAlign=top;fontStyle=0;fontColor=#147EBA;whiteSpace=wrap;html=1;movable=1;resizable=1;rotatable=1;deletable=1;editable=1;locked=0;connectable=1;" parent="ZWtzyO7zbN0nfAJwWL_--128" vertex="1">
          <mxGeometry x="-30" y="40" width="2230" height="1250" as="geometry" />
        </mxCell>
        <mxCell id="ZWtzyO7zbN0nfAJwWL_--186" value="" style="fillColor=#EFF0F3;strokeColor=none;dashed=0;verticalAlign=top;fontStyle=0;fontColor=#232F3D;whiteSpace=wrap;html=1;movable=1;resizable=1;rotatable=1;deletable=1;editable=1;locked=0;connectable=1;" parent="ZWtzyO7zbN0nfAJwWL_--128" vertex="1">
          <mxGeometry x="1810" y="130" width="290" height="250" as="geometry" />
        </mxCell>
        <mxCell id="ZWtzyO7zbN0nfAJwWL_--303" value="&lt;span style=&quot;font-size: 14px;&quot;&gt;&lt;b&gt;EVENTOS DE ATUALIZAÇÃO&amp;nbsp;&lt;/b&gt;&lt;/span&gt;&lt;div&gt;&lt;span style=&quot;font-size: 14px;&quot;&gt;&lt;b&gt;PRODUTOS&lt;/b&gt;&lt;/span&gt;&lt;/div&gt;" style="fillColor=#EFF0F3;strokeColor=none;dashed=0;verticalAlign=top;fontStyle=0;fontColor=#232F3D;whiteSpace=wrap;html=1;movable=1;resizable=1;rotatable=1;deletable=1;editable=1;locked=0;connectable=1;" parent="ZWtzyO7zbN0nfAJwWL_--128" vertex="1">
          <mxGeometry x="1810" y="420" width="290" height="860" as="geometry" />
        </mxCell>
        <mxCell id="UM05papVInRiucUio6Ng-83" value="&lt;span style=&quot;font-size: 14px;&quot;&gt;BD PRODUTOS&lt;/span&gt;&lt;div&gt;&lt;span style=&quot;font-size: 14px;&quot;&gt;(Gravação)&lt;/span&gt;&lt;/div&gt;" style="sketch=0;outlineConnect=0;fontColor=#232F3E;gradientColor=none;strokeColor=#ffffff;fillColor=#232F3E;dashed=0;verticalLabelPosition=middle;verticalAlign=bottom;align=center;html=1;whiteSpace=wrap;fontSize=10;fontStyle=1;spacing=3;shape=mxgraph.aws4.productIcon;prIcon=mxgraph.aws4.dynamodb;movable=1;resizable=1;rotatable=1;deletable=1;editable=1;locked=0;connectable=1;" parent="ZWtzyO7zbN0nfAJwWL_--128" vertex="1">
          <mxGeometry x="1916" y="180" width="80" height="131.49" as="geometry" />
        </mxCell>
        <mxCell id="ZWtzyO7zbN0nfAJwWL_--3" value="&lt;font style=&quot;font-size: 18px;&quot;&gt;ON PRIMESE&lt;/font&gt;" style="points=[[0,0],[0.25,0],[0.5,0],[0.75,0],[1,0],[1,0.25],[1,0.5],[1,0.75],[1,1],[0.75,1],[0.5,1],[0.25,1],[0,1],[0,0.75],[0,0.5],[0,0.25]];outlineConnect=0;gradientColor=none;html=1;whiteSpace=wrap;fontSize=12;fontStyle=0;container=0;pointerEvents=0;collapsible=0;recursiveResize=0;shape=mxgraph.aws4.group;grIcon=mxgraph.aws4.group_corporate_data_center;strokeColor=#7D8998;fillColor=none;verticalAlign=top;align=left;spacingLeft=30;fontColor=#5A6C86;dashed=0;movable=1;resizable=1;rotatable=1;deletable=1;editable=1;locked=0;connectable=1;" parent="1" vertex="1">
          <mxGeometry x="-780" y="160" width="720" height="3020" as="geometry" />
        </mxCell>
        <mxCell id="ZWtzyO7zbN0nfAJwWL_--17" value="&lt;font style=&quot;font-size: 14px;&quot;&gt;AWS Cloud&lt;/font&gt;" style="points=[[0,0],[0.25,0],[0.5,0],[0.75,0],[1,0],[1,0.25],[1,0.5],[1,0.75],[1,1],[0.75,1],[0.5,1],[0.25,1],[0,1],[0,0.75],[0,0.5],[0,0.25]];outlineConnect=0;gradientColor=none;html=1;whiteSpace=wrap;fontSize=12;fontStyle=0;container=1;pointerEvents=0;collapsible=0;recursiveResize=0;shape=mxgraph.aws4.group;grIcon=mxgraph.aws4.group_aws_cloud_alt;strokeColor=#232F3E;fillColor=none;verticalAlign=top;align=left;spacingLeft=30;fontColor=#232F3E;dashed=0;movable=1;resizable=1;rotatable=1;deletable=1;editable=1;locked=0;connectable=1;" parent="1" vertex="1">
          <mxGeometry x="-3890" y="160" width="2820" height="3010" as="geometry" />
        </mxCell>
        <mxCell id="ZWtzyO7zbN0nfAJwWL_--317" value="AWS WAF" style="sketch=0;points=[[0,0,0],[0.25,0,0],[0.5,0,0],[0.75,0,0],[1,0,0],[0,1,0],[0.25,1,0],[0.5,1,0],[0.75,1,0],[1,1,0],[0,0.25,0],[0,0.5,0],[0,0.75,0],[1,0.25,0],[1,0.5,0],[1,0.75,0]];outlineConnect=0;fontColor=#232F3E;fillColor=#DD344C;strokeColor=#ffffff;dashed=0;verticalLabelPosition=bottom;verticalAlign=top;align=center;html=1;fontSize=12;fontStyle=0;aspect=fixed;shape=mxgraph.aws4.resourceIcon;resIcon=mxgraph.aws4.waf;movable=1;resizable=1;rotatable=1;deletable=1;editable=1;locked=0;connectable=1;" parent="ZWtzyO7zbN0nfAJwWL_--17" vertex="1">
          <mxGeometry x="-39" y="1393.99" width="78" height="78" as="geometry" />
        </mxCell>
        <mxCell id="ZWtzyO7zbN0nfAJwWL_--34" value="&lt;font style=&quot;font-size: 14px;&quot;&gt;AWS Certificado&amp;nbsp;&lt;/font&gt;&lt;div&gt;&lt;font style=&quot;font-size: 14px;&quot;&gt;Manager&lt;/font&gt;&lt;/div&gt;" style="sketch=0;points=[[0,0,0],[0.25,0,0],[0.5,0,0],[0.75,0,0],[1,0,0],[0,1,0],[0.25,1,0],[0.5,1,0],[0.75,1,0],[1,1,0],[0,0.25,0],[0,0.5,0],[0,0.75,0],[1,0.25,0],[1,0.5,0],[1,0.75,0]];outlineConnect=0;fontColor=#232F3E;fillColor=#DD344C;strokeColor=#ffffff;dashed=0;verticalLabelPosition=bottom;verticalAlign=top;align=center;html=1;fontSize=12;fontStyle=0;aspect=fixed;shape=mxgraph.aws4.resourceIcon;resIcon=mxgraph.aws4.certificate_manager_3;movable=1;resizable=1;rotatable=1;deletable=1;editable=1;locked=0;connectable=1;" parent="ZWtzyO7zbN0nfAJwWL_--17" vertex="1">
          <mxGeometry x="-38.999999999999545" y="1523.99" width="78" height="78" as="geometry" />
        </mxCell>
        <mxCell id="ZWtzyO7zbN0nfAJwWL_--35" value="&lt;div&gt;&lt;font style=&quot;font-size: 14px; font-weight: normal;&quot;&gt;&lt;br&gt;&lt;/font&gt;&lt;/div&gt;&lt;font style=&quot;font-size: 14px; font-weight: normal;&quot;&gt;&lt;div&gt;&lt;font style=&quot;font-size: 14px;&quot;&gt;&lt;br&gt;&lt;/font&gt;&lt;/div&gt;&lt;div&gt;&lt;font style=&quot;font-size: 14px;&quot;&gt;&lt;br&gt;&lt;/font&gt;&lt;/div&gt;&lt;div&gt;&lt;font style=&quot;font-size: 14px;&quot;&gt;&lt;br&gt;&lt;/font&gt;&lt;/div&gt;&lt;div&gt;&lt;font style=&quot;font-size: 14px;&quot;&gt;&lt;br&gt;&lt;/font&gt;&lt;/div&gt;&lt;div&gt;&lt;font style=&quot;font-size: 14px;&quot;&gt;&lt;br&gt;&lt;/font&gt;&lt;/div&gt;&lt;div&gt;&lt;font style=&quot;font-size: 14px;&quot;&gt;&lt;br&gt;&lt;/font&gt;&lt;/div&gt;&lt;div&gt;&lt;font style=&quot;font-size: 14px;&quot;&gt;&lt;br&gt;&lt;/font&gt;&lt;/div&gt;&lt;div&gt;&lt;font style=&quot;font-size: 14px;&quot;&gt;&lt;br&gt;&lt;/font&gt;&lt;/div&gt;&lt;div&gt;&lt;font style=&quot;font-size: 14px;&quot;&gt;&lt;br&gt;&lt;/font&gt;&lt;/div&gt;&lt;div&gt;&lt;font style=&quot;font-size: 14px;&quot;&gt;&lt;br&gt;&lt;/font&gt;&lt;/div&gt;AWS Identity and Access Management&lt;br&gt;(IAM)&lt;/font&gt;" style="sketch=0;outlineConnect=0;fontColor=#232F3E;gradientColor=none;strokeColor=#ffffff;fillColor=#232F3E;dashed=0;verticalLabelPosition=middle;verticalAlign=bottom;align=center;html=1;whiteSpace=wrap;fontSize=10;fontStyle=1;spacing=3;shape=mxgraph.aws4.productIcon;prIcon=mxgraph.aws4.identity_and_access_management;movable=1;resizable=1;rotatable=1;deletable=1;editable=1;locked=0;connectable=1;" parent="ZWtzyO7zbN0nfAJwWL_--17" vertex="1">
          <mxGeometry x="-39" y="1663.99" width="80" height="158" as="geometry" />
        </mxCell>
        <mxCell id="oXsWMwM0G2av0L4SChWs-4" style="edgeStyle=orthogonalEdgeStyle;rounded=0;orthogonalLoop=1;jettySize=auto;html=1;" parent="1" source="ZWtzyO7zbN0nfAJwWL_--6" target="ZWtzyO7zbN0nfAJwWL_--18" edge="1">
          <mxGeometry relative="1" as="geometry">
            <Array as="points">
              <mxPoint x="-4250" y="268" />
              <mxPoint x="-4250" y="268" />
            </Array>
          </mxGeometry>
        </mxCell>
        <mxCell id="ZWtzyO7zbN0nfAJwWL_--6" value="Mobile (app)" style="shape=image;verticalLabelPosition=bottom;labelBackgroundColor=default;verticalAlign=top;aspect=fixed;imageAspect=0;image=data:image/png,iVBORw0KGgoAAAANSUhEUgAAAGkAAACECAYAAACTWAVmAAAABHNCSVQICAgIfAhkiAAAABl0RVh0U29mdHdhcmUAZ25vbWUtc2NyZWVuc2hvdO8Dvz4AAAAmdEVYdENyZWF0aW9uIFRpbWUAcXVpIDA0IGFiciAyMDI0IDEwOjQ2OjQ0xBtkfAAAIABJREFUeJztnXmUJUd1p7+IyHzv1d6belF3a2m1utGKULMJiU0CsckyYsYzGGzAxow9ZwB7bGMPxsf4gLAZYzHgYcwBxmPZLGYENmDEokErogUCgQySAEmtXiR1q5fqrba3ZETc+SMy8+Xbql5VdRfSObrnZNV7+TIjI+NG3Lj3d2/cUCIiPE1PatK/6Ao8TXPT00x6CtDTTHoK0NNMegpQdCIKERG899RqNZxzeO9PRLFLQlqrHr8oSqUSpVIJpcI12f+lpkUxKWPO9PQU1jqUUjjnAGjySVBKIeJRShf+C3DiFUsRYTH6aqbsGmPw3pMkCVproihqYdhS0qKYVKvVqNVqiAjOOay1eO8RERSBBe3/A2VnyBtUqR6fEfw8W73YjFmjt5eg2s4Vv2e1q1YhjiLKlQpxHANQLpfnVZcTQQtikohQrVaZmprCmIh6vZaLuKw9WxiiVEuDiHT2RhHfvLdwcd5wko3IuRnW84o2hnnCpCzpT0oBSgWGSeggSZJQazSoVCp5HUql0px1OJE0byaJCI1Gg2q1itaaWq2aipjC4fvr+UopjFHMdXk+GtoZVBBtShXGZ/pFwp/sYlyXudIDOhVhPpXASqXzjwosNErRqNWp12usYAVKKaIoWjLRN28mee+ZmJgAoNFopIzxeC9opajWauzbu49Go1G4K5t4m2dEwBjFWZs3Y4zpeE5fI6bLJZL9UBw1IiSJZeeuXTibtNZJG0yb8lAql9m4cQOlksE7AZXy3QvHjx8DYGxsbM76nSiaF5NEhMnJSZRSgQkiiPd4Eer1Bt+589t845vf5OjRoyCCF49Yiwec8/lI82kjWi/87jvezkteejki89QICxzK57B0YhEERVNZQSm2b9/OZz7z6SB6RRDv8BI6nfeuKWrTOXXt2nW88Y1v4DnPeU5T0dGaJLFMTU0RRRFDQ0Pzq/MCSc0Xuzs8Po4tKAnee7RSXPfhD7P/if1MTk3kyoP3kmuAzRHnQcCn54eGhvj4xz/eIT5mrVZPDU5yJkDKMxGiOOYD117LY48/no/+7BlZ5yjWV0TQWlGr1XnlK17Bb771reEan76DCMuWLWPlypXzaboFU9/GbKbBzdRqWGubo8J7Pv2P/8ju3buZmDyOcy5vBK1VemiMMRgTEUURJjIYE84dPXqUz332c7lSID5l6mxHqr5LOlq9eITAOPE+ZaIEUac0n/3sZ9n3xBMtDGp2nNYjI+c8cRzzla98hTvv/A5aqbQThf+HDx9uedeTSfMSd0mSoLPGlKb4+8E992Btkla4TdmWwCzvg2aklEm1JI3WwvDwMF//2o3s3fsEr3vdaznllFX5RL4Y8sChQ4e49Vs38bOHdlCv1wt1ajIZaBlB2e/ZO46OjvCFG77Ai174QiCdVwWcczjn0PrkgzbzYtLMzExLz9FasXPnThJrsdbO68FFK35gaIgdjzzEX7zvvYiOWtV1aCoBfSkTwUaLtaI0NEQcxVRrtfy34tyXMaf5WyeTEuvZ/eij7N37OOvWnZprP0opkiTJ7aeTSfNiUuuc4VEoDo+P41OUoRtloyi7v2jvFMvz3mMqg7PANNlzm1piaNPmqM4+Zz/Wa3WqUgVa7ateKr3PbYHWa8VbDh85GphUOD/fjrlQWpCdVGxcV69jnZu1cfP5pkUjU12/9wP7NY3eZqN2NHj+vT/R6Wcx1kSCqFe6oJQsITx0QgRqu/ocxEjzs/ceY0687O7VULM1+FORTkjLaaXzhgkjrdVw7QbnnEytqMi8E9Hhu5XRL6pyIuiEMElpnRqUTVGYibfwVVrmEug9ChbOvBZYteW8Iu046VXdXA9zzYXtxap+rj9BtEh/kkBqhIoEMWNMkUnkYq4ogtrnp8WMsnZtrVsZkiKoUjghkJoEs4O2HQb2L8CltEgmKXAOa5MAv9BkTvbyG8szvHjzMkYqMwDEJiJxFqM0Lm/ghb+5+FS2+qb7oxv5fFSDco5EGabHj3HzvgF2HBOMMS0ukq5vqxQZq5cyyGpxTErfOjPoMlxTKTDi+Y+bPa957gZiVcUlA4BH4/AMoEnwlNC0qrHifQ7tBES7R8NJ9qcJzuYORe+a12R+h0KdlRjEe9Smlby6XueGu6f47CNl0HMAvQU7/amj3aVcyXxJ2bzkvXD2aI3XXrYG6sfwST1lhsIRo0lwXqHweGcR73HEeGexXgW7K8X5nHU46/DO5Z+ddanF73HO463FJw28E3zSwFmPsx7xDnGuBVJySYKMnQGrL8DW6zgRrtk2yCYOIOi+G9+7pQsRWBiTir0rivJTAeoJ6PPVm4TG1BGUFlxSx6VquCzfEkBZHH7kTKKhlUFFH1yJjJyBJowC56RFlcc7lLjwIO/AW5S3kMZUBNwui68I13jn8S4wWLwH71FnvYrpygVMu+WoTa9ArEUpeNu2AVxSo6fLUFr9ZEs5khYm7orC2xcn7uYcs3ldjHI2uA2UQmyCvPjPiU7ZSvLDz6BdjfILfoeZwwcofe8vUFd+CDwkX/09TO2JdJR6gozxeHR6zuVTj2TXpDEUAfykKe4KlAGusvpC1Pf+gRITHD3jXYw0voIua1ZWoOxqOOkB87TzZAkViIUxKZvwc3mvUnhfh1GiFUcOHOPU01bkkI3YhKTRYPrYJBN7J1gxokgmpzhe9QzMxJRrdaZmLDI+w2jFFvT1dOQon6K1UZNZAMo0PxdhIVJbpnhCK/QPP075ivdBaZDSXal/yTlqopgmptyGqDSp9dyTfyRlFHRsoMmgjG7aJbxlg8/VX601jTv+O/XGKMNHdmCWDTD9+H2Y4wdBT1P/4tuZOFZlBUdxUQkT6bQzpLN/1hmsQ+mm3SWpMzFDp4UMF2wGw+BT1dkJycQR+NrvkTQUAy95J40DdxMzxU0/PgqydraXbXv1p4p2VwAuW3qwwPeOLuNljx/l1HWjKKVxTjBMsUxP4VcMIiIM+X3IMCAxyo2zdhiEEOQh3oEoRBkUgohK/4N3CqUESV3bgsI70BnzAO81SuWqWPjvMzXcUa4o7G0fxGjNz/ZN8qUDY0QDpmOE5N/bebKEyNMCo4XmvmbKx/zhd8f4jQ2HuOSsEgOVZoRNYiJiF9zqGdkoxqTxB4k2RN5h0/8ZOZ/6b9L5RSuN8xajw2vUtSH2riU0q50aaCKxKKWo1urc9vMqn7q3QbRq3awirINHT/aR1M3o61ZpE8Vcv3c1/7BzGiMWmzhEGWLdwHqFMZBYRawtXuqolG3W0zXWrhU1N0g6FykanRO5gJDGOEiKTKTuDK8MWims0zT0KNHKgJqoWRx4Hex7sisO/fYhpRQmihEzFtAFCQEiSTqHWAGtwGZWMKlOACAhdgIRfFpWsQkzsSa0yVkRJA0c0emveZmAEo8XhaRYXqkFUywoK3O885NfcZjnSC+6zbsWlzPIFzqo7vKpeE+KBhXR6BaXSTOWzqQjP4xOjelSj1b3RhNayOvcji8uIQp+QgL2u1ERDW8/1/se08Kw2a8N/1vRa5NjhxlpPEIYNh0SsXCh1qpwbx91VlCr1YnjKoODg7PWdbG0pEtfMtS5eBTPt16jC8fcoqV4fxalFIJ7dFoeecRP+C1EMbWi3Hlp3R7Q+hXFwYMH2LNnT0sU0smgkzaSMmpxwKEYGR3BFCZoKfzNKBc94nFeOH70WJhDMhRbdfYtpRRjY6Md51sar+i+AJJGg+MTEx0hAV2ppZzgT6pN1xGpzn7fCaCFxTgUvs8npOl9738fmzZtystpiRfIfDzhREvjTk5O8vv/9feZmp7sYJBSitNOO533vvfPGBwcnNfaKPGen/z4x7znz/6M8hxB+N00v3lH3S6QFi3u+tNyhGuuuYazzjqrgGr7EBHqBe88Lo2Gtc5jbYZwO6x1DAwM8vKXv5zJqZkWJmThztdc81pKpVII2kxjKjKEvHmEspqHxTrHRRdfzAsueUG+rqrnG7QwfwktWRbNpP4ru/qUU1JkR3U/aEaHKpW6vAkquoiwctUq6rVaing3G8w5x7Jly4N6n8Z9q3weKsx1aVlaNeutlMJ7z+rVa0gajbTcpWVAP7QkikO3eLYiFcVeuzs72Dmh8ZxN8tDeXFz2MHqLsd0tdWl3q6cfvA9ujSx+r/93O/ki7xe6sLl9Xrp1h/DNB+p5pYTixJ/aPV5SpocjW+rpi4wDDs0Y7j9kmKxmZTXXQfXg7YLG0FIYtYtk0iJiE1CI0lRtqMJUQ/Hp+xXTMzXqTnI0u3hH9r9baHBRoRCl+ej3hD+/2fJP9zWdh0opvJjgge1Vr75U6ebdT9mR1GulQkZRZNh9VHHtbcKH70hQCI8cUUxWPWeuqvD+OzSPHVUYY3pihJ0RRs3Gmklg34Snohw/3OupNjzWwQ33a/7oW3Dt7bDjaNQR/jAbddPuliJYH06y4tAhCgQOTSv+7FuOv7ljmlP1MX79nEm8wK2PeC5aVmPzKssFKy0fuM3y0e8qHj2eldEjWrWtlZVS3PMYNBLhNWfUmEgMOw5axmc09z1W49zBSQ5NOf7h+8Gl3wXe7v6mXbS7pUqFcMK7wmzxdCAkznNgyqOc5dKtQ6xbPcbeCcO/7ff88qZpyqWYq89VvOMSz/37HZ//YT01fgs21SzPdh5u2SUMaYeKIkoR3P5oiZGy46zVZXZWh/GimEgUSWLTWi3ModdMdXBy6aQjDtB8aS/CumHhupc1+Or9hvffoXnzxYajdVgeW87aMMjxRsxfblccOCxcvmGGV22tkVjTUVbnMwCEJ2YMPz+UMKAVtz0aocTzg8c8m5YrbnnI8cYtk9y+b4AZiVAplK7mObc2IailURzmz6QcFiickrl7eU5KUSqXeN3FnhdsstSqVT728BCXrp7GxMPounD56mNceAGcsrxEFI3Rr96llOL+JxxGPH/4rAk2rIz4+eGY635QYfehKhIP8NVHR6iJYVBbnMociJ0rPmZtglxL7D7nnmhawEjq5FIWZtxfhQXwKKVYt8ywR0pUawnP26jQSlg24Hj1hcO5uhwMzlnQgGLjIpy/vMp/PrfKmWvLlEoxzxpU/G5tgtOWe16zFXbtr7F2xJOoCK0G0vCJ+TZ2d+XlZNGixd38TL/MWde0WTaOJXz4ygZRXGmGKtMBOreV0bkAAFJxuiJm3XKTl6+B520dykplw8oYpUmD+DOko9Vw6gW45qvZl5gWzSRFiObsVx0tpqEJAfCaUmX+qWACo4o+q+YIFzQUIih0FpCCFKKS8+C9ENTZJZdER907wN2lYdiimTQnMJky5IknnghQTW4/ZSMhi/Bp17HyElLfzcGORsl6/LGjx/LvQez2pxqLKMQIB/bvpyjC55xbuzg0TybNi0nztQuKCsUXvvhFtj37OWzZcvY8nhf+Hzt2hC/9y5eptI04EaFULvP5z/8T2569jXJ5oO+ys2Ca72zfzm13fJtybALE24dEyLTBWq3KVK1MHMcnVcubF5PmY2G320vGaP70T/+U0ZHROdfYFhc/O+c4dOggNknS5Smq49rH9u7lTW96MyMjo+m8kf3WDt6G896H0GVrLfv3H8BoYB6iKxvzW845n+WjQyddDT8pdlJvW8Zx+Mg4SSPBFVLF9ENRHGOM6eLyDjmNkqTBwYP7sUnIJ9EJJKQRrenSGkRQ2qCUEMel3KXe9zt6oRybJcnYdVLFXUbh5XU6ogyqrAqp1zqt/W7My0Ze0UfULDtQGGkh8aHMs66ZmOuXUU/a4MiiuOutpnavfGugSVZWhoH1fuH28roxKKtLGGmCiO4a+dP+vTt1j72Ttg/6JKym70XzztKVUa8eN9saVK11qg2qlijYNHK42xPJvLWzPTtjvHO+7Zp2w7vte6pidn92G7OKbi3hyRt3164MzEeGa62x1rJ2zVriOMalC77CUhndU5Raa9m3dy9RqkF1f2ZI0rF27dqW0e59QDaKZoIxBuccxhhmZmY4eOAAURzn/qZ+xdhTQtxB6Fwd53qIp1KpxF/91V+xdu1aOnt3fjXtYsZ7YXpqij95z5+ktlIT3Myed955F/Cud72rZ37U4soPpVrPP/TQQ7znPe8phFuoLtGsnfSkXTPb3tu7VbNb5b33XH311WxYvz5Xi5tH5hLPEgRK4QhBJwODA1xx+RVMT02Rr0VKqV5v8OpXv5ooinK3eGsZzUOyWIb8EM455xwuvfSyPLVaeIc+GmPpeHTi/EndPLFFhq1csaIld0J7NepOU3dFl0SrF3Z0bJRGYtO84wWx6z3Dw8MtpTVHm0aUQVSUam+d0areC2Njy0iSJGTBzFO+zf6+T/6A/SIVtLZu6vTsL6NDQL1RXPdtj9Tr/MFLYkqRzpfBFMk7m+eYE+ndkCKKPcc1N+2MeGQ8wXpheUVxxZmK523oDgl75/GRoFW/SaiepHPSbDTXion2c4Lm738kTDUUyyrC3imo1iNueEBzaEaxpgJvuKi1jM4AFNWluRU7jho+cY9jfLqBdRAZODwjPDgu7D6m+ZXzLIqwWrBQq7zcORcWhOWFS0aLF3d99Kj2xvWiEYEzlwk/OSjcucczaiyrhjR37BF+fsBiJsep1hpdy2o58jSd4bfpRPGx73vGpwPC8JqzFS4FGSKj+OIDnh/ucU1Hn0DO7J7v0sm0pcwttKTOkXxiRkicYnwmvOgrTznCmzcf5reeMcnL1k0x4xSRhrqN5kY5iqFcaB44CMdmgsodGcWrt2o+eKVhpJTObQOab+/yGCmi99JFr+z5wHD1U2okLYCiSPG+2z037YTIWc5ekbBm1SDrVlV48eYKAyXNN4+u5lPfT5WEPhvEaNg3AS1uB3FsGHW87wrNylJgzMEpqCXzww476Kmo3fVLAdn2PH/FJEOuzozX1PUQ5fIgxkQ0iGnULSv8DJtGatRqM2Qhw7OVCUFTG4h87lS0XnASUg2Mj0/x6M4pvPMoH7KgNNeHdJvbCqTav3YJ9DiJNP+lL3RWb77og/eOl51bYdmY5+N3O762u0w0CFEUcf0PEzTwy2t/zpYzN6DNUOp+mCs4RPDecd4phqmaMDoQFo0NlSxf/9EEn7jFEi8bJKk7Lji9M6YhW3LjvCEy7SxrenyDc3IJhxEnSLubD4Oyl4xjw12PC0Mlx55j8NfbBfF1KhGIh3smz+KioYhyHGyn3qKp6RpXSrNuxPGr5zm+8nAMCNd+dYp/2+EZWDVMVDGsosoLTkvQulzwBgtog3hFFGWpcgI530TwgydJI/jURb80dMI2ueob4k//RsrxyjMdkyPjxJHm+odXUq4e49fOt+ybjjhjmYBUQIU0Nb3tklaISQRee55mqtrg1scidqlhBk91aDxrGhP89otgzYoKSut0RKg8mD8qqORC0AojHUSt1qpltbv4pclkDIvd5GoR9zqBc9ZAffkw1sGldRhLPKeu1Jx12iCRdkRRb4da3jHEtzAwA7/fcLHiNVuq7NhfZ6YGa8ccq0djhofLGNPF3S3gxVAMR1EorMvcIW0VMJVFvP38aFFMUh0rH5rUbXQVYSMRj9KKcnmAkndcc15CvRZhojLlkkGrCFTTpTE/kRqA32UjZZ49XAo4HSHBhtbdR32m6XtRIEE1iHTACatKhb01UtVbUOATuu0DdTJo0YK1F6KQ/c8+79y1pwCoNpMYohTaaOLIMDw0wkA5DqvEC+5spRQH9h/oirgrpTh0aDztMK0OxCzLiTYGo8kZFOaTIOoSB3sfPUqI3Rec12glIQmIV9QTlZftJKQAVQA6XjIF4oSvqug1sm786r9y11135V7Z7IiMSjcaiTGxwUTppiNZPAOK3Xt284UvfoFyZaDlGVm00Gc+/Y/sP7Af5wVUhNYGrQ2eEp4Sosqgy4gqh+9EeGI8MV/80re47c6bQOk8CihxOlUYOt/TeR1GG7BUavjiE+W2n+kAWoNWZCLDRz/6UT75iU/Rf1ycxwscPTwO2mB0cy1s8xrh8JEjvOMd76QyOBoWTAeZlLsunJM0LbbG2QRtDN45TBwzfugAUVRC6xABm6E92b3hpQzeRbk/KmPgHNbVCaNF7o7Z2didIykDXELOu2pthiSxYWOp1HPaMy5CpzmC4hJGgU5HV8d16dxVnTpO4izeeawr9vimaGxmmAy/RVHIFOlc5vTrnLOSxCI+NQXS51mvl0zcLcnSl4xC2JRGqRjvTUt4VUa9gIVu0ULFxgy800SqhFVQjqDRqON8FgWUXdndxVEul2g0GmitSZKQ0q1UivJO4T04l2BMTN0VQ5dPPp2QlNNzX5btLxuuN0aluXw6k0IZir1+9oZoX3KjNTgfjNokaaBNCeuqeNtABKztHPnaRIj32MYMoiKSpJGXmSRhzyWXNPBSw2Hw1uG8YmLSsXbN0jj/Fpnes/BxjgZtWXjcbtcUi5TOazKmZYwrhnJl1LDFpWBCpGHGeUZOfx7RlstQZn77HGkdI+IwpoRzCQ/Fz2L68WIMRZk9P6szNKJn3d2zFwvHSsLZK4SNqwbnjAyeP3bnfZp3FeZjznrvOf/8C7n66qswhSTpUvjbrcgkSbjllpu567vf7QgzLo42SfOsOh/mHUHzjLdcD0PLmKmHVNUqar5uPlq9z3tGcEFk8I/K8QiAuw9rONTA0VyCqbUFqfWNpnsbbEOlA8oxVFY8d2ON//bKFcSzxPHNfyTNEQPXi7Zs2cq73/3HRMZ0lJFRr5e9eNvFfODaD3DPPT/IQ7uKI8o5YaCiqTeCOPO2wfo3fIrG4Arwnig2aNU+36X1LvRi55vLafKoO+9BaSo+2/o0xJp7STcSlpShqnhvKwgrqVo4bcKigFAPYbIm3PJwg0gO8u6reifpXWB6z06xM1uwpPeel77kxURRlAYwdsZCdH4viLKG4+Jt27j9jjtYtmysY84yRmFdOgK8JV57Ln5kXdAe0zJGSkLJwHgtZKBcPQRHq1BzMBhBxQhH6iplVFoPLxiEtzQ+x4VHv47oCJUsMCuXUvxs4Nn87/J/omqG8vd0aG56yHLV3joXrO8ekrb4RWR9uBAA4jjuwYzsc1DVe81RWhtcGogS8ju0zlnG6GAj2QS16bKWHWiGS4oPX1XCGMMf3Fjl0jPLvP6ZEePHavzx7RF/+xooxREfvnWS7+2lGVyjFZdO3MHF+z/J6BVvREyF+gPfIKKeu2zES5awKLSFoiMTvwBKhEsat7Dn+Gq+PParOaSmccyI5ue7jnLB+u6jaUlXn3eSCglzNTSc4o7dwp4JxTNWCJed3rk9aBZylcE7zdGUAq0E4HawFHpqlg58WVmQxgyT9TrL6nVKbpTp4w7qdcaqGmkMcPhYlWiqTqM2SmkgCqNVhJ2V84kHI9yR3eiNz0dpAxhUij0qo3JxlpsGbdNLliquUh7g+NEIW7JElZCc1ynFoILjtjeYvEhjdjH3KhKv2DcFyyuKrz/ouemRkHT99l3gag1eeHbcZWRJh7jLOrP3rShAhuM9clj421unKbsG3/uZ4pFJy/F9x3jwENz/eIkPflPYPDjOTT8ZQq9wSAyigkf3UVZwW+lVPPOxn8Oj/0ocDwD9L1bL6w08VD2Nb1VfgF7RnCa0hETAp4z11j4Xh4Iv0ETwEkDMz98Ht+3yuViC0LCxVnzpp4ptGy0Dlfa1rE3cTqeIhPeCNgqjpWWPWo2EqB6Bu48OUqtWqKwBr+DGgyupTjaorI75yXHF3Y+vJjolZllJmBFQeERptPZ8euSd/N3xKlNH6osCggYqBrM8QqeOTJ2KaIBDx5Oe9y0wefvCqyoSrPVHDivu3gco0km/FThFoFqtUioN023JcXEkRQYaic/nNS2eVYNBvQ5Gs8JbYEC3Bj4OlBAvQTzln3U+TpRKt3EoKxgawK0pB7VcKZx1mMiEebBbe3hBtEKsQGTQWc7zKMa4sBeHKCFS4Kxn1eiJHkltUE4/lLkprGg++2/w3ceFxBU0qSKgiXCciH95eJRfvyjptvdUh0YZR0EVr4nj7S8oc9llAaNrJhoMKHcWb1eEiTLgtP1zRmFfEg3YQuhXiB1U6CxAItQrg7qy4EtpproOl0m4JytfgVIxoyO9F4gvTAXPKzrP+5Ri52HF7bts2CQ49f8oRTqhZDuaBdf1zbuFs8ccl22eHS0ojqoMRM20L93S4MF68amZmp8r4HBN5jXPBYnp8nuyaCGlMmd66liXdFRSMCFUyEveVuP8PUO1Z/cKLBnA2jQ863jfXImnUreCR6PF4/KKh3smpmp41x+Gl5Fzrjk3dRnxxRSf6ZOykoJG2CYoUt9k4Y6UySIpw0KASqc5MnumlWxnmrloQU6//uYk6fjmvGfDmGJNKcE6wXnB+nRvCu+pu3TX5lQZWBknbFlV2F2sB7U3TnGp5/xIoVXOgsJILF5ReKM5Nae5V2f0QwtXHHo8vdXHFMSCpBOOQhiMPdde6bnxniMcnOrdkGMDimetq7JiuDyP1ASpSu59IVyr8/dW2LN7HbLXK9iq4S7JNoRMM/LnJXYP81KkBu4ilK2FKw4pNWO1MzmdiSspnG+5Ga01r3zWALVqrWdGFa0V2gxRLpdp5gDqTt0awLf1I4WCA/ej0Pi155FpCGp8B+bgj+d44R7PBRhaS7LxUpDu7xEU1cUo7gtkUggPTOPQOlwK0N5jFYJLktALFaA1cRwTmSgfeYGvrRpbgFmCUelc7zi3nr6n5uSG3nET7u6PgwiNF72P0sYL0Qjc87+wkwfINyORcF8G5bQsGMg6nwISC1GEdwr/ivVEq09Pn9dFPi6OR/OfkzJUONeZ0zTNsVg0HtUh7kI+uf93883kS1V8cAQoBcYE76fROg8+yQ6lgtIcxzE/+tEPiUoh1m02DLAbKaVw00dxxCiExsRhvHd4m+AnDyFOEK/CISpgbz5L1qsI6nZwLwgaEY1EpWB/Oc/M+L6mGOxosEVyiAWMJJWu5w/GmckrIiK4tEIl5WjQ8mbpAAANHUlEQVRIyn+l0ErxyI6Hufb97+d5z3s+5Sj85vrQbaxz/OhH97J9+/bc5zJXis+Oc94jz/gljlcroKC04VlBFdcx9fPeRuP+m1pv0JAPgbBlIaIKqw8lE+7QWH0G5dMuzDecTGHiQoOx6JG0AKefgygi22MvShJK2LC5r08QFHWlQQllA41sVzGluO/++/j+d++iZh19ZVfJ3O1RiVJs0Kb/zXo76h0PsPy5V5PYYKNJOkrLW1+E2Xwp1nq0SrfxEZUanWniDnywlbxHMkNVPGjNgG7fmSZTy9NvczConxDtBTBJwsa86WdnDPV6A5uuODBaowihN3VC0LzSGvEeoxSDQ0PE6d4U3ajomCuqv1prlG6NFpqPxpTZTaU41ClTLJSCkjLEUVMqFO0mcpwCcgNWgOKYUdAZzdrc5nWxEm8BntnmR+MT7MRx3vTs1TxzQwK2xsOPTvORexUDcQQ2oRwb6tbnHlClFFEcoaW9kduNz0w9C+d75RbKKDOOu5OgqkfQP/hbpDSK3/bb6LiMUgb96HbYfdu8m6FfktIw7plvxcULjx2fP5NcumNy2uO0WLadOsm6kQjvNKvWaz5y1wSJHiM2mnrDgjaUJaHuIUSKErbYbmvUMPRb0zh3S1HT/lmKjO1GSsOOm7F7f4IkDRqj51M593JUUsPf+3+Q+nRaTmrvSNb9C+W2u0iyAddNqcwLU2ATZvwaBp/77zsu7VcSzC9tTWMaxGN8AC+1T/AIkli8DSJNnMUeP0LdwsjYKJHWiLNM1tN9YHWA6LVz6ChKxU6rO76feWdec5MIfnQ9ruFBlaiVVlLyHhPF1OuCyUO9fOppNeku0SFNaJh/6YSMZmljseEC7R02saG8bkhxH9Q3kxo7v4O/46PE615MffOV6Onj6Chiw6BhTWUEadRBaYZHy2zbOMgt+xJETUJU4uWbDL9z+SnccOcB/u8Ow/BgOc95muFoARubv1LQN0R12qXYqzZRrTWorFgDQOIFLvtjjv10e6dWlt7X6/xsxnWR3PAqyltfmNuV86t3oL6YVHvkTo7d+tf46WOY4/9MZCdQo+uRgw9w6bIHsXULpdDoLhrg/a8/jV97vMZt942zfM1yfuV5K5H6JG9+/jDOHuMb+wyis009CuIrVD/9ewJAr5aShfKy1ZQJ6nSuOa7ZzLK1Z+Ot7bglq4PKPcDSMpIyhUIrlbojUrHYwhCF0hmSTlMMzoP6YtL0z25FahM53CMPfxNlInSpRKNeQ0fNYay0Bl1iy0bDuZuX463D1qcgjft+0eYKX9wpjMaS4mKSipW0d2YuB/pbm9pvZi2lFEYaIB4bD6XORwW2iqoexSwavJmbREf48nJEzU/szckkEWH0Rf+FA7vuRfnxYKvEcVjPYxsB3U4cOgqamLfN9NO2niXLCKj28eNV3nvjAVDDJHaMMkCULpLNojcKURxK/JyM6lds6CfuRbZfhyVCX/5e1IozADDb/xJ/ZGd4HipFQ1KwtEV5IHfo5UGV7WRtUKy0Tg8T3i3La5RYknNeR3zRf2jpELNrpn3AQkop4tFVrH7D/0SXKmBM+iIpymAt33lkhs99+wDX33mEex6eoFq3LZOqQhgsC++/8Qkeq5dABGstiQ/pAsKeVb6Jn2WV73MkzX2Rxu9/gCRpINPHmN63IzCgNo07tANvfXpYxDmcDQqQeJfuO5juUpZ9tjaFt3z6WzhEa3wU47XBo0LcuBV8YnGJxSuF3XN/V7R8NupbcdBRhIpifGLzAJBpWcMnvvcYN9z6MMPlsNfRsZpn3YoB/sc16zn7tCGUOIQQtlWzigFXA6+w9XqKz6VzkdZBiSiAoicAUQFCSgJ3xstg193URlbAqq04EVRlBLvsQmTfj3G215O6uTd6dwznQ0BMt6nH1SzTZ19CZBuYPpLFZzQrk4qi5NjtH8PXZ0CHHlJVa9hZegGjtU/yld99BqtHI7Stc+BwlXfecJA3Xf8IN7ztbDaujtFamKpprjp3gPfefIzhqEzF2JBGWmsiQJRK8bFio8ytRbWvrOg2srRSyNhq5KoPY5IGUVwCNPgE89J3UZueomEdSmm00jhn80Vnfhb0vRc175CmyEznoZHBCnqemfl7MskmCRx/DIDk8C6SR7eHed2HhtsdbyOeeIzfuGI9ka6HIW8qnLK6zN+9ucQbP7mLd3z5IP/0lrWUI4PSwpUXreT2h6d5eMqjpEbNRXgpBfsjNxaDmFN9zDUdCTNmEX1aKSSOqMTFV9YoI1SGhymj0lGfl5YVSo6o5g/2eYfqZtdK7lYv+HFzGErP1e86qCeT6g/ezOTd10MyhdHgbdZjoSoVZswoGxp3oUv1PHYse7mRoTLvvnIVb/vnQzy0fzkXbBgAgagc8ZHf2op3QkUnfOhfx/nm4Uqa8SpbSddUxHu9y+yx55oj4+NA5y5l3SlLqaZARb2fWQwWUSY3H3JxXahvN2VmLr7MNrX2HnfJJFI9iKtO0ZiaCNE84hHvSKKV6KTKWDyd1Sp7ExBwynDGmkFiDbsP1dLQ3OCxbTTAJp5aHQZKHpskJD3asl1xaE0x0P2mUinm5ltuabm2WYDP3WAtR49mCBBR6762s1HXZ/a6Nt0IWbyQJAk67h0V25NJ3nrE+gBnBFCLzLPqalOo0hBOFUUC5FxSmqmZOk4gjgJcRJpBRNL0nKIUcWTy+AdJ86JmL9rt6NUozd+Da37vvv3ceeedRCas4sjzsIrqXbY0GSLig7Lhe9elexlzXFNgjKTYsSCMjo4yOtR755ue4q688SKOjJwT3APT+1D1Q2kPgAF/HHE1JmU1g/Jo+rRmbzM+YfsuS+IVW04pgXg8GiXC4YkZDk2BFsuPD2lMFHLaeUnjolOjt1uijl5UtDNCEnfFX3/oQ0xMTPHSl76YcrmSe3l7icCuZwsytwX0DQ9qniuocv2OpAyTGB4eZuXKlbNfK7OUmscf2ITHr3sJOgrOLe9hp3sW1dHNnDX+eYaGI4SQx9RE8OMHj/Gmz+3lZes11/3m1rA6znmOTtT5d589jDKGqDxAOTYhEYYJ/wNzdMtmI92WXrbWsWgINkWheI+zFo/izDPPoFQqzXsbB6UU9Xqdyy65hEtf+CIgBYe15siRI1xyySXzKq9ISaPOsuUrerpeijSrCp6vc41KjL3knUzc+bFcA9uQ3MtjtWEe2vTbrNpzG/UD9/Lg/mkeOtjgqz+dYsuqmD9//Wlpak2Ljgxf+ckETjQjcRQYnsYyAEGUpnaTCLTvCtPLh9TzBbUmKpXwzrFz566wHTcgzrZFHzW3S8jPpz/NTM+wdcszuOCiizBR0+HYaDQ4++zNHVmU50NKjfR9bV/GrFKK4fOvZOq7n8QnAQoqV4TTq9vZv/co02c8nwOyhTt/9Hnu232cyzcP8keXr8KU4+Am8JpB7fjWTydRZpCaKAZSiMXTdOR579OEGvRlxeZalWqeEUn1sILdFEcmiLp0va/zGRDa+hARIfGCUTBQGeTyX7qC17/+9ZTLrbF/jfokZ565qZ+mOyE0q7jLSESo/ezrHP3Wh3CNBHFZbiAVMom40EM9mkrk8Bisb+3hcUXzjUc2MLXhIsYqZUY2ns7IyAjGGMqVCgMDg0RR69Y7WcPoHqOlOL8URZlLIRwvniSx1Gs16vUa09PT1Go1JianAQkwUVqGtS5//soVKzj99DOIS6WOwMyJyUlO27iB008/fcHxFvOlvpg088CNHLv1I4hNEGvDKuo2373SqnXybG5viYkUaI00LE+svQp9/iuIS2XiKEIb3UxHo3VgSDYKsr892mK2WDuBpkZF2Cwr++5SLXK2Oarohc2YUavVGBsbYevWZywZg6BvV8XtJN5h0o2pVHkYFVWQmfFcLEm6kMs7n6rrjsTHRBFBE/ICWhg58hNq+lV5Ji6tdVPoiDR9LqTKVWukfAdlqnfoNAXEOisnRUnyTUs0GKXDmlqt89GYa5WQu19zgEqFtVJxHC05g6CPkSQi2IlD7P2bq4iHK9hoLae//fMAHL/nSxz42nVUyq1FNOqaw5teS/305zA4dYhV934IU46pTTumrvggamQ5cRRhUj9UUcT1o+30Q91GSXE/iqb7Snpus6O1xjrLvn372LZt25yq8smivuek5PCjTNzzZcae/3qisdW5KLDHnuDgZ34TGtN456jXhAc3vZWBUzcRi8ObmGhiP/FPb6J23quR0dXEcRzSqCnARDmm1RJkQtFMmY1pnc66bLuf9ncoMi7znzYzerWmPLDWUamUWb9+PcuXLz/pmyvORn0xCXqru74+zcHr34idOow4BwNrWfUbf0+1MfvWpk9W0loRRYbBweF5bTR5Mqlvf9JsvaiEx6ngbkBpBobHqPRpeT9Z6Rc1arpR3yOpJ4kws/NukiP7QQnldVuprD/3BFXvaYITwaSn6aTTk0PoPk2z0tNMegrQ00x6CtDTTHoK0NNMegrQ00x6CtD/B2EjhAc66XUMAAAAAElFTkSuQmCC;movable=1;resizable=1;rotatable=1;deletable=1;editable=1;locked=0;connectable=1;" parent="1" vertex="1">
          <mxGeometry x="-4355.57" y="236" width="58.85" height="73.98" as="geometry" />
        </mxCell>
        <mxCell id="ZWtzyO7zbN0nfAJwWL_--12" style="edgeStyle=orthogonalEdgeStyle;rounded=0;orthogonalLoop=1;jettySize=auto;html=1;movable=1;resizable=1;rotatable=1;deletable=1;editable=1;locked=0;connectable=1;" parent="1" source="ZWtzyO7zbN0nfAJwWL_--5" target="ZWtzyO7zbN0nfAJwWL_--6" edge="1">
          <mxGeometry relative="1" as="geometry" />
        </mxCell>
        <mxCell id="ZWtzyO7zbN0nfAJwWL_--31" style="edgeStyle=orthogonalEdgeStyle;rounded=0;orthogonalLoop=1;jettySize=auto;html=1;movable=1;resizable=1;rotatable=1;deletable=1;editable=1;locked=0;connectable=1;" parent="1" source="ZWtzyO7zbN0nfAJwWL_--5" target="ZWtzyO7zbN0nfAJwWL_--30" edge="1">
          <mxGeometry relative="1" as="geometry">
            <Array as="points">
              <mxPoint x="-4440" y="370.99" />
            </Array>
          </mxGeometry>
        </mxCell>
        <mxCell id="ZWtzyO7zbN0nfAJwWL_--5" value="" style="shape=image;verticalLabelPosition=bottom;labelBackgroundColor=default;verticalAlign=top;aspect=fixed;imageAspect=0;image=data:image/png,iVBORw0KGgoAAAANSUhEUgAAAGEAAABnCAYAAAAQXyy+AAAABHNCSVQICAgIfAhkiAAAABl0RVh0U29mdHdhcmUAZ25vbWUtc2NyZWVuc2hvdO8Dvz4AAAAmdEVYdENyZWF0aW9uIFRpbWUAcXVpIDA0IGFiciAyMDI0IDEwOjI2OjQ2pVXw8AAAIABJREFUeJztnXl4VFWa/z/33tpTlVSSSip7QghLAgFCWGVTXHAZbcSNbgWH7p4etdVWHEZbHbXbXmzHUUaHHuy2VRoUxcYNaEQEFBNlVRAIkIXs+1JVSe1V997fHwVRTIAAUfKbzud57kOoOvfcc+73nnPPec973hJUVVUZ5IIiXugCDDIowoBgUIQBwKAIA4BBEQYAgyIMAAZFGAAMijAAGBRhADAowgBgUIQBwKAIA4BBEQYAmgtdgNMRCoVobGykqqqK5uZmOjo6cLlc+P1+gsEgADqdDr1eT3R0NPHx8dhsNjIyMkhNTcVoNF7gGvSNASdCe3s7O3bs4NNPP2X//v20tbXhdDrxeDz4fD4CgQDhcBhZllFVFY1GgyRJ6PV6TCYTRqORmJgYbDYbY8aMYcaMGUybNg2bzXahq3Zq1AFAOBxW9+zZo95xxx1qamqqajKZVI1GowqCoAK9HqJWp4pa3Sm/FwRB1Wg0qtFoVBMSEtTbbrtNLSoqUoPB4IWubg8EVb0wizqhUAiHw0FxcTFLly6lqKgIRVFAEJD0JiSjCZ0lDm1MHF3lBwj73IhaHTEjCsm6/g7iC2YhiBIdB4qpemc5joM7UIJ+RK0O64gJhNwOgq52wn4Pst8LqoooikyaNInFixczc+ZMYmNj0el0F6L6J/G9i6CqKrW1tWzZsoVXX32V4uJiZFlG0hkwJmUQlTYMa94krLkT0MfaqXx7GfUfvo4qh0m59BaGzr8fQ0LqSXkGOpqpWruMuk2voYRDJM2cS86tSwh1OXAe2YuzZCeeunK8jVURQYDJkyezaNEiLr/8cjIzM5Ek6fu8DSfxvYoQDAZ5//33WblyJdu3b8fpdCJotMTlTyV+3CysIydgHpKLxmhGDYdo3P4upa/8hqCzleRLbmTEov9AF5vQe96dHZSv+gN1G1eitVgZ+sMHSJtzG6JOjxL0464+gqNkF+37ttOx71OUcAiLxcK0adO47bbbuOmmmy5Yq/jeRKisrOTpp59m3bp11NfXI4gS1rxJpF99OzHDx6GPT0bUaLvT+1sb2P+Hn+E6+gUxI8Yz7pGX0ccmnvYaQWcb+37/U5wlu7BkjyJ/8QuYM0d2f6/KIfztzXQdO0jN+ldxHChGVWSSkpK44oorePTRRxk2bNh3dg9OxXcugqqq7Ny5k/vuu4+9e/cSDofRWW0MueleUi6eh8ZiRRB6Tleq3/0zpS//ClGnZ+zDf8E2/uI+Xc9Vto89D9+IHPAzdP59ZN9yH4L0rUGgqhJyu2j4+D2q3vpvAo4mJEkiLy+PpUuXcskllyAIQj/Uvm98p5O1YDDIO++8w/z589m5cyeqpCFuzHQKf72azOt+ijY6rlcBwn4PNev+jIqKffp1xAwb2+drmjNGkHr5DwGo37yaUJezZyJBQGuxknH1Akb/+yvEjrkEVdJx4MABFi5cyIoVK/B6vedc77NFeuKJJ574LjJ2uVysWLGCxYsX09jYhNGeQfrVt5N7528x2FJPe27tuldoKlqHPs5O1vX/SnT2aOjjkylqNIg6Ax0HivG3NqAxmYkdPbXXtIIoYIhLJGbULARBQ6CjEUdTHZ988jF6vZ5Ro0ZhMBjOuu5ny3cigsPh4Nlnn+WJJ56gy+0mOns0Q3/0AGlX3IqkO32lwp5OSpb9OyG3i7gx00i/6nY0xqizuLqAxmTGW19JV9VhPPXHSL1s/imvK4gCGoMBU+ootNYUgh2NdDXXUFRUhNfrpbCwEJPJdBbXP3v6fcbscrlYunQpL7zwAj6fj+icMYz4l18RM7wAUXPm0Uf7/k/xt9Qj6QwY4pNwHd1LoKOZoLONoNuJ7HWjBP2ochhQEaTIk68xmtFaYtDG2NDH2tFZbWiMUQTaG2nb/RHJl9xwymtKWglDnIXY/JloLfHUvvssneV7Wb58Oaqq8uijjxIXF9ePd+lk+vXFHAqFePnll3nwwQdxuVwY7ekUPvkmpqTMM3YnIbcT56FdVK5dhvPIHgBEjRZBEFFVBVVVQVVAVYmU+ESxheNZCyCKkReqIIKqooSDoKpYhuSRfcv9xI6ejC4mPpK2FwJdAfwON4G2Bsr+/As8dUcwm8088sgj3Hfffd9Z19SvInz00UfcdtttNLe0EJWaw/hfvYYxMa1HOlUOE/Z2EXS20b5vOy07NuEq3Yvs931dMFFE1OoRNNqIGJIGQZQQRCki6AlRVTUijCJHDjmMEg6jhoMooSCqInfnKWp0RA/Nxzb5ChImXIo+PgmNydI9NFbCCj6Hh7AvRNDZwpFld+BrLCM+Lo7ly5czb948RLH/xzL9JkJZWRnXX389hw4dwpwxgryf/wFr3qST0sh+L566Mlxl+2nbsxXHoR2EPZ2RgkgaBFFECUWso/bp12IZMgpjYurX3UtUNBqjGVGnR5C0IIAaDqOEAoR9bsKeToLONgKOFvyt9XRVltBcvB5VDn/jRocAkAwmYvMmEV94CTHDx2POHInGGEXIG8Tn8KLKCt76Uir++jDeuiMMHz6cNWvWMHZs30dqfaVfRGhra2PRokWsX78egy2ZnAW/JGnGdYjayDtA9ntwHtlL667NOA7twFNTGrkZgoAxKYOYnLFEpQ/DcWgnHfuLkAwmZry083jXce4EOzv47K6LCbraiBleQMLEy/DUVeAq24e3sQpUBUGSMKUMJXb0FBImXo41dyIhv0jIG2lFjgPbqHn7GQJtdVx66aWsXr2ahITeZ+3nynm/mFVVZfny5WzatAlRZyBp5lwSp17ZLUDXsUPUrP8LHQc+w99Sj6rISHojtrHTsV90DZbs0ejjk1DlMO7qowBYcyeetwAAuug4rLkTaNnxARqTmeSL5yEZogh0NNNVfZiWz/5Ox1dFeGpL8dSV07ZnK7GjJpF0ya3obMMis/rcafimVtC4+WW2bdvGM888w1NPPdWvk7nzFmHHjh2sWrWKUCiEZWguWfPuQmM0o4SCVL39R6rfeZGwz42qyAiiSNKMH5B1w51EpQ1D1OoifTzQdewgvqYqAGwTLj3fYnUTP2E2LTs+wN/WiL+tkdjRU9BZbZizcrFP+yd8DZXUbHiF+s1v4G+to2l7A627PyJh2s2kXX0nos6IfcYtdJbvpfPI56xatYo5c+Ywe/bsfivjeYnQ1dXFypUrKS8vR9TpGX77Q2hMFpxH9lD68pM4D+9GEEW0ZivxBTMZctO9J9lyvknA0YK3qQZBELGNm3k+xToJ27iZIIgE2pvwtdQRe/xzQRSRdAbMWbnk/fxphtzwc469uZTW3VsIdTlo/PAlXAe3k3nzLzFnjSF1zr/grT5EU1MTL774IuPHj8dqtfZLGc/5VX/CJrRp0yZkWSZl9s3EDCugfvMbHHz2XpyHd0e6ncLZ5N3zDHn3/NcpBVBlGV9LHWFPJ/o4OwZ7+jlX6NsYE9Mx2JII+9z4W+siw9be0iVlknvXHxi9+HkSp16FxmTB21BKxasP0bx9NcakoSRMvR5FUSguLmbLli2R9Y9+4Jxbgsfj4d1336WyshJTchbpVy+k4s2lNG77G0FX+/HPbsc+7Z962P+/jRIO4m04BoBlSF53F9UvCALROWPxtzbga65F9nkRLb1PGkWtDtv4i7Fk5dLy+UZq1r+Mp66chg/+RKCtjsRpN+I48DENDdW8//77zJo1q1+WTc+5JTQ0NLB27VpUVSVh4uVUrH6W2r+vINjZQdyY6eTd/Z9kXPuTMwoAoISCeOsjIkRlDEfo57G4ZcgoAHzNNch+zxnT6+PspF15G3n3PIs1/2LCvi5aP3+H2nX/Tfz4OaiqysaNGykrK+uX8p2xJSiKwu7du6mtrUWWv574bNy4kaamJjRR0bTs3IS/NTLyMSZlEjfmIgKOFpqL1/epEGFvF52VhwAIdTlpKlrXr6OPUFcHAJ66MpqL16OPs/fpPFVRiRkxkUB7Hb6GcpyHivA1VaIxRdPa2spzzz1HdXV1d1klSSIlJYXJkyef3UrdqRaf/X6/+s4776gjR4485WL64NH7kZaWpr7++uuq1+vt00J/ry0hFAqxYcMGFi9eTHV1NTHRehLijH21Jv/joaqoaghVCdPhkqmrq+P+++8nEAjwox/96IzLpr2K0NDQwKpVq6iurmbk0DgW/6yA9JRoxEERekVFRQk0E/Y10NAS5PnXOygpb+a1115j6tSpjBgx4rTnn1KE3bt3A/DgXRP40dyRg63gDChBEyG3H0X2E2/VcNPiWg4ePEhlZeUZReh1GOL3+3E4HAgCTCpIGhSgLwhaEDQIAkwbb0IQImsrbrf7jKf2KoKqqpyw64mDCpw1YreVvW+20X8Ir2xZOXdDsaqqtDv8OJx+vnlPQ2GF+iY3Pn/4vMt3zjPm1nYf23fWM26UjexMKwKRyh4p76CiysmsqWnEWPR8caCF/YdbUXrcCIGMVAsXT0lDkgRKyjrY81UzstzTFGCLM3LtZdkIApRWOtm1r4lgMDJnkSSR5MQoJoy1E2/9euVLUVW+PNjC5k9rcDgDJCWYmDEplbF5CWi1fX/2auq7eP6VfXh9IZ55dCZRpsi6xLbPanllTQn5I+N5+O5JZ8jl9JyzCK++VcL/vLqPhTfksuTOCUSbdThdAZa+9CUfFdXw7GMz+cEVQ/n3333KwaPtfLtlCgLEWHRsem0esTF6/nP5Hj7cXk1v5hiTUUNasoXsjGj+9NoBVr93FFk+3l2KYDbpmDDWznOPzSQpMeIUsLWoll8v3cGXh1oJhmRMBi1Ds2J4+ZkrGJPbN1ODoqjs+LKJv7xxCFVVefKBi4gyaXG4/Ly5rpR3Pyjnq8OtF06EoxUOGls8VDd0EQjIYIZAMExFjZP6Jjc1DV0ARBm1dDj9veZhidJi1EtIoojRoKHd0Xs6WdaREG/E75epqu2krcN30vftDj+1jV3ExehZ9tvZNLd5WbG2hJ37mlFVlTirAYcrQNkxB27vyQa8moYu3J4gecN6rl94fCHWf3QMry/ErClpmI63giMVDnbva0JWVK6fM/Ss7923OXcr6omFdvUbf0P3E6+qKqIo8Ob/Xs3RT27nteevxBZnRKeV+I9fTObwtoXs3fgj7AlRmKO0LH1iFmWf/jPb1tyIQS9h0Evcu2gcJVsXUl60iIwUy/EpaeQCP75lFCVbF/L5u7dwy7XDQYXV7x0lLEf66pLSDlRV5T/unUzd7p+ye/0P2bhqHuNHf22yqKzt5KdLNlNw5esU72nsUcfmVi8ffFKFJAncdM0w9DqJUFhhz/5myqqcmIwa7lx4/sud572o4/GGqGtw4/OFaW7zRlrFNzDoNQxJj6GpxYskRTwjEuKNDM209kiXmRqNJIndtpi4WAM5Wb3b7K0xenKyrITCCqNH2Hh3UwX+gEww+K3+TIAvDrQSZdIwangcet3XNh1JFEhPtpA3LA6pl5no6+8exdUZZER2LJMLkpEkgfY2Hxu3VSHLKtfMHkKK3Xwut+0kzluEvQeaeeTpYnQ6CX8gTEW167wL1Rc+39vIr5fuwOcPs6W4lkBQZvzoRIwGDSn2KEbmxHHwaDvPv7yPtzeWE23RMSE/kXsWjSMrPQaAtBQzD941gQ6nn0njTjbqdXYFWbn2MIIgMHNKGplpFgAOl3ew44tGDHqJm64Z1i9zqPMWoaHZQ0Pzmc3D/c3OL5vYvT/S58uySoxFx6P3Tjre0kzccWs+NXWd7NrfzKHSdgC+ONCCosJzj88CInOg4dmxvea/bssxauo7scUbmT4xhZjjaxCr3zuK2xtiSkEyY/L6Z8H/vEUYkR3LjMmpGA0aPN4QH3xcTUPzmWeJ54uiqCiKik4nUZifwC/vnsgVMzOBSDczbWIKG/46l/2HWmlocbNhSxVvrjvKqrcP8+xjs077BCuKyourDqACOVlWphYmIwgCrq4Aa9aVIghw6Yx0Uuxn4555as5bhILRiTyxeAqJ8SYamt0cPeb4XkRY/LPxPPXQ9F6/U1UVrz+MqqpMKUwGFdyeEG9vLMfrCyPLChqNiMPl59dLd7Ljy0bW/PEa0lMiXU7xngaOHnOg1YpMHZ9MVlo0AC+9cQi3N0RmajRTxydj0PePF+mA273ZHzS3efnTaweobXAzdpQNRYHV7x4hGJKZMj4ZjSYyKGzr8HOotJ2S0g4Ol3WQnmIhFFZ4f/Mx3J4g0WYdc6+MDEE7u4KsWFOCIAjk59oYm9t/vkfnLIJGilREFIVvrIIJ3aOME9+fQJQETriM9jYS+TrfyHeCEMn7mwgCSMeXPr+d/zdpaPbw3ofHOHCkDf729ecp9ijuWTSu+//pKWZ+8ZMCahu6mDI+GYC2Dh/7S1oJhRTG5ycyfnRkd9C+klZqGjqJMmqYOTmVRFv/eWqfswhXzMxgxxeNTBxnJ9oceWlFm3VMn5SKqzNAYf7JW5tyMq1MGGOnpqGLyQXJp8w3LsbANZcOoazSyZRvpYux6JkyPonyKiczJ/f0cT3BsCFWltxRyFvrS/nqcBuKCuNGJXDb9SOZMyurO51Br+Ga2UNQ+dpF2BKlo2BUIm0dPh66cyI6bWRIm55iYdyoRKzROuZdmdOvluVe3SC3bt3Ktddei8/npWTr7QzNjOlxYlhWCARkdFrpJFtMMCgTCisYDZoeT7LPH0ZRVIxGzWmts/5AGFlWMRg0PVpNMKQQCskY9Bok6dR5yLJKMCR3mzckSUCvk3qUqTcCQZnwt+qgquDzhxAEAYNe00MEJeQi5C5Bld14fQrJFx9FrzewcuVKbrzxxtNe77y6I42pZ5eg00nodL0vchsNfbvc6V54Oq2Irg8GOEkSMH57r1of0eukkyZ1EOkKTUbtKc44P/4hTNkDnV4fFUEQEEURVYVwuH+8zP5/o77JzYYtlZiMWlLsUaQkRZFiN3e//3ryda8eCkc2soii2CfXnV5FMJlMxMfH43a7Kd7TwIihvc8q/y+z9KUvWfG3ErQaEXOUFnOUDotZR5LNRM4QKzlZkWNYlpVEmxHUUOQAPt4dsSBYrVbM5jPblnoVISUlhQkTJlBdXc2DvysiGFKYMSnltC/C/2scrXDg7AwA0PoN07kgCEhSZCge+VckLtbA6GEGpuQLGHQCT/5vCwCjR48mOzv7zBfrzRlJURT1vffeU7Ozs08baeUf4UiwJ6m3/+s96o/vuk+dddmVamZ2jmpPTlVj421qlNmianW9R5pJS0tTX331VVVRlHNz/hIEgSuvvBKfz8fLL79MWVkZHo/nJC9kRVFwOp0oioKkN6IqcvdWJwQBbVQ09NWxV1WRfW6UcAhJZ0A09O+WVSXgQw74EDTayHbcXjaw9zxJIeSO1K9w0kX80w3zAfB5vdTXVlFbXUltdSV7Pi9m43tvIcsyBoOBxMREsrOzWbhwIfPnzz/3dwJEImrdcsstTJkyhZKSElwu10kidHV1sXTpUo4cOYIpJZvEqVdSs/4VQp0dCAiYM0aQfNnNZ9y3DKAE/dR/tCYSkyJnDGlzbkXox6gr9ZvfoGN/EZasPFIvvwVNVPTpT1DB2+qgYtXjdDodNNTVoCgKoihiNJnIGZFHzog8Whob2FW8HUVRsVgsLFiwgDlz5vS9GzrOGQfSmZmZZGZm9vg8EAjQ2trK448/jq+1noQJlxGVkk3ZyqfwNdfiri2lfc82sn+4GEtW7mmvIQf9eBuqcZbsApXj+930fa7Emaj/cDUAMcPGkjxr3hlF6Koupemz50BVCYVC1NVW4/W4MVtOPm/b5r/zwftvo6oK06dPZ8mSJWRlZZ11+c55nqDX65kzZw6jRo0i7HZStuJ32KdfR/6/LSN6eAEht4vmzzfy5a9uo3rdS4R9p7asihodUWk5ALirSlDk83cjOYGqKHSW7wcEjMmZSKeJDqAE/dRvXs2+39xO28513Wu1dTVVdLp6xsjIL5iA4XicvZ07d7JlyxZCodBZl/G8Jmtjx45l3rx5GAwG2vd/SuMnb0fC4vzyT6RcejNaczT+9iaO/vlxvnj8Vlp3bSboakcNn1xQQRTRxyehi4kn7HPjrjp8PsU6CXf1EcJeN1pLDAZbSo8NKKocJtjZQcf+T/niVws49MISfE01iPooDIlZANRVV+FyOnrknZc/jjfWf0xa5hAcDgcPPPAAb775ZneQxL5yXrEtJEnCbreza9cu6uvr8dSVEztqMlGpQ0mYeDmmlCGEPZ2E3S689RU0F62js+IrlKA/MtQzRHV3O0rAh6NkF4H2RvTxScSNmXauxTqJhq1r6Nj3KVEpQ0i55EYMtohRUPZ78NSU0rp3K5VvvUDF6/+Fr6kayRiFZcg4Uub8FPusH9L6+TsEfF4uv/oHxMbFs2dnMYGAnxhrHKIokpicQl7+WI6WHKCurobNH35IfHw8ubm5fQ5idd4BRmw2G2azmQ0bNuB3dSD7vcQML0ATZcGcMZy4MdMwJqSiKmH8bQ1464/Rsf9TnIf34qk+QsDZEtlcaLHSVXEAd9Vhwp5O0q9c0OfILqdEVSl79Tf42xqIzhlL0owfEGitp3XPFuo/epO6jStp3PYWntqy40GwJmOfPp/ky/6Z6GETESSJjr0f4HO1MSIvn60frGfZM7/l4L69pGdlk5ySGtmRmpJGds5wjpUeobamiu3bt5ORkUFBQUGfinneIgiCQE5ODg6Hgx2ff4avpRat2Ur00NEIkgaNyYJlSB6xo6cQmzsRJRTE11yDv62BzmMHcR7eTfuXn9BxoBhvYxXBznZCnQ5SLrkBrfn8dkf6W+upeONZlFAIUHEd2Uv9R2/S8vlGnCW7CHQ0I0gS8eNmkXPrv5E0az5RWePRmGMjD4AcprN0F4G2WipKj7Cz6BNczg4aaqspPXyQvDEF2JNTEUWRpJRU2lpb2LdnBz6vl5iYGObOndu3e9hfYRUCgQBXXXUV27ZtQ2u2kv/ACz33I6sqciiAv7mO+o/eoPHjtQQ6WgD15FgVgNGejiU7H3PmcExJWRjt6eii49FYrEhGM5JWF5kVhYKE/R7CbidBZzu+llp8TdW4a0rpOnYQb1N1JM9v5a+1xJE08wekXT4fU1oOokaHp9mNHP7aZaezfC+ly3+O/I1BRVxcHB6Ph2AwSHpWNivf3Ux6Zhafb9/GY//2c46VHUWn07FmzRquu+66Pt27fg0wUlJSwk033cThw4fRxtgoeGwF0UPzT7kbUwn6cZTsOv5k7o60gi4nSijQX0UCItFitJZYNJZYrCMLSZx4OXEFM5H0X0cQ9ju9BDojHoCqouCtLeHoH+8i5I7sdxNFkdzcXN566y0+/PBDnnzySTo6OohPsPPob5/hzy/8F4e++hKr1crSpUu5/fbb+1y+fhUhHA6zceNGlixZQmlpKbo4O6Pu/k/ixs7oDrNwKuSAD09dOVVrl0U2HAoixqQMNCYLss+DHPCiBAORyC1yuNvtXBCESHASjRZJpz8eUzUKOeDD11SNEgqSMOkKsm++l6j04WhMPQ1qYX8Ib6s7siUgHKKzbDdVa35LoLUGu91OdnY2NpuNp556itzcXLq6unjppZd4+umnaWpqQpI0yHKY1NRUHnvsMX72s5+d1X3r90CEfr+ftWvX8vDDD1NTU4MpdShDb7mPxIuuPunJOxUdX33GF0/cCqikXDaftDm3EvZ2IfvcyH4vcjCAGg6iHp+9C6IYCcej1SMZTGiMZjQmC83FG6hZ9xfkoI/CJ98gfuyMXq+nhBW87W7kQCRajPPgJ9T//X/xNpYTHxfHk08+yezZs4mJicFut3ebIdxuN3/961955JFHcDqdpKSk8NBDD/GTn/zkrCOF9bu3hcFg4IYbbsBoNLJo0SI6G45R9tffE3C1k37VgjMKYR1ZiDljOJ0VB/DWV6AxWYgemn9WZQi0N+Kpr0AO+rBkjiQ2r3evaVVRCXb5kYORWEmtn79D40evEOhoINpi4fnnn2fu3Lm93lSz2cyPf/xjMjMzKSoqorCwkDlz5pxTqLbvLCSnoijs3buXuXPn0tDQgKjRkTTrenLv/N0ZhWj85F0OPBMJVDLyX39Dyuyb+j5cVVVad2/h4LP3EPK4GPWLZ0m9bH6vSUOeAD6HF9nvo/pvv6d15zrUcBC73c7KlSuZPXv2Gfcjq6pKOBxGkqRzDkj1nS1viqLIxIkTWb9+PdOmTUMjQsOWN9lx/5W0f/lJxIxxCv2TZlyHZcgowj43zcXr8bc39fm6YW8njR//jZDHRVT6MOzTru01nRwI421z4Dqyk5LnFtJSvBYJhcLCQt544w0uvfTSPm0IFwQBrVZ7XhHBvrOQnCdISkpi+vTp+P1+Kisr6Wyup23PFkKdHWhMFnQxth7BYwVBQGOMov2Lj/E2VmNKziQ6p28u6C07N1G59o+IGi3ZN/8C68jCHrFX5UCAtv27adjyOnUbluFvqcZisXDDDTfw+9//nilTpnwnYdZOxXcugiAI2Gw2pk6dSnp6Oq2trdQcq6CzbD+u0r34WuoRtTr0sQkniaG3JuKpLcNdcxR3bRlxoyejjz19OISuqsMc/uNDBF1txI+dQebcfzlpwqeEAjiPfkHN+hXUbXwF51dbUQIeCgoKWLJkCffffz85OTnfa3Rg+J4DlsuyTGlpKatXr+all16isbERQdJgTEzDMjQf+0VXYyu4GI05BlVRaP/yY468+CjexiosQ/MZ++CLmJKzes3b11LLwaX34zjwGQZbCiN++gSJU69CECVkv5f2L7fT/NkGXGX78DVVo8phbDYbCxYsYMGCBeTn56PRXBiv0Avy+wmhUIijR4/y1FNPsWbNmoj5VxARtZFJVcKEy0mcOoeYEeOp3fAqlX/7H2S/j5iRhYy65xnMGcNPys/bWMXh5Q/TsW87gqgh47qfkH3TvXQeO0jLZxtp2bXpuPX266HtddddxyOPPMK4ceMu+G8oXLAfsTjBV199xbJly9ht4D60AAABWklEQVS0aRMOhwO32929gicZozAlZR3/3YOIB8OJcM+2wtkIkkT7vu3UbngVT105EIlZZM7MxdtYRdgT2bAiCAJRUVHExsYyc+ZM7r77bqZMmXIhqtsrF1wEiAxnjx07xocffkhRURHl5eXU1dXR2tpKONz7Ao8gabpDcvaGRqMhLi6OtLQ0hgwZwkUXXcScOXMYMWLEBet2TsWAEOGbeDweKioqKCsro6Kigurqaqqrq7t/XcrpdHb/upSiKGi1WkwmExaLhfj4eOx2OxkZGWRlZZGdnc2wYcMYPnx4n/x/LhQDToRvEg6H6ezs7O6mvF4vPp+PcDjc3UJEUez+ma8TYlitVmJiYtBqvxvf0f5mQIvwj8KgQ/AAYFCEAcCgCAOAQREGAIMiDAAGRRgADIowABgUYQAwKMIAYFCEAcCgCAOAQREGAIMiDAAGRRgADIowABgUYQDw/wBDK3glTr8hbQAAAABJRU5ErkJggg==;movable=1;resizable=1;rotatable=1;deletable=1;editable=1;locked=0;connectable=1;" parent="1" vertex="1">
          <mxGeometry x="-4475.57" y="239.11" width="63.81" height="67.76" as="geometry" />
        </mxCell>
        <mxCell id="ZWtzyO7zbN0nfAJwWL_--11" style="edgeStyle=orthogonalEdgeStyle;rounded=0;orthogonalLoop=1;jettySize=auto;html=1;movable=1;resizable=1;rotatable=1;deletable=1;editable=1;locked=0;connectable=1;" parent="1" source="ZWtzyO7zbN0nfAJwWL_--8" target="ZWtzyO7zbN0nfAJwWL_--5" edge="1">
          <mxGeometry relative="1" as="geometry" />
        </mxCell>
        <mxCell id="ZWtzyO7zbN0nfAJwWL_--8" value="" style="shape=actor;whiteSpace=wrap;html=1;movable=1;resizable=1;rotatable=1;deletable=1;editable=1;locked=0;connectable=1;" parent="1" vertex="1">
          <mxGeometry x="-4575.57" y="246.99" width="40" height="52" as="geometry" />
        </mxCell>
        <mxCell id="ZWtzyO7zbN0nfAJwWL_--18" value="HTTPS" style="text;html=1;align=center;verticalAlign=middle;resizable=1;points=[];autosize=1;strokeColor=#36393d;fillColor=#eeeeee;fontStyle=1;movable=1;rotatable=1;deletable=1;editable=1;locked=0;connectable=1;" parent="1" vertex="1">
          <mxGeometry x="-4070" y="252.99" width="60" height="30" as="geometry" />
        </mxCell>
        <mxCell id="ZWtzyO7zbN0nfAJwWL_--21" value="&lt;div style=&quot;&quot;&gt;&lt;span style=&quot;font-size: 14px; background-color: initial;&quot;&gt;Volume de requisições por segundo: 2.000/s&lt;/span&gt;&lt;/div&gt;" style="whiteSpace=wrap;html=1;verticalAlign=bottom;fillColor=#FFFF66;strokeColor=none;shadow=0;dashed=0;align=center;movable=1;resizable=1;rotatable=1;deletable=1;editable=1;locked=0;connectable=1;" parent="1" vertex="1">
          <mxGeometry x="-4120" y="199.11" width="160" height="40" as="geometry" />
        </mxCell>
        <mxCell id="ZWtzyO7zbN0nfAJwWL_--30" value="Internet (Web)" style="sketch=0;aspect=fixed;pointerEvents=1;shadow=0;dashed=0;html=1;strokeColor=none;labelPosition=center;verticalLabelPosition=bottom;verticalAlign=top;align=center;fillColor=#00188D;shape=mxgraph.azure.computer;movable=1;resizable=1;rotatable=1;deletable=1;editable=1;locked=0;connectable=1;" parent="1" vertex="1">
          <mxGeometry x="-4355.57" y="348.99" width="50" height="45" as="geometry" />
        </mxCell>
        <mxCell id="ZWtzyO7zbN0nfAJwWL_--64" style="edgeStyle=orthogonalEdgeStyle;rounded=0;orthogonalLoop=1;jettySize=auto;html=1;exitX=0.5;exitY=1;exitDx=0;exitDy=0;movable=1;resizable=1;rotatable=1;deletable=1;editable=1;locked=0;connectable=1;" parent="1" edge="1">
          <mxGeometry relative="1" as="geometry">
            <mxPoint x="-185" y="159.99999999999977" as="sourcePoint" />
            <mxPoint x="-185" y="159.99999999999977" as="targetPoint" />
          </mxGeometry>
        </mxCell>
        <mxCell id="ZWtzyO7zbN0nfAJwWL_--27" value="&lt;font style=&quot;font-size: 14px;&quot;&gt;AWS Route 53&lt;/font&gt;" style="sketch=0;points=[[0,0,0],[0.25,0,0],[0.5,0,0],[0.75,0,0],[1,0,0],[0,1,0],[0.25,1,0],[0.5,1,0],[0.75,1,0],[1,1,0],[0,0.25,0],[0,0.5,0],[0,0.75,0],[1,0.25,0],[1,0.5,0],[1,0.75,0]];outlineConnect=0;fontColor=#232F3E;fillColor=#8C4FFF;strokeColor=#ffffff;dashed=0;verticalLabelPosition=bottom;verticalAlign=top;align=center;html=1;fontSize=12;fontStyle=0;aspect=fixed;shape=mxgraph.aws4.resourceIcon;resIcon=mxgraph.aws4.route_53;movable=1;resizable=1;rotatable=1;deletable=1;editable=1;locked=0;connectable=1;" parent="1" vertex="1">
          <mxGeometry x="-3931" y="1140" width="78" height="78" as="geometry" />
        </mxCell>
        <mxCell id="ZWtzyO7zbN0nfAJwWL_--26" value="&lt;font style=&quot;font-size: 14px;&quot;&gt;Amazon &lt;br&gt;CloudFront (CDN)&lt;/font&gt;" style="sketch=0;points=[[0,0,0],[0.25,0,0],[0.5,0,0],[0.75,0,0],[1,0,0],[0,1,0],[0.25,1,0],[0.5,1,0],[0.75,1,0],[1,1,0],[0,0.25,0],[0,0.5,0],[0,0.75,0],[1,0.25,0],[1,0.5,0],[1,0.75,0]];outlineConnect=0;fontColor=#232F3E;fillColor=#8C4FFF;strokeColor=#ffffff;dashed=0;verticalLabelPosition=bottom;verticalAlign=top;align=center;html=1;fontSize=12;fontStyle=0;aspect=fixed;shape=mxgraph.aws4.resourceIcon;resIcon=mxgraph.aws4.cloudfront;movable=1;resizable=1;rotatable=1;deletable=1;editable=1;locked=0;connectable=1;" parent="1" vertex="1">
          <mxGeometry x="-3931" y="1260" width="78" height="78" as="geometry" />
        </mxCell>
        <mxCell id="ZWtzyO7zbN0nfAJwWL_--127" value="&lt;b&gt;Region: BRASIL&lt;/b&gt;" style="points=[[0,0],[0.25,0],[0.5,0],[0.75,0],[1,0],[1,0.25],[1,0.5],[1,0.75],[1,1],[0.75,1],[0.5,1],[0.25,1],[0,1],[0,0.75],[0,0.5],[0,0.25]];outlineConnect=0;gradientColor=none;html=1;whiteSpace=wrap;fontSize=12;fontStyle=0;container=1;pointerEvents=0;collapsible=0;recursiveResize=0;shape=mxgraph.aws4.group;grIcon=mxgraph.aws4.group_region;strokeColor=#00A4A6;fillColor=none;verticalAlign=top;align=left;spacingLeft=30;fontColor=#147EBA;dashed=1;movable=1;resizable=1;rotatable=1;deletable=1;editable=1;locked=0;connectable=1;" parent="1" vertex="1">
          <mxGeometry x="-3800" y="220" width="2690" height="2920" as="geometry" />
        </mxCell>
        <mxCell id="ZWtzyO7zbN0nfAJwWL_--271" value="" style="fillColor=#EFF0F3;strokeColor=none;dashed=0;verticalAlign=top;fontStyle=0;fontColor=#232F3D;whiteSpace=wrap;html=1;movable=1;resizable=1;rotatable=1;deletable=1;editable=1;locked=0;connectable=1;" parent="ZWtzyO7zbN0nfAJwWL_--127" vertex="1">
          <mxGeometry x="60" y="166.01" width="1780" height="1153.99" as="geometry" />
        </mxCell>
        <mxCell id="p3Uelv7HjlV6XYQt6EcZ-16" value="" style="fillColor=#EFF0F3;strokeColor=none;dashed=0;verticalAlign=top;fontStyle=0;fontColor=#232F3D;whiteSpace=wrap;html=1;movable=1;resizable=1;rotatable=1;deletable=1;editable=1;locked=0;connectable=1;" parent="ZWtzyO7zbN0nfAJwWL_--127" vertex="1">
          <mxGeometry x="20" y="1361" width="510" height="140" as="geometry" />
        </mxCell>
        <mxCell id="ZWtzyO7zbN0nfAJwWL_--397" value="&lt;span style=&quot;font-size: 14px;&quot;&gt;&lt;b&gt;Observabilidade&lt;/b&gt;&lt;/span&gt;" style="fillColor=#EFF0F3;strokeColor=none;dashed=0;verticalAlign=top;fontStyle=0;fontColor=#232F3D;whiteSpace=wrap;html=1;movable=1;resizable=1;rotatable=1;deletable=1;editable=1;locked=0;connectable=1;" parent="ZWtzyO7zbN0nfAJwWL_--127" vertex="1">
          <mxGeometry x="577" y="1361" width="370" height="140" as="geometry" />
        </mxCell>
        <mxCell id="ZWtzyO7zbN0nfAJwWL_--156" value="Availability Zone (AZ) - BR:&lt;b style=&quot;text-align: left;&quot;&gt;São Paulo -&amp;nbsp;&lt;span style=&quot;font-size: 14px; line-height: var(--cib-type-body1-strong-line-height); font-variation-settings: var(--cib-type-body1-strong-font-variation-settings); font-family: -apple-system, Roboto, SegoeUI, &amp;quot;Segoe UI&amp;quot;, &amp;quot;Helvetica Neue&amp;quot;, Helvetica, &amp;quot;Microsoft YaHei&amp;quot;, &amp;quot;Meiryo UI&amp;quot;, Meiryo, &amp;quot;Arial Unicode MS&amp;quot;, sans-serif; background-color: rgb(243, 243, 243);&quot;&gt;sa-east-1b&lt;/span&gt;&lt;/b&gt;" style="fillColor=none;strokeColor=#147EBA;dashed=1;verticalAlign=top;fontStyle=0;fontColor=#147EBA;whiteSpace=wrap;html=1;movable=1;resizable=1;rotatable=1;deletable=1;editable=1;locked=0;connectable=1;" parent="ZWtzyO7zbN0nfAJwWL_--127" vertex="1">
          <mxGeometry x="20" y="1570" width="2230" height="1280" as="geometry" />
        </mxCell>
        <mxCell id="kOEdCS07rvlNoeLBa7wD-106" style="edgeStyle=orthogonalEdgeStyle;rounded=0;orthogonalLoop=1;jettySize=auto;html=1;" edge="1" parent="ZWtzyO7zbN0nfAJwWL_--127" source="ZWtzyO7zbN0nfAJwWL_--304" target="kOEdCS07rvlNoeLBa7wD-105">
          <mxGeometry relative="1" as="geometry" />
        </mxCell>
        <mxCell id="ZWtzyO7zbN0nfAJwWL_--304" value="&lt;font style=&quot;font-size: 14px;&quot;&gt;AWS Lambda&lt;/font&gt;&lt;div&gt;&lt;span style=&quot;font-size: 14px;&quot;&gt;Lê eventos de atualização dos&amp;nbsp;&lt;/span&gt;&lt;/div&gt;&lt;div&gt;&lt;span style=&quot;font-size: 14px;&quot;&gt;PRODUTOS&lt;/span&gt;&lt;/div&gt;&lt;div&gt;&lt;div style=&quot;font-size: 14px;&quot;&gt;&lt;br&gt;&lt;/div&gt;&lt;/div&gt;" style="sketch=0;points=[[0,0,0],[0.25,0,0],[0.5,0,0],[0.75,0,0],[1,0,0],[0,1,0],[0.25,1,0],[0.5,1,0],[0.75,1,0],[1,1,0],[0,0.25,0],[0,0.5,0],[0,0.75,0],[1,0.25,0],[1,0.5,0],[1,0.75,0]];outlineConnect=0;fontColor=#232F3E;fillColor=#ED7100;strokeColor=#ffffff;dashed=0;verticalLabelPosition=bottom;verticalAlign=top;align=center;html=1;fontSize=12;fontStyle=0;aspect=fixed;shape=mxgraph.aws4.resourceIcon;resIcon=mxgraph.aws4.lambda;movable=1;resizable=1;rotatable=1;deletable=1;editable=1;locked=0;connectable=1;" parent="ZWtzyO7zbN0nfAJwWL_--127" vertex="1">
          <mxGeometry x="1966" y="530" width="78" height="78" as="geometry" />
        </mxCell>
        <mxCell id="kOEdCS07rvlNoeLBa7wD-34" style="edgeStyle=orthogonalEdgeStyle;rounded=0;orthogonalLoop=1;jettySize=auto;html=1;" edge="1" parent="ZWtzyO7zbN0nfAJwWL_--127" source="ZWtzyO7zbN0nfAJwWL_--319" target="UM05papVInRiucUio6Ng-85">
          <mxGeometry relative="1" as="geometry" />
        </mxCell>
        <mxCell id="ZWtzyO7zbN0nfAJwWL_--319" value="API Gateway" style="sketch=0;points=[[0,0,0],[0.25,0,0],[0.5,0,0],[0.75,0,0],[1,0,0],[0,1,0],[0.25,1,0],[0.5,1,0],[0.75,1,0],[1,1,0],[0,0.25,0],[0,0.5,0],[0,0.75,0],[1,0.25,0],[1,0.5,0],[1,0.75,0]];outlineConnect=0;fontColor=#232F3E;fillColor=#E7157B;strokeColor=#ffffff;dashed=0;verticalLabelPosition=bottom;verticalAlign=top;align=center;html=1;fontSize=12;fontStyle=0;aspect=fixed;shape=mxgraph.aws4.resourceIcon;resIcon=mxgraph.aws4.api_gateway;movable=1;resizable=1;rotatable=1;deletable=1;editable=1;locked=0;connectable=1;" parent="ZWtzyO7zbN0nfAJwWL_--127" vertex="1">
          <mxGeometry x="101.13" y="1392" width="78" height="78" as="geometry" />
        </mxCell>
        <mxCell id="ZWtzyO7zbN0nfAJwWL_--323" style="edgeStyle=orthogonalEdgeStyle;rounded=0;orthogonalLoop=1;jettySize=auto;html=1;movable=1;resizable=1;rotatable=1;deletable=1;editable=1;locked=0;connectable=1;" parent="ZWtzyO7zbN0nfAJwWL_--127" source="ZWtzyO7zbN0nfAJwWL_--318" target="ZWtzyO7zbN0nfAJwWL_--322" edge="1">
          <mxGeometry relative="1" as="geometry">
            <mxPoint x="500" y="1432.000000000001" as="targetPoint" />
          </mxGeometry>
        </mxCell>
        <mxCell id="ZWtzyO7zbN0nfAJwWL_--318" value="&lt;div style=&quot;font-size: 14px;&quot;&gt;AWS Lambda Autorizer&lt;/div&gt;" style="sketch=0;points=[[0,0,0],[0.25,0,0],[0.5,0,0],[0.75,0,0],[1,0,0],[0,1,0],[0.25,1,0],[0.5,1,0],[0.75,1,0],[1,1,0],[0,0.25,0],[0,0.5,0],[0,0.75,0],[1,0.25,0],[1,0.5,0],[1,0.75,0]];outlineConnect=0;fontColor=#232F3E;fillColor=#ED7100;strokeColor=#ffffff;dashed=0;verticalLabelPosition=bottom;verticalAlign=top;align=center;html=1;fontSize=12;fontStyle=0;aspect=fixed;shape=mxgraph.aws4.resourceIcon;resIcon=mxgraph.aws4.lambda;movable=1;resizable=1;rotatable=1;deletable=1;editable=1;locked=0;connectable=1;" parent="ZWtzyO7zbN0nfAJwWL_--127" vertex="1">
          <mxGeometry x="250" y="1392" width="78" height="78" as="geometry" />
        </mxCell>
        <mxCell id="ZWtzyO7zbN0nfAJwWL_--321" style="edgeStyle=orthogonalEdgeStyle;rounded=0;orthogonalLoop=1;jettySize=auto;html=1;entryX=0;entryY=0.5;entryDx=0;entryDy=0;entryPerimeter=0;movable=1;resizable=1;rotatable=1;deletable=1;editable=1;locked=0;connectable=1;" parent="ZWtzyO7zbN0nfAJwWL_--127" source="ZWtzyO7zbN0nfAJwWL_--319" target="ZWtzyO7zbN0nfAJwWL_--318" edge="1">
          <mxGeometry relative="1" as="geometry" />
        </mxCell>
        <mxCell id="ZWtzyO7zbN0nfAJwWL_--322" value="AWS Secrets Manager" style="sketch=0;outlineConnect=0;fontColor=#232F3E;gradientColor=none;strokeColor=#ffffff;fillColor=#232F3E;dashed=0;verticalLabelPosition=middle;verticalAlign=bottom;align=center;html=1;whiteSpace=wrap;fontSize=10;fontStyle=1;spacing=3;shape=mxgraph.aws4.productIcon;prIcon=mxgraph.aws4.secrets_manager;movable=1;resizable=1;rotatable=1;deletable=1;editable=1;locked=0;connectable=1;" parent="ZWtzyO7zbN0nfAJwWL_--127" vertex="1">
          <mxGeometry x="390" y="1376" width="80" height="110" as="geometry" />
        </mxCell>
        <mxCell id="EvZ3uURz-VyPwmydADU_-114" value="CloudWatch" style="sketch=0;points=[[0,0,0],[0.25,0,0],[0.5,0,0],[0.75,0,0],[1,0,0],[0,1,0],[0.25,1,0],[0.5,1,0],[0.75,1,0],[1,1,0],[0,0.25,0],[0,0.5,0],[0,0.75,0],[1,0.25,0],[1,0.5,0],[1,0.75,0]];points=[[0,0,0],[0.25,0,0],[0.5,0,0],[0.75,0,0],[1,0,0],[0,1,0],[0.25,1,0],[0.5,1,0],[0.75,1,0],[1,1,0],[0,0.25,0],[0,0.5,0],[0,0.75,0],[1,0.25,0],[1,0.5,0],[1,0.75,0]];outlineConnect=0;fontColor=#232F3E;fillColor=#E7157B;strokeColor=#ffffff;dashed=0;verticalLabelPosition=bottom;verticalAlign=top;align=center;html=1;fontSize=12;fontStyle=0;aspect=fixed;shape=mxgraph.aws4.resourceIcon;resIcon=mxgraph.aws4.cloudwatch_2;movable=1;resizable=1;rotatable=1;deletable=1;editable=1;locked=0;connectable=1;" parent="ZWtzyO7zbN0nfAJwWL_--127" vertex="1">
          <mxGeometry x="657.0000000000005" y="1391" width="78" height="78" as="geometry" />
        </mxCell>
        <mxCell id="ZWtzyO7zbN0nfAJwWL_--396" style="edgeStyle=orthogonalEdgeStyle;rounded=0;orthogonalLoop=1;jettySize=auto;html=1;endArrow=none;endFill=0;movable=1;resizable=1;rotatable=1;deletable=1;editable=1;locked=0;connectable=1;" parent="ZWtzyO7zbN0nfAJwWL_--127" source="EvZ3uURz-VyPwmydADU_-113" target="EvZ3uURz-VyPwmydADU_-114" edge="1">
          <mxGeometry relative="1" as="geometry" />
        </mxCell>
        <mxCell id="EvZ3uURz-VyPwmydADU_-113" value="X-Ray" style="sketch=0;points=[[0,0,0],[0.25,0,0],[0.5,0,0],[0.75,0,0],[1,0,0],[0,1,0],[0.25,1,0],[0.5,1,0],[0.75,1,0],[1,1,0],[0,0.25,0],[0,0.5,0],[0,0.75,0],[1,0.25,0],[1,0.5,0],[1,0.75,0]];outlineConnect=0;fontColor=#232F3E;fillColor=#C925D1;strokeColor=#ffffff;dashed=0;verticalLabelPosition=bottom;verticalAlign=top;align=center;html=1;fontSize=12;fontStyle=0;aspect=fixed;shape=mxgraph.aws4.resourceIcon;resIcon=mxgraph.aws4.xray;movable=1;resizable=1;rotatable=1;deletable=1;editable=1;locked=0;connectable=1;" parent="ZWtzyO7zbN0nfAJwWL_--127" vertex="1">
          <mxGeometry x="807.0000000000005" y="1391" width="78" height="78" as="geometry" />
        </mxCell>
        <mxCell id="kOEdCS07rvlNoeLBa7wD-35" style="edgeStyle=orthogonalEdgeStyle;rounded=0;orthogonalLoop=1;jettySize=auto;html=1;" edge="1" parent="ZWtzyO7zbN0nfAJwWL_--127" source="UM05papVInRiucUio6Ng-85" target="UM05papVInRiucUio6Ng-84">
          <mxGeometry relative="1" as="geometry" />
        </mxCell>
        <mxCell id="kOEdCS07rvlNoeLBa7wD-38" value="Leitura" style="edgeLabel;html=1;align=center;verticalAlign=middle;resizable=0;points=[];fontSize=16;" vertex="1" connectable="0" parent="kOEdCS07rvlNoeLBa7wD-35">
          <mxGeometry x="0.03" y="-1" relative="1" as="geometry">
            <mxPoint x="-1" y="1" as="offset" />
          </mxGeometry>
        </mxCell>
        <mxCell id="kOEdCS07rvlNoeLBa7wD-37" style="edgeStyle=orthogonalEdgeStyle;rounded=0;orthogonalLoop=1;jettySize=auto;html=1;" edge="1" parent="ZWtzyO7zbN0nfAJwWL_--127" source="UM05papVInRiucUio6Ng-85" target="kOEdCS07rvlNoeLBa7wD-36">
          <mxGeometry relative="1" as="geometry">
            <Array as="points">
              <mxPoint x="240" y="559" />
              <mxPoint x="240" y="261" />
            </Array>
          </mxGeometry>
        </mxCell>
        <mxCell id="kOEdCS07rvlNoeLBa7wD-40" value="&lt;font style=&quot;font-size: 14px;&quot;&gt;Publica&amp;nbsp;&lt;/font&gt;&lt;div style=&quot;font-size: 14px;&quot;&gt;&lt;font style=&quot;font-size: 14px;&quot;&gt;produto/cliente&lt;/font&gt;&lt;/div&gt;" style="edgeLabel;html=1;align=center;verticalAlign=middle;resizable=0;points=[];" vertex="1" connectable="0" parent="kOEdCS07rvlNoeLBa7wD-37">
          <mxGeometry x="0.0326" y="2" relative="1" as="geometry">
            <mxPoint x="62" y="-121" as="offset" />
          </mxGeometry>
        </mxCell>
        <mxCell id="UM05papVInRiucUio6Ng-85" value="&lt;b&gt;&lt;font style=&quot;font-size: 14px;&quot;&gt;Vitrine&lt;br&gt;Catálogo de produtos&lt;/font&gt;&lt;/b&gt;" style="image;sketch=0;aspect=fixed;html=1;points=[];align=center;fontSize=12;image=img/lib/mscae/Kubernetes.svg;" parent="ZWtzyO7zbN0nfAJwWL_--127" vertex="1">
          <mxGeometry x="100.01" y="520" width="80.25" height="77.04" as="geometry" />
        </mxCell>
        <mxCell id="UM05papVInRiucUio6Ng-84" value="&lt;span style=&quot;font-size: 14px;&quot;&gt;BD Prod&lt;/span&gt;" style="sketch=0;outlineConnect=0;fontColor=#232F3E;gradientColor=none;strokeColor=#ffffff;fillColor=#232F3E;dashed=0;verticalLabelPosition=middle;verticalAlign=bottom;align=center;html=1;whiteSpace=wrap;fontSize=10;fontStyle=1;spacing=3;shape=mxgraph.aws4.productIcon;prIcon=mxgraph.aws4.dynamodb;movable=1;resizable=1;rotatable=1;deletable=1;editable=1;locked=0;connectable=1;" parent="ZWtzyO7zbN0nfAJwWL_--127" vertex="1">
          <mxGeometry x="99.13000000000011" y="220.52" width="80" height="100" as="geometry" />
        </mxCell>
        <mxCell id="kOEdCS07rvlNoeLBa7wD-41" style="edgeStyle=orthogonalEdgeStyle;rounded=0;orthogonalLoop=1;jettySize=auto;html=1;" edge="1" parent="ZWtzyO7zbN0nfAJwWL_--127" source="kOEdCS07rvlNoeLBa7wD-4" target="kOEdCS07rvlNoeLBa7wD-36">
          <mxGeometry relative="1" as="geometry" />
        </mxCell>
        <mxCell id="kOEdCS07rvlNoeLBa7wD-42" value="Leitura" style="edgeLabel;html=1;align=center;verticalAlign=middle;resizable=0;points=[];" vertex="1" connectable="0" parent="kOEdCS07rvlNoeLBa7wD-41">
          <mxGeometry x="0.0039" relative="1" as="geometry">
            <mxPoint x="1" as="offset" />
          </mxGeometry>
        </mxCell>
        <mxCell id="kOEdCS07rvlNoeLBa7wD-44" style="edgeStyle=orthogonalEdgeStyle;rounded=0;orthogonalLoop=1;jettySize=auto;html=1;" edge="1" parent="ZWtzyO7zbN0nfAJwWL_--127" source="kOEdCS07rvlNoeLBa7wD-4" target="kOEdCS07rvlNoeLBa7wD-6">
          <mxGeometry relative="1" as="geometry" />
        </mxCell>
        <mxCell id="kOEdCS07rvlNoeLBa7wD-45" value="&lt;font style=&quot;font-size: 14px;&quot;&gt;Cria/Mantém&amp;nbsp;&lt;/font&gt;&lt;div&gt;&lt;font style=&quot;font-size: 14px;&quot;&gt;Carrinho de&amp;nbsp;&lt;/font&gt;&lt;div style=&quot;font-size: 14px;&quot;&gt;&lt;font style=&quot;font-size: 14px;&quot;&gt;compras por&amp;nbsp;&lt;/font&gt;&lt;/div&gt;&lt;div style=&quot;font-size: 14px;&quot;&gt;&lt;font style=&quot;font-size: 14px;&quot;&gt;cliente&lt;/font&gt;&lt;/div&gt;&lt;/div&gt;" style="edgeLabel;html=1;align=center;verticalAlign=middle;resizable=0;points=[];" vertex="1" connectable="0" parent="kOEdCS07rvlNoeLBa7wD-44">
          <mxGeometry x="-0.0206" y="3" relative="1" as="geometry">
            <mxPoint as="offset" />
          </mxGeometry>
        </mxCell>
        <mxCell id="kOEdCS07rvlNoeLBa7wD-47" style="edgeStyle=orthogonalEdgeStyle;rounded=0;orthogonalLoop=1;jettySize=auto;html=1;" edge="1" parent="ZWtzyO7zbN0nfAJwWL_--127" source="kOEdCS07rvlNoeLBa7wD-4" target="kOEdCS07rvlNoeLBa7wD-46">
          <mxGeometry relative="1" as="geometry" />
        </mxCell>
        <mxCell id="kOEdCS07rvlNoeLBa7wD-50" value="Publica dados do carrinho&lt;div&gt;para finalização da compra&lt;/div&gt;" style="edgeLabel;html=1;align=center;verticalAlign=middle;resizable=0;points=[];" vertex="1" connectable="0" parent="kOEdCS07rvlNoeLBa7wD-47">
          <mxGeometry x="0.01" y="-2" relative="1" as="geometry">
            <mxPoint x="2" y="21" as="offset" />
          </mxGeometry>
        </mxCell>
        <mxCell id="kOEdCS07rvlNoeLBa7wD-4" value="&lt;span style=&quot;font-size: 14px;&quot;&gt;&lt;b&gt;Carrinho de compras&lt;/b&gt;&lt;/span&gt;" style="image;sketch=0;aspect=fixed;html=1;points=[];align=center;fontSize=12;image=img/lib/mscae/Kubernetes.svg;" vertex="1" parent="ZWtzyO7zbN0nfAJwWL_--127">
          <mxGeometry x="557.5" y="222" width="80.25" height="77.04" as="geometry" />
        </mxCell>
        <mxCell id="kOEdCS07rvlNoeLBa7wD-6" value="&lt;span style=&quot;font-size: 14px;&quot;&gt;BD CCompras&lt;/span&gt;" style="sketch=0;outlineConnect=0;fontColor=#232F3E;gradientColor=none;strokeColor=#ffffff;fillColor=#232F3E;dashed=0;verticalLabelPosition=middle;verticalAlign=bottom;align=center;html=1;whiteSpace=wrap;fontSize=10;fontStyle=1;spacing=3;shape=mxgraph.aws4.productIcon;prIcon=mxgraph.aws4.dynamodb;movable=1;resizable=1;rotatable=1;deletable=1;editable=1;locked=0;connectable=1;" vertex="1" parent="ZWtzyO7zbN0nfAJwWL_--127">
          <mxGeometry x="770" y="200.52" width="80" height="120" as="geometry" />
        </mxCell>
        <mxCell id="kOEdCS07rvlNoeLBa7wD-55" style="edgeStyle=orthogonalEdgeStyle;rounded=0;orthogonalLoop=1;jettySize=auto;html=1;" edge="1" parent="ZWtzyO7zbN0nfAJwWL_--127" source="kOEdCS07rvlNoeLBa7wD-9" target="kOEdCS07rvlNoeLBa7wD-51">
          <mxGeometry relative="1" as="geometry" />
        </mxCell>
        <mxCell id="kOEdCS07rvlNoeLBa7wD-56" value="Leitura" style="edgeLabel;html=1;align=center;verticalAlign=middle;resizable=0;points=[];" vertex="1" connectable="0" parent="kOEdCS07rvlNoeLBa7wD-55">
          <mxGeometry x="-0.1628" y="-2" relative="1" as="geometry">
            <mxPoint as="offset" />
          </mxGeometry>
        </mxCell>
        <mxCell id="kOEdCS07rvlNoeLBa7wD-57" style="edgeStyle=orthogonalEdgeStyle;rounded=0;orthogonalLoop=1;jettySize=auto;html=1;" edge="1" parent="ZWtzyO7zbN0nfAJwWL_--127" source="kOEdCS07rvlNoeLBa7wD-9" target="kOEdCS07rvlNoeLBa7wD-30">
          <mxGeometry relative="1" as="geometry" />
        </mxCell>
        <mxCell id="kOEdCS07rvlNoeLBa7wD-58" value="Gravação" style="edgeLabel;html=1;align=center;verticalAlign=middle;resizable=0;points=[];" vertex="1" connectable="0" parent="kOEdCS07rvlNoeLBa7wD-57">
          <mxGeometry x="-0.0387" y="-3" relative="1" as="geometry">
            <mxPoint y="-23" as="offset" />
          </mxGeometry>
        </mxCell>
        <mxCell id="kOEdCS07rvlNoeLBa7wD-69" style="edgeStyle=orthogonalEdgeStyle;rounded=0;orthogonalLoop=1;jettySize=auto;html=1;" edge="1" parent="ZWtzyO7zbN0nfAJwWL_--127" source="kOEdCS07rvlNoeLBa7wD-9" target="kOEdCS07rvlNoeLBa7wD-63">
          <mxGeometry relative="1" as="geometry">
            <Array as="points">
              <mxPoint x="1220" y="180" />
              <mxPoint x="1620" y="180" />
              <mxPoint x="1620" y="1229" />
            </Array>
          </mxGeometry>
        </mxCell>
        <mxCell id="kOEdCS07rvlNoeLBa7wD-9" value="&lt;span style=&quot;font-size: 14px;&quot;&gt;&lt;b&gt;Pedidos&lt;/b&gt;&lt;/span&gt;" style="image;sketch=0;aspect=fixed;html=1;points=[];align=center;fontSize=12;image=img/lib/mscae/Kubernetes.svg;" vertex="1" parent="ZWtzyO7zbN0nfAJwWL_--127">
          <mxGeometry x="1179.75" y="211.92000000000007" width="80.25" height="77.04" as="geometry" />
        </mxCell>
        <mxCell id="kOEdCS07rvlNoeLBa7wD-30" value="&lt;span style=&quot;font-size: 14px;&quot;&gt;BD Pedidos&lt;/span&gt;" style="sketch=0;outlineConnect=0;fontColor=#232F3E;gradientColor=none;strokeColor=#ffffff;fillColor=#232F3E;dashed=0;verticalLabelPosition=middle;verticalAlign=bottom;align=center;html=1;whiteSpace=wrap;fontSize=10;fontStyle=1;spacing=3;shape=mxgraph.aws4.productIcon;prIcon=mxgraph.aws4.dynamodb;movable=1;resizable=1;rotatable=1;deletable=1;editable=1;locked=0;connectable=1;" vertex="1" parent="ZWtzyO7zbN0nfAJwWL_--127">
          <mxGeometry x="1420" y="189.95999999999998" width="80" height="120" as="geometry" />
        </mxCell>
        <mxCell id="kOEdCS07rvlNoeLBa7wD-48" style="edgeStyle=orthogonalEdgeStyle;rounded=0;orthogonalLoop=1;jettySize=auto;html=1;" edge="1" parent="ZWtzyO7zbN0nfAJwWL_--127" source="kOEdCS07rvlNoeLBa7wD-32" target="kOEdCS07rvlNoeLBa7wD-46">
          <mxGeometry relative="1" as="geometry" />
        </mxCell>
        <mxCell id="kOEdCS07rvlNoeLBa7wD-49" value="Leitura eventos" style="edgeLabel;html=1;align=center;verticalAlign=middle;resizable=0;points=[];" vertex="1" connectable="0" parent="kOEdCS07rvlNoeLBa7wD-48">
          <mxGeometry x="0.3978" relative="1" as="geometry">
            <mxPoint x="20" y="-12" as="offset" />
          </mxGeometry>
        </mxCell>
        <mxCell id="kOEdCS07rvlNoeLBa7wD-62" style="edgeStyle=orthogonalEdgeStyle;rounded=0;orthogonalLoop=1;jettySize=auto;html=1;" edge="1" parent="ZWtzyO7zbN0nfAJwWL_--127" source="kOEdCS07rvlNoeLBa7wD-32" target="kOEdCS07rvlNoeLBa7wD-51">
          <mxGeometry relative="1" as="geometry">
            <mxPoint x="866.25" y="485.09999999999997" as="sourcePoint" />
            <mxPoint x="1182.5" y="314.39587278303776" as="targetPoint" />
            <Array as="points">
              <mxPoint x="920" y="459" />
              <mxPoint x="920" y="249" />
            </Array>
          </mxGeometry>
        </mxCell>
        <mxCell id="kOEdCS07rvlNoeLBa7wD-70" style="edgeStyle=orthogonalEdgeStyle;rounded=0;orthogonalLoop=1;jettySize=auto;html=1;" edge="1" parent="ZWtzyO7zbN0nfAJwWL_--127" source="kOEdCS07rvlNoeLBa7wD-32" target="kOEdCS07rvlNoeLBa7wD-59">
          <mxGeometry relative="1" as="geometry">
            <Array as="points">
              <mxPoint x="920" y="459" />
              <mxPoint x="920" y="403" />
            </Array>
          </mxGeometry>
        </mxCell>
        <mxCell id="kOEdCS07rvlNoeLBa7wD-84" style="edgeStyle=orthogonalEdgeStyle;rounded=0;orthogonalLoop=1;jettySize=auto;html=1;" edge="1" parent="ZWtzyO7zbN0nfAJwWL_--127" source="kOEdCS07rvlNoeLBa7wD-32" target="kOEdCS07rvlNoeLBa7wD-76">
          <mxGeometry relative="1" as="geometry">
            <Array as="points">
              <mxPoint x="920" y="459" />
              <mxPoint x="920" y="550" />
            </Array>
          </mxGeometry>
        </mxCell>
        <mxCell id="kOEdCS07rvlNoeLBa7wD-90" style="edgeStyle=orthogonalEdgeStyle;rounded=0;orthogonalLoop=1;jettySize=auto;html=1;" edge="1" parent="ZWtzyO7zbN0nfAJwWL_--127" source="kOEdCS07rvlNoeLBa7wD-32" target="kOEdCS07rvlNoeLBa7wD-85">
          <mxGeometry relative="1" as="geometry">
            <Array as="points">
              <mxPoint x="920" y="459" />
              <mxPoint x="920" y="700" />
            </Array>
          </mxGeometry>
        </mxCell>
        <mxCell id="kOEdCS07rvlNoeLBa7wD-92" style="edgeStyle=orthogonalEdgeStyle;rounded=0;orthogonalLoop=1;jettySize=auto;html=1;" edge="1" parent="ZWtzyO7zbN0nfAJwWL_--127" source="kOEdCS07rvlNoeLBa7wD-32" target="kOEdCS07rvlNoeLBa7wD-91">
          <mxGeometry relative="1" as="geometry">
            <Array as="points">
              <mxPoint x="920" y="459" />
              <mxPoint x="920" y="860" />
            </Array>
          </mxGeometry>
        </mxCell>
        <mxCell id="kOEdCS07rvlNoeLBa7wD-102" style="edgeStyle=orthogonalEdgeStyle;rounded=0;orthogonalLoop=1;jettySize=auto;html=1;" edge="1" parent="ZWtzyO7zbN0nfAJwWL_--127" source="kOEdCS07rvlNoeLBa7wD-32" target="kOEdCS07rvlNoeLBa7wD-97">
          <mxGeometry relative="1" as="geometry">
            <Array as="points">
              <mxPoint x="920" y="459" />
              <mxPoint x="920" y="1009" />
            </Array>
          </mxGeometry>
        </mxCell>
        <mxCell id="kOEdCS07rvlNoeLBa7wD-32" value="&lt;span style=&quot;font-size: 14px;&quot;&gt;&lt;b&gt;Orquestrador&lt;/b&gt;&lt;/span&gt;" style="image;sketch=0;aspect=fixed;html=1;points=[];align=center;fontSize=12;image=img/lib/mscae/Kubernetes.svg;" vertex="1" parent="ZWtzyO7zbN0nfAJwWL_--127">
          <mxGeometry x="760" y="420" width="80.25" height="77.04" as="geometry" />
        </mxCell>
        <mxCell id="kOEdCS07rvlNoeLBa7wD-36" value="&lt;font style=&quot;font-size: 14px;&quot;&gt;Tópico&lt;/font&gt;&lt;div style=&quot;font-size: 14px;&quot;&gt;&lt;font style=&quot;font-size: 14px;&quot;&gt;Produtos&lt;/font&gt;&lt;/div&gt;&lt;div style=&quot;font-size: 14px;&quot;&gt;&lt;font style=&quot;font-size: 14px;&quot;&gt;selecionados&lt;/font&gt;&lt;/div&gt;" style="sketch=0;outlineConnect=0;fontColor=#232F3E;gradientColor=none;fillColor=#7AA116;strokeColor=none;dashed=0;verticalLabelPosition=bottom;verticalAlign=top;align=center;html=1;fontSize=12;fontStyle=0;aspect=fixed;pointerEvents=1;shape=mxgraph.aws4.topic_2;" vertex="1" parent="ZWtzyO7zbN0nfAJwWL_--127">
          <mxGeometry x="380" y="221.04" width="53" height="78" as="geometry" />
        </mxCell>
        <mxCell id="kOEdCS07rvlNoeLBa7wD-46" value="&lt;font style=&quot;font-size: 14px;&quot;&gt;Tópico&lt;/font&gt;&lt;div style=&quot;font-size: 14px;&quot;&gt;Finalizar pedidos&lt;/div&gt;" style="sketch=0;outlineConnect=0;fontColor=#232F3E;gradientColor=none;fillColor=#7AA116;strokeColor=none;dashed=0;verticalLabelPosition=bottom;verticalAlign=top;align=center;html=1;fontSize=12;fontStyle=0;aspect=fixed;pointerEvents=1;shape=mxgraph.aws4.topic_2;" vertex="1" parent="ZWtzyO7zbN0nfAJwWL_--127">
          <mxGeometry x="571.1200000000001" y="420" width="53" height="78" as="geometry" />
        </mxCell>
        <mxCell id="kOEdCS07rvlNoeLBa7wD-51" value="&lt;font style=&quot;font-size: 14px;&quot;&gt;Tópico&lt;br&gt;Pedidos&lt;/font&gt;" style="sketch=0;outlineConnect=0;fontColor=#232F3E;gradientColor=none;fillColor=#7AA116;strokeColor=none;dashed=0;verticalLabelPosition=bottom;verticalAlign=top;align=center;html=1;fontSize=12;fontStyle=0;aspect=fixed;pointerEvents=1;shape=mxgraph.aws4.topic_2;" vertex="1" parent="ZWtzyO7zbN0nfAJwWL_--127">
          <mxGeometry x="990" y="210.96" width="53" height="78" as="geometry" />
        </mxCell>
        <mxCell id="kOEdCS07rvlNoeLBa7wD-59" value="&lt;font style=&quot;font-size: 14px;&quot;&gt;Tópico&lt;br&gt;Reserva estoque&lt;/font&gt;" style="sketch=0;outlineConnect=0;fontColor=#232F3E;gradientColor=none;fillColor=#7AA116;strokeColor=none;dashed=0;verticalLabelPosition=bottom;verticalAlign=top;align=center;html=1;fontSize=12;fontStyle=0;aspect=fixed;pointerEvents=1;shape=mxgraph.aws4.topic_2;" vertex="1" parent="ZWtzyO7zbN0nfAJwWL_--127">
          <mxGeometry x="990" y="363.96000000000004" width="53" height="78" as="geometry" />
        </mxCell>
        <mxCell id="kOEdCS07rvlNoeLBa7wD-75" style="edgeStyle=orthogonalEdgeStyle;rounded=0;orthogonalLoop=1;jettySize=auto;html=1;" edge="1" parent="ZWtzyO7zbN0nfAJwWL_--127" source="kOEdCS07rvlNoeLBa7wD-63" target="kOEdCS07rvlNoeLBa7wD-32">
          <mxGeometry relative="1" as="geometry" />
        </mxCell>
        <mxCell id="kOEdCS07rvlNoeLBa7wD-63" value="&lt;font style=&quot;font-size: 14px;&quot;&gt;Tópico&lt;br&gt;Retorno&lt;/font&gt;" style="sketch=0;outlineConnect=0;fontColor=#232F3E;gradientColor=none;fillColor=#7AA116;strokeColor=none;dashed=0;verticalLabelPosition=bottom;verticalAlign=top;align=center;html=1;fontSize=12;fontStyle=0;aspect=fixed;pointerEvents=1;shape=mxgraph.aws4.topic_2;" vertex="1" parent="ZWtzyO7zbN0nfAJwWL_--127">
          <mxGeometry x="990" y="1190" width="53" height="78" as="geometry" />
        </mxCell>
        <mxCell id="kOEdCS07rvlNoeLBa7wD-71" style="edgeStyle=orthogonalEdgeStyle;rounded=0;orthogonalLoop=1;jettySize=auto;html=1;" edge="1" parent="ZWtzyO7zbN0nfAJwWL_--127" source="kOEdCS07rvlNoeLBa7wD-64" target="kOEdCS07rvlNoeLBa7wD-59">
          <mxGeometry relative="1" as="geometry" />
        </mxCell>
        <mxCell id="kOEdCS07rvlNoeLBa7wD-73" style="edgeStyle=orthogonalEdgeStyle;rounded=0;orthogonalLoop=1;jettySize=auto;html=1;" edge="1" parent="ZWtzyO7zbN0nfAJwWL_--127" source="kOEdCS07rvlNoeLBa7wD-64" target="kOEdCS07rvlNoeLBa7wD-72">
          <mxGeometry relative="1" as="geometry" />
        </mxCell>
        <mxCell id="kOEdCS07rvlNoeLBa7wD-74" style="edgeStyle=orthogonalEdgeStyle;rounded=0;orthogonalLoop=1;jettySize=auto;html=1;" edge="1" parent="ZWtzyO7zbN0nfAJwWL_--127" source="kOEdCS07rvlNoeLBa7wD-64" target="kOEdCS07rvlNoeLBa7wD-63">
          <mxGeometry relative="1" as="geometry">
            <Array as="points">
              <mxPoint x="1220" y="330" />
              <mxPoint x="1610" y="330" />
              <mxPoint x="1610" y="1229" />
            </Array>
          </mxGeometry>
        </mxCell>
        <mxCell id="kOEdCS07rvlNoeLBa7wD-64" value="&lt;span style=&quot;font-size: 14px;&quot;&gt;&lt;b&gt;Estoque&lt;/b&gt;&lt;/span&gt;" style="image;sketch=0;aspect=fixed;html=1;points=[];align=center;fontSize=12;image=img/lib/mscae/Kubernetes.svg;" vertex="1" parent="ZWtzyO7zbN0nfAJwWL_--127">
          <mxGeometry x="1179.75" y="363.96" width="80.25" height="77.04" as="geometry" />
        </mxCell>
        <mxCell id="kOEdCS07rvlNoeLBa7wD-93" style="edgeStyle=orthogonalEdgeStyle;rounded=0;orthogonalLoop=1;jettySize=auto;html=1;" edge="1" parent="ZWtzyO7zbN0nfAJwWL_--127" source="kOEdCS07rvlNoeLBa7wD-65" target="kOEdCS07rvlNoeLBa7wD-91">
          <mxGeometry relative="1" as="geometry" />
        </mxCell>
        <mxCell id="kOEdCS07rvlNoeLBa7wD-95" style="edgeStyle=orthogonalEdgeStyle;rounded=0;orthogonalLoop=1;jettySize=auto;html=1;" edge="1" parent="ZWtzyO7zbN0nfAJwWL_--127" source="kOEdCS07rvlNoeLBa7wD-65" target="kOEdCS07rvlNoeLBa7wD-94">
          <mxGeometry relative="1" as="geometry" />
        </mxCell>
        <mxCell id="kOEdCS07rvlNoeLBa7wD-96" style="edgeStyle=orthogonalEdgeStyle;rounded=0;orthogonalLoop=1;jettySize=auto;html=1;" edge="1" parent="ZWtzyO7zbN0nfAJwWL_--127" source="kOEdCS07rvlNoeLBa7wD-65" target="kOEdCS07rvlNoeLBa7wD-63">
          <mxGeometry relative="1" as="geometry">
            <Array as="points">
              <mxPoint x="1220" y="770" />
              <mxPoint x="1580" y="770" />
              <mxPoint x="1580" y="1229" />
            </Array>
          </mxGeometry>
        </mxCell>
        <mxCell id="kOEdCS07rvlNoeLBa7wD-65" value="&lt;span style=&quot;font-size: 14px;&quot;&gt;&lt;b&gt;Logística&lt;/b&gt;&lt;/span&gt;" style="image;sketch=0;aspect=fixed;html=1;points=[];align=center;fontSize=12;image=img/lib/mscae/Kubernetes.svg;" vertex="1" parent="ZWtzyO7zbN0nfAJwWL_--127">
          <mxGeometry x="1179.75" y="810" width="80.25" height="77.04" as="geometry" />
        </mxCell>
        <mxCell id="kOEdCS07rvlNoeLBa7wD-98" style="edgeStyle=orthogonalEdgeStyle;rounded=0;orthogonalLoop=1;jettySize=auto;html=1;" edge="1" parent="ZWtzyO7zbN0nfAJwWL_--127" source="kOEdCS07rvlNoeLBa7wD-66" target="kOEdCS07rvlNoeLBa7wD-97">
          <mxGeometry relative="1" as="geometry" />
        </mxCell>
        <mxCell id="kOEdCS07rvlNoeLBa7wD-100" style="edgeStyle=orthogonalEdgeStyle;rounded=0;orthogonalLoop=1;jettySize=auto;html=1;" edge="1" parent="ZWtzyO7zbN0nfAJwWL_--127" source="kOEdCS07rvlNoeLBa7wD-66" target="kOEdCS07rvlNoeLBa7wD-99">
          <mxGeometry relative="1" as="geometry" />
        </mxCell>
        <mxCell id="kOEdCS07rvlNoeLBa7wD-101" style="edgeStyle=orthogonalEdgeStyle;rounded=0;orthogonalLoop=1;jettySize=auto;html=1;" edge="1" parent="ZWtzyO7zbN0nfAJwWL_--127" source="kOEdCS07rvlNoeLBa7wD-66" target="kOEdCS07rvlNoeLBa7wD-63">
          <mxGeometry relative="1" as="geometry">
            <Array as="points">
              <mxPoint x="1220" y="920" />
              <mxPoint x="1570" y="920" />
              <mxPoint x="1570" y="1230" />
            </Array>
          </mxGeometry>
        </mxCell>
        <mxCell id="kOEdCS07rvlNoeLBa7wD-66" value="&lt;span style=&quot;font-size: 14px;&quot;&gt;&lt;b&gt;Cancela operação&lt;/b&gt;&lt;/span&gt;" style="image;sketch=0;aspect=fixed;html=1;points=[];align=center;fontSize=12;image=img/lib/mscae/Kubernetes.svg;" vertex="1" parent="ZWtzyO7zbN0nfAJwWL_--127">
          <mxGeometry x="1179.75" y="970" width="80.25" height="77.04" as="geometry" />
        </mxCell>
        <mxCell id="kOEdCS07rvlNoeLBa7wD-80" style="edgeStyle=orthogonalEdgeStyle;rounded=0;orthogonalLoop=1;jettySize=auto;html=1;" edge="1" parent="ZWtzyO7zbN0nfAJwWL_--127" source="kOEdCS07rvlNoeLBa7wD-67" target="kOEdCS07rvlNoeLBa7wD-76">
          <mxGeometry relative="1" as="geometry" />
        </mxCell>
        <mxCell id="kOEdCS07rvlNoeLBa7wD-82" style="edgeStyle=orthogonalEdgeStyle;rounded=0;orthogonalLoop=1;jettySize=auto;html=1;" edge="1" parent="ZWtzyO7zbN0nfAJwWL_--127" source="kOEdCS07rvlNoeLBa7wD-67" target="kOEdCS07rvlNoeLBa7wD-81">
          <mxGeometry relative="1" as="geometry" />
        </mxCell>
        <mxCell id="kOEdCS07rvlNoeLBa7wD-83" style="edgeStyle=orthogonalEdgeStyle;rounded=0;orthogonalLoop=1;jettySize=auto;html=1;" edge="1" parent="ZWtzyO7zbN0nfAJwWL_--127" source="kOEdCS07rvlNoeLBa7wD-67" target="kOEdCS07rvlNoeLBa7wD-63">
          <mxGeometry relative="1" as="geometry">
            <Array as="points">
              <mxPoint x="1220" y="470" />
              <mxPoint x="1600" y="470" />
              <mxPoint x="1600" y="1229" />
            </Array>
          </mxGeometry>
        </mxCell>
        <mxCell id="kOEdCS07rvlNoeLBa7wD-67" value="&lt;span style=&quot;font-size: 14px;&quot;&gt;&lt;b&gt;Pagamento&lt;/b&gt;&lt;/span&gt;" style="image;sketch=0;aspect=fixed;html=1;points=[];align=center;fontSize=12;image=img/lib/mscae/Kubernetes.svg;" vertex="1" parent="ZWtzyO7zbN0nfAJwWL_--127">
          <mxGeometry x="1179.75" y="510" width="80.25" height="77.04" as="geometry" />
        </mxCell>
        <mxCell id="kOEdCS07rvlNoeLBa7wD-86" style="edgeStyle=orthogonalEdgeStyle;rounded=0;orthogonalLoop=1;jettySize=auto;html=1;" edge="1" parent="ZWtzyO7zbN0nfAJwWL_--127" source="kOEdCS07rvlNoeLBa7wD-68" target="kOEdCS07rvlNoeLBa7wD-85">
          <mxGeometry relative="1" as="geometry" />
        </mxCell>
        <mxCell id="kOEdCS07rvlNoeLBa7wD-88" style="edgeStyle=orthogonalEdgeStyle;rounded=0;orthogonalLoop=1;jettySize=auto;html=1;" edge="1" parent="ZWtzyO7zbN0nfAJwWL_--127" source="kOEdCS07rvlNoeLBa7wD-68" target="kOEdCS07rvlNoeLBa7wD-87">
          <mxGeometry relative="1" as="geometry" />
        </mxCell>
        <mxCell id="kOEdCS07rvlNoeLBa7wD-89" style="edgeStyle=orthogonalEdgeStyle;rounded=0;orthogonalLoop=1;jettySize=auto;html=1;" edge="1" parent="ZWtzyO7zbN0nfAJwWL_--127" source="kOEdCS07rvlNoeLBa7wD-68" target="kOEdCS07rvlNoeLBa7wD-63">
          <mxGeometry relative="1" as="geometry">
            <Array as="points">
              <mxPoint x="1220" y="620" />
              <mxPoint x="1590" y="620" />
              <mxPoint x="1590" y="1229" />
            </Array>
          </mxGeometry>
        </mxCell>
        <mxCell id="kOEdCS07rvlNoeLBa7wD-68" value="&lt;span style=&quot;font-size: 14px;&quot;&gt;&lt;b&gt;Anti-fraude&lt;/b&gt;&lt;/span&gt;" style="image;sketch=0;aspect=fixed;html=1;points=[];align=center;fontSize=12;image=img/lib/mscae/Kubernetes.svg;" vertex="1" parent="ZWtzyO7zbN0nfAJwWL_--127">
          <mxGeometry x="1179.75" y="660" width="80.25" height="77.04" as="geometry" />
        </mxCell>
        <mxCell id="kOEdCS07rvlNoeLBa7wD-72" value="&lt;span style=&quot;font-size: 14px;&quot;&gt;BD Estoque&lt;/span&gt;" style="sketch=0;outlineConnect=0;fontColor=#232F3E;gradientColor=none;strokeColor=#ffffff;fillColor=#232F3E;dashed=0;verticalLabelPosition=middle;verticalAlign=bottom;align=center;html=1;whiteSpace=wrap;fontSize=10;fontStyle=1;spacing=3;shape=mxgraph.aws4.productIcon;prIcon=mxgraph.aws4.dynamodb;movable=1;resizable=1;rotatable=1;deletable=1;editable=1;locked=0;connectable=1;" vertex="1" parent="ZWtzyO7zbN0nfAJwWL_--127">
          <mxGeometry x="1420" y="342.48" width="80" height="120" as="geometry" />
        </mxCell>
        <mxCell id="kOEdCS07rvlNoeLBa7wD-76" value="&lt;font style=&quot;font-size: 14px;&quot;&gt;Tópico&lt;br&gt;Pagamento&lt;/font&gt;" style="sketch=0;outlineConnect=0;fontColor=#232F3E;gradientColor=none;fillColor=#7AA116;strokeColor=none;dashed=0;verticalLabelPosition=bottom;verticalAlign=top;align=center;html=1;fontSize=12;fontStyle=0;aspect=fixed;pointerEvents=1;shape=mxgraph.aws4.topic_2;" vertex="1" parent="ZWtzyO7zbN0nfAJwWL_--127">
          <mxGeometry x="990" y="509.03999999999996" width="53" height="78" as="geometry" />
        </mxCell>
        <mxCell id="kOEdCS07rvlNoeLBa7wD-81" value="&lt;span style=&quot;font-size: 14px;&quot;&gt;BD Pagamento&lt;/span&gt;" style="sketch=0;outlineConnect=0;fontColor=#232F3E;gradientColor=none;strokeColor=#ffffff;fillColor=#232F3E;dashed=0;verticalLabelPosition=middle;verticalAlign=bottom;align=center;html=1;whiteSpace=wrap;fontSize=10;fontStyle=1;spacing=3;shape=mxgraph.aws4.productIcon;prIcon=mxgraph.aws4.dynamodb;movable=1;resizable=1;rotatable=1;deletable=1;editable=1;locked=0;connectable=1;" vertex="1" parent="ZWtzyO7zbN0nfAJwWL_--127">
          <mxGeometry x="1420" y="488.52" width="80" height="120" as="geometry" />
        </mxCell>
        <mxCell id="kOEdCS07rvlNoeLBa7wD-85" value="&lt;font style=&quot;font-size: 14px;&quot;&gt;Tópico&lt;br&gt;Pagamento&lt;br&gt;Aprovado&lt;/font&gt;" style="sketch=0;outlineConnect=0;fontColor=#232F3E;gradientColor=none;fillColor=#7AA116;strokeColor=none;dashed=0;verticalLabelPosition=bottom;verticalAlign=top;align=center;html=1;fontSize=12;fontStyle=0;aspect=fixed;pointerEvents=1;shape=mxgraph.aws4.topic_2;" vertex="1" parent="ZWtzyO7zbN0nfAJwWL_--127">
          <mxGeometry x="990" y="659.04" width="53" height="78" as="geometry" />
        </mxCell>
        <mxCell id="kOEdCS07rvlNoeLBa7wD-87" value="&lt;span style=&quot;font-size: 14px;&quot;&gt;BD Pagamento&lt;/span&gt;" style="sketch=0;outlineConnect=0;fontColor=#232F3E;gradientColor=none;strokeColor=#ffffff;fillColor=#232F3E;dashed=0;verticalLabelPosition=middle;verticalAlign=bottom;align=center;html=1;whiteSpace=wrap;fontSize=10;fontStyle=1;spacing=3;shape=mxgraph.aws4.productIcon;prIcon=mxgraph.aws4.dynamodb;movable=1;resizable=1;rotatable=1;deletable=1;editable=1;locked=0;connectable=1;" vertex="1" parent="ZWtzyO7zbN0nfAJwWL_--127">
          <mxGeometry x="1420" y="638.52" width="80" height="120" as="geometry" />
        </mxCell>
        <mxCell id="kOEdCS07rvlNoeLBa7wD-91" value="&lt;font style=&quot;font-size: 14px;&quot;&gt;Tópico&lt;br&gt;Pedido&lt;br&gt;Aprovado&lt;/font&gt;" style="sketch=0;outlineConnect=0;fontColor=#232F3E;gradientColor=none;fillColor=#7AA116;strokeColor=none;dashed=0;verticalLabelPosition=bottom;verticalAlign=top;align=center;html=1;fontSize=12;fontStyle=0;aspect=fixed;pointerEvents=1;shape=mxgraph.aws4.topic_2;" vertex="1" parent="ZWtzyO7zbN0nfAJwWL_--127">
          <mxGeometry x="990" y="810" width="53" height="78" as="geometry" />
        </mxCell>
        <mxCell id="kOEdCS07rvlNoeLBa7wD-94" value="&lt;span style=&quot;font-size: 14px;&quot;&gt;BD Entrega&lt;/span&gt;" style="sketch=0;outlineConnect=0;fontColor=#232F3E;gradientColor=none;strokeColor=#ffffff;fillColor=#232F3E;dashed=0;verticalLabelPosition=middle;verticalAlign=bottom;align=center;html=1;whiteSpace=wrap;fontSize=10;fontStyle=1;spacing=3;shape=mxgraph.aws4.productIcon;prIcon=mxgraph.aws4.dynamodb;movable=1;resizable=1;rotatable=1;deletable=1;editable=1;locked=0;connectable=1;" vertex="1" parent="ZWtzyO7zbN0nfAJwWL_--127">
          <mxGeometry x="1420" y="789" width="80" height="120" as="geometry" />
        </mxCell>
        <mxCell id="kOEdCS07rvlNoeLBa7wD-97" value="&lt;font style=&quot;font-size: 14px;&quot;&gt;Tópico&lt;br&gt;Pedido&lt;br&gt;Cancelado&lt;/font&gt;" style="sketch=0;outlineConnect=0;fontColor=#232F3E;gradientColor=none;fillColor=#7AA116;strokeColor=none;dashed=0;verticalLabelPosition=bottom;verticalAlign=top;align=center;html=1;fontSize=12;fontStyle=0;aspect=fixed;pointerEvents=1;shape=mxgraph.aws4.topic_2;" vertex="1" parent="ZWtzyO7zbN0nfAJwWL_--127">
          <mxGeometry x="990" y="970" width="53" height="78" as="geometry" />
        </mxCell>
        <mxCell id="kOEdCS07rvlNoeLBa7wD-99" value="&lt;span style=&quot;font-size: 14px;&quot;&gt;BD Pedido Cancelado&lt;/span&gt;" style="sketch=0;outlineConnect=0;fontColor=#232F3E;gradientColor=none;strokeColor=#ffffff;fillColor=#232F3E;dashed=0;verticalLabelPosition=middle;verticalAlign=bottom;align=center;html=1;whiteSpace=wrap;fontSize=10;fontStyle=1;spacing=3;shape=mxgraph.aws4.productIcon;prIcon=mxgraph.aws4.dynamodb;movable=1;resizable=1;rotatable=1;deletable=1;editable=1;locked=0;connectable=1;" vertex="1" parent="ZWtzyO7zbN0nfAJwWL_--127">
          <mxGeometry x="1420" y="949" width="80" height="120" as="geometry" />
        </mxCell>
        <mxCell id="kOEdCS07rvlNoeLBa7wD-105" value="&lt;font style=&quot;font-size: 14px;&quot;&gt;Tópico&lt;br&gt;PRODUTOS&lt;/font&gt;" style="sketch=0;outlineConnect=0;fontColor=#232F3E;gradientColor=none;fillColor=#7AA116;strokeColor=none;dashed=0;verticalLabelPosition=bottom;verticalAlign=top;align=center;html=1;fontSize=12;fontStyle=0;aspect=fixed;pointerEvents=1;shape=mxgraph.aws4.topic_2;" vertex="1" parent="ZWtzyO7zbN0nfAJwWL_--127">
          <mxGeometry x="1978.5" y="720" width="53" height="78" as="geometry" />
        </mxCell>
        <mxCell id="kOEdCS07rvlNoeLBa7wD-112" style="edgeStyle=orthogonalEdgeStyle;rounded=0;orthogonalLoop=1;jettySize=auto;html=1;entryX=0.333;entryY=0.001;entryDx=0;entryDy=0;entryPerimeter=0;" edge="1" parent="ZWtzyO7zbN0nfAJwWL_--127" source="ZWtzyO7zbN0nfAJwWL_--397" target="ZWtzyO7zbN0nfAJwWL_--156">
          <mxGeometry relative="1" as="geometry" />
        </mxCell>
        <mxCell id="kOEdCS07rvlNoeLBa7wD-179" value="" style="fillColor=#EFF0F3;strokeColor=none;dashed=0;verticalAlign=top;fontStyle=0;fontColor=#232F3D;whiteSpace=wrap;html=1;movable=1;resizable=1;rotatable=1;deletable=1;editable=1;locked=0;connectable=1;" vertex="1" parent="ZWtzyO7zbN0nfAJwWL_--127">
          <mxGeometry x="1860" y="1626.01" width="290" height="250" as="geometry" />
        </mxCell>
        <mxCell id="kOEdCS07rvlNoeLBa7wD-180" value="&lt;span style=&quot;font-size: 14px;&quot;&gt;&lt;b&gt;EVENTOS DE ATUALIZAÇÃO&amp;nbsp;&lt;/b&gt;&lt;/span&gt;&lt;div&gt;&lt;span style=&quot;font-size: 14px;&quot;&gt;&lt;b&gt;PRODUTOS&lt;/b&gt;&lt;/span&gt;&lt;/div&gt;" style="fillColor=#EFF0F3;strokeColor=none;dashed=0;verticalAlign=top;fontStyle=0;fontColor=#232F3D;whiteSpace=wrap;html=1;movable=1;resizable=1;rotatable=1;deletable=1;editable=1;locked=0;connectable=1;" vertex="1" parent="ZWtzyO7zbN0nfAJwWL_--127">
          <mxGeometry x="1860" y="1920" width="290" height="860" as="geometry" />
        </mxCell>
        <mxCell id="kOEdCS07rvlNoeLBa7wD-181" value="&lt;span style=&quot;font-size: 14px;&quot;&gt;BD PRODUTOS&lt;/span&gt;&lt;div&gt;&lt;span style=&quot;font-size: 14px;&quot;&gt;(Gravação)&lt;/span&gt;&lt;/div&gt;" style="sketch=0;outlineConnect=0;fontColor=#232F3E;gradientColor=none;strokeColor=#ffffff;fillColor=#232F3E;dashed=0;verticalLabelPosition=middle;verticalAlign=bottom;align=center;html=1;whiteSpace=wrap;fontSize=10;fontStyle=1;spacing=3;shape=mxgraph.aws4.productIcon;prIcon=mxgraph.aws4.dynamodb;movable=1;resizable=1;rotatable=1;deletable=1;editable=1;locked=0;connectable=1;" vertex="1" parent="ZWtzyO7zbN0nfAJwWL_--127">
          <mxGeometry x="1964" y="2215.55" width="80" height="131.49" as="geometry" />
        </mxCell>
        <mxCell id="kOEdCS07rvlNoeLBa7wD-182" value="" style="fillColor=#EFF0F3;strokeColor=none;dashed=0;verticalAlign=top;fontStyle=0;fontColor=#232F3D;whiteSpace=wrap;html=1;movable=1;resizable=1;rotatable=1;deletable=1;editable=1;locked=0;connectable=1;" vertex="1" parent="ZWtzyO7zbN0nfAJwWL_--127">
          <mxGeometry x="60" y="1626.01" width="1780" height="1153.99" as="geometry" />
        </mxCell>
        <mxCell id="kOEdCS07rvlNoeLBa7wD-183" style="edgeStyle=orthogonalEdgeStyle;rounded=0;orthogonalLoop=1;jettySize=auto;html=1;" edge="1" parent="ZWtzyO7zbN0nfAJwWL_--127" source="kOEdCS07rvlNoeLBa7wD-184" target="kOEdCS07rvlNoeLBa7wD-250">
          <mxGeometry relative="1" as="geometry" />
        </mxCell>
        <mxCell id="kOEdCS07rvlNoeLBa7wD-256" style="edgeStyle=orthogonalEdgeStyle;rounded=0;orthogonalLoop=1;jettySize=auto;html=1;" edge="1" parent="ZWtzyO7zbN0nfAJwWL_--127" source="kOEdCS07rvlNoeLBa7wD-184" target="kOEdCS07rvlNoeLBa7wD-181">
          <mxGeometry relative="1" as="geometry" />
        </mxCell>
        <mxCell id="kOEdCS07rvlNoeLBa7wD-184" value="&lt;font style=&quot;font-size: 14px;&quot;&gt;AWS Lambda&lt;/font&gt;&lt;div&gt;&lt;span style=&quot;font-size: 14px;&quot;&gt;Lê eventos de atualização dos&amp;nbsp;&lt;/span&gt;&lt;/div&gt;&lt;div&gt;&lt;span style=&quot;font-size: 14px;&quot;&gt;PRODUTOS&lt;/span&gt;&lt;/div&gt;&lt;div&gt;&lt;div style=&quot;font-size: 14px;&quot;&gt;&lt;br&gt;&lt;/div&gt;&lt;/div&gt;" style="sketch=0;points=[[0,0,0],[0.25,0,0],[0.5,0,0],[0.75,0,0],[1,0,0],[0,1,0],[0.25,1,0],[0.5,1,0],[0.75,1,0],[1,1,0],[0,0.25,0],[0,0.5,0],[0,0.75,0],[1,0.25,0],[1,0.5,0],[1,0.75,0]];outlineConnect=0;fontColor=#232F3E;fillColor=#ED7100;strokeColor=#ffffff;dashed=0;verticalLabelPosition=bottom;verticalAlign=top;align=center;html=1;fontSize=12;fontStyle=0;aspect=fixed;shape=mxgraph.aws4.resourceIcon;resIcon=mxgraph.aws4.lambda;movable=1;resizable=1;rotatable=1;deletable=1;editable=1;locked=0;connectable=1;" vertex="1" parent="ZWtzyO7zbN0nfAJwWL_--127">
          <mxGeometry x="1966" y="1990.52" width="78" height="78" as="geometry" />
        </mxCell>
        <mxCell id="kOEdCS07rvlNoeLBa7wD-185" style="edgeStyle=orthogonalEdgeStyle;rounded=0;orthogonalLoop=1;jettySize=auto;html=1;" edge="1" parent="ZWtzyO7zbN0nfAJwWL_--127" source="kOEdCS07rvlNoeLBa7wD-189" target="kOEdCS07rvlNoeLBa7wD-190">
          <mxGeometry relative="1" as="geometry" />
        </mxCell>
        <mxCell id="kOEdCS07rvlNoeLBa7wD-186" value="Leitura" style="edgeLabel;html=1;align=center;verticalAlign=middle;resizable=0;points=[];fontSize=16;" vertex="1" connectable="0" parent="kOEdCS07rvlNoeLBa7wD-185">
          <mxGeometry x="0.03" y="-1" relative="1" as="geometry">
            <mxPoint x="-1" y="1" as="offset" />
          </mxGeometry>
        </mxCell>
        <mxCell id="kOEdCS07rvlNoeLBa7wD-187" style="edgeStyle=orthogonalEdgeStyle;rounded=0;orthogonalLoop=1;jettySize=auto;html=1;" edge="1" parent="ZWtzyO7zbN0nfAJwWL_--127" source="kOEdCS07rvlNoeLBa7wD-189" target="kOEdCS07rvlNoeLBa7wD-215">
          <mxGeometry relative="1" as="geometry">
            <Array as="points">
              <mxPoint x="320" y="2019" />
              <mxPoint x="320" y="2019" />
            </Array>
          </mxGeometry>
        </mxCell>
        <mxCell id="kOEdCS07rvlNoeLBa7wD-188" value="&lt;font style=&quot;font-size: 14px;&quot;&gt;Publica&amp;nbsp;&lt;/font&gt;&lt;div style=&quot;font-size: 14px;&quot;&gt;&lt;font style=&quot;font-size: 14px;&quot;&gt;produto/cliente&lt;/font&gt;&lt;/div&gt;" style="edgeLabel;html=1;align=center;verticalAlign=middle;resizable=0;points=[];" vertex="1" connectable="0" parent="kOEdCS07rvlNoeLBa7wD-187">
          <mxGeometry x="0.0326" y="2" relative="1" as="geometry">
            <mxPoint x="-8" y="-17" as="offset" />
          </mxGeometry>
        </mxCell>
        <mxCell id="kOEdCS07rvlNoeLBa7wD-189" value="&lt;b&gt;&lt;font style=&quot;font-size: 14px;&quot;&gt;Vitrine&lt;br&gt;Catálogo de produtos&lt;/font&gt;&lt;/b&gt;" style="image;sketch=0;aspect=fixed;html=1;points=[];align=center;fontSize=12;image=img/lib/mscae/Kubernetes.svg;" vertex="1" parent="ZWtzyO7zbN0nfAJwWL_--127">
          <mxGeometry x="98.88000000000022" y="1980.48" width="80.25" height="77.04" as="geometry" />
        </mxCell>
        <mxCell id="kOEdCS07rvlNoeLBa7wD-190" value="&lt;span style=&quot;font-size: 14px;&quot;&gt;BD Prod&lt;/span&gt;" style="sketch=0;outlineConnect=0;fontColor=#232F3E;gradientColor=none;strokeColor=#ffffff;fillColor=#232F3E;dashed=0;verticalLabelPosition=middle;verticalAlign=bottom;align=center;html=1;whiteSpace=wrap;fontSize=10;fontStyle=1;spacing=3;shape=mxgraph.aws4.productIcon;prIcon=mxgraph.aws4.dynamodb;movable=1;resizable=1;rotatable=1;deletable=1;editable=1;locked=0;connectable=1;" vertex="1" parent="ZWtzyO7zbN0nfAJwWL_--127">
          <mxGeometry x="99.13000000000011" y="2470" width="80" height="100" as="geometry" />
        </mxCell>
        <mxCell id="kOEdCS07rvlNoeLBa7wD-191" style="edgeStyle=orthogonalEdgeStyle;rounded=0;orthogonalLoop=1;jettySize=auto;html=1;" edge="1" parent="ZWtzyO7zbN0nfAJwWL_--127" source="kOEdCS07rvlNoeLBa7wD-197" target="kOEdCS07rvlNoeLBa7wD-215">
          <mxGeometry relative="1" as="geometry" />
        </mxCell>
        <mxCell id="kOEdCS07rvlNoeLBa7wD-192" value="Leitura" style="edgeLabel;html=1;align=center;verticalAlign=middle;resizable=0;points=[];" vertex="1" connectable="0" parent="kOEdCS07rvlNoeLBa7wD-191">
          <mxGeometry x="0.0039" relative="1" as="geometry">
            <mxPoint x="1" as="offset" />
          </mxGeometry>
        </mxCell>
        <mxCell id="kOEdCS07rvlNoeLBa7wD-193" style="edgeStyle=orthogonalEdgeStyle;rounded=0;orthogonalLoop=1;jettySize=auto;html=1;" edge="1" parent="ZWtzyO7zbN0nfAJwWL_--127" source="kOEdCS07rvlNoeLBa7wD-197" target="kOEdCS07rvlNoeLBa7wD-198">
          <mxGeometry relative="1" as="geometry" />
        </mxCell>
        <mxCell id="kOEdCS07rvlNoeLBa7wD-194" value="&lt;font style=&quot;font-size: 14px;&quot;&gt;Cria/Mantém&amp;nbsp;&lt;/font&gt;&lt;div&gt;&lt;font style=&quot;font-size: 14px;&quot;&gt;Carrinho de&amp;nbsp;&lt;/font&gt;&lt;div style=&quot;font-size: 14px;&quot;&gt;&lt;font style=&quot;font-size: 14px;&quot;&gt;compras por&amp;nbsp;&lt;/font&gt;&lt;/div&gt;&lt;div style=&quot;font-size: 14px;&quot;&gt;&lt;font style=&quot;font-size: 14px;&quot;&gt;cliente&lt;/font&gt;&lt;/div&gt;&lt;/div&gt;" style="edgeLabel;html=1;align=center;verticalAlign=middle;resizable=0;points=[];" vertex="1" connectable="0" parent="kOEdCS07rvlNoeLBa7wD-193">
          <mxGeometry x="-0.0206" y="3" relative="1" as="geometry">
            <mxPoint as="offset" />
          </mxGeometry>
        </mxCell>
        <mxCell id="kOEdCS07rvlNoeLBa7wD-195" style="edgeStyle=orthogonalEdgeStyle;rounded=0;orthogonalLoop=1;jettySize=auto;html=1;" edge="1" parent="ZWtzyO7zbN0nfAJwWL_--127" source="kOEdCS07rvlNoeLBa7wD-197" target="kOEdCS07rvlNoeLBa7wD-216">
          <mxGeometry relative="1" as="geometry" />
        </mxCell>
        <mxCell id="kOEdCS07rvlNoeLBa7wD-196" value="Publica dados do carrinho&lt;div&gt;para finalização da compra&lt;/div&gt;" style="edgeLabel;html=1;align=center;verticalAlign=middle;resizable=0;points=[];" vertex="1" connectable="0" parent="kOEdCS07rvlNoeLBa7wD-195">
          <mxGeometry x="0.01" y="-2" relative="1" as="geometry">
            <mxPoint x="2" y="21" as="offset" />
          </mxGeometry>
        </mxCell>
        <mxCell id="kOEdCS07rvlNoeLBa7wD-197" value="&lt;span style=&quot;font-size: 14px;&quot;&gt;&lt;b&gt;Carrinho de compras&lt;/b&gt;&lt;/span&gt;" style="image;sketch=0;aspect=fixed;html=1;points=[];align=center;fontSize=12;image=img/lib/mscae/Kubernetes.svg;" vertex="1" parent="ZWtzyO7zbN0nfAJwWL_--127">
          <mxGeometry x="587.5" y="1682" width="80.25" height="77.04" as="geometry" />
        </mxCell>
        <mxCell id="kOEdCS07rvlNoeLBa7wD-198" value="&lt;span style=&quot;font-size: 14px;&quot;&gt;BD CCompras&lt;/span&gt;" style="sketch=0;outlineConnect=0;fontColor=#232F3E;gradientColor=none;strokeColor=#ffffff;fillColor=#232F3E;dashed=0;verticalLabelPosition=middle;verticalAlign=bottom;align=center;html=1;whiteSpace=wrap;fontSize=10;fontStyle=1;spacing=3;shape=mxgraph.aws4.productIcon;prIcon=mxgraph.aws4.dynamodb;movable=1;resizable=1;rotatable=1;deletable=1;editable=1;locked=0;connectable=1;" vertex="1" parent="ZWtzyO7zbN0nfAJwWL_--127">
          <mxGeometry x="800" y="1660.52" width="80" height="120" as="geometry" />
        </mxCell>
        <mxCell id="kOEdCS07rvlNoeLBa7wD-199" style="edgeStyle=orthogonalEdgeStyle;rounded=0;orthogonalLoop=1;jettySize=auto;html=1;" edge="1" parent="ZWtzyO7zbN0nfAJwWL_--127" source="kOEdCS07rvlNoeLBa7wD-204" target="kOEdCS07rvlNoeLBa7wD-217">
          <mxGeometry relative="1" as="geometry" />
        </mxCell>
        <mxCell id="kOEdCS07rvlNoeLBa7wD-200" value="Leitura" style="edgeLabel;html=1;align=center;verticalAlign=middle;resizable=0;points=[];" vertex="1" connectable="0" parent="kOEdCS07rvlNoeLBa7wD-199">
          <mxGeometry x="-0.1628" y="-2" relative="1" as="geometry">
            <mxPoint as="offset" />
          </mxGeometry>
        </mxCell>
        <mxCell id="kOEdCS07rvlNoeLBa7wD-201" style="edgeStyle=orthogonalEdgeStyle;rounded=0;orthogonalLoop=1;jettySize=auto;html=1;" edge="1" parent="ZWtzyO7zbN0nfAJwWL_--127" source="kOEdCS07rvlNoeLBa7wD-204" target="kOEdCS07rvlNoeLBa7wD-205">
          <mxGeometry relative="1" as="geometry" />
        </mxCell>
        <mxCell id="kOEdCS07rvlNoeLBa7wD-202" value="Gravação" style="edgeLabel;html=1;align=center;verticalAlign=middle;resizable=0;points=[];" vertex="1" connectable="0" parent="kOEdCS07rvlNoeLBa7wD-201">
          <mxGeometry x="-0.0387" y="-3" relative="1" as="geometry">
            <mxPoint y="-23" as="offset" />
          </mxGeometry>
        </mxCell>
        <mxCell id="kOEdCS07rvlNoeLBa7wD-203" style="edgeStyle=orthogonalEdgeStyle;rounded=0;orthogonalLoop=1;jettySize=auto;html=1;" edge="1" parent="ZWtzyO7zbN0nfAJwWL_--127" source="kOEdCS07rvlNoeLBa7wD-204" target="kOEdCS07rvlNoeLBa7wD-220">
          <mxGeometry relative="1" as="geometry">
            <Array as="points">
              <mxPoint x="1250" y="1640" />
              <mxPoint x="1650" y="1640" />
              <mxPoint x="1650" y="2689" />
            </Array>
          </mxGeometry>
        </mxCell>
        <mxCell id="kOEdCS07rvlNoeLBa7wD-204" value="&lt;span style=&quot;font-size: 14px;&quot;&gt;&lt;b&gt;Pedidos&lt;/b&gt;&lt;/span&gt;" style="image;sketch=0;aspect=fixed;html=1;points=[];align=center;fontSize=12;image=img/lib/mscae/Kubernetes.svg;" vertex="1" parent="ZWtzyO7zbN0nfAJwWL_--127">
          <mxGeometry x="1209.75" y="1671.92" width="80.25" height="77.04" as="geometry" />
        </mxCell>
        <mxCell id="kOEdCS07rvlNoeLBa7wD-205" value="&lt;span style=&quot;font-size: 14px;&quot;&gt;BD Pedidos&lt;/span&gt;" style="sketch=0;outlineConnect=0;fontColor=#232F3E;gradientColor=none;strokeColor=#ffffff;fillColor=#232F3E;dashed=0;verticalLabelPosition=middle;verticalAlign=bottom;align=center;html=1;whiteSpace=wrap;fontSize=10;fontStyle=1;spacing=3;shape=mxgraph.aws4.productIcon;prIcon=mxgraph.aws4.dynamodb;movable=1;resizable=1;rotatable=1;deletable=1;editable=1;locked=0;connectable=1;" vertex="1" parent="ZWtzyO7zbN0nfAJwWL_--127">
          <mxGeometry x="1450" y="1649.96" width="80" height="120" as="geometry" />
        </mxCell>
        <mxCell id="kOEdCS07rvlNoeLBa7wD-206" style="edgeStyle=orthogonalEdgeStyle;rounded=0;orthogonalLoop=1;jettySize=auto;html=1;" edge="1" parent="ZWtzyO7zbN0nfAJwWL_--127" source="kOEdCS07rvlNoeLBa7wD-214" target="kOEdCS07rvlNoeLBa7wD-216">
          <mxGeometry relative="1" as="geometry" />
        </mxCell>
        <mxCell id="kOEdCS07rvlNoeLBa7wD-207" value="Leitura eventos" style="edgeLabel;html=1;align=center;verticalAlign=middle;resizable=0;points=[];" vertex="1" connectable="0" parent="kOEdCS07rvlNoeLBa7wD-206">
          <mxGeometry x="0.3978" relative="1" as="geometry">
            <mxPoint x="20" y="-12" as="offset" />
          </mxGeometry>
        </mxCell>
        <mxCell id="kOEdCS07rvlNoeLBa7wD-208" style="edgeStyle=orthogonalEdgeStyle;rounded=0;orthogonalLoop=1;jettySize=auto;html=1;" edge="1" parent="ZWtzyO7zbN0nfAJwWL_--127" source="kOEdCS07rvlNoeLBa7wD-214" target="kOEdCS07rvlNoeLBa7wD-217">
          <mxGeometry relative="1" as="geometry">
            <mxPoint x="896.25" y="1945.1" as="sourcePoint" />
            <mxPoint x="1212.5" y="1774.3958727830377" as="targetPoint" />
            <Array as="points">
              <mxPoint x="950" y="1919" />
              <mxPoint x="950" y="1709" />
            </Array>
          </mxGeometry>
        </mxCell>
        <mxCell id="kOEdCS07rvlNoeLBa7wD-209" style="edgeStyle=orthogonalEdgeStyle;rounded=0;orthogonalLoop=1;jettySize=auto;html=1;" edge="1" parent="ZWtzyO7zbN0nfAJwWL_--127" source="kOEdCS07rvlNoeLBa7wD-214" target="kOEdCS07rvlNoeLBa7wD-218">
          <mxGeometry relative="1" as="geometry">
            <Array as="points">
              <mxPoint x="950" y="1919" />
              <mxPoint x="950" y="1863" />
            </Array>
          </mxGeometry>
        </mxCell>
        <mxCell id="kOEdCS07rvlNoeLBa7wD-210" style="edgeStyle=orthogonalEdgeStyle;rounded=0;orthogonalLoop=1;jettySize=auto;html=1;" edge="1" parent="ZWtzyO7zbN0nfAJwWL_--127" source="kOEdCS07rvlNoeLBa7wD-214" target="kOEdCS07rvlNoeLBa7wD-242">
          <mxGeometry relative="1" as="geometry">
            <Array as="points">
              <mxPoint x="950" y="1919" />
              <mxPoint x="950" y="2010" />
            </Array>
          </mxGeometry>
        </mxCell>
        <mxCell id="kOEdCS07rvlNoeLBa7wD-211" style="edgeStyle=orthogonalEdgeStyle;rounded=0;orthogonalLoop=1;jettySize=auto;html=1;" edge="1" parent="ZWtzyO7zbN0nfAJwWL_--127" source="kOEdCS07rvlNoeLBa7wD-214" target="kOEdCS07rvlNoeLBa7wD-244">
          <mxGeometry relative="1" as="geometry">
            <Array as="points">
              <mxPoint x="950" y="1919" />
              <mxPoint x="950" y="2160" />
            </Array>
          </mxGeometry>
        </mxCell>
        <mxCell id="kOEdCS07rvlNoeLBa7wD-212" style="edgeStyle=orthogonalEdgeStyle;rounded=0;orthogonalLoop=1;jettySize=auto;html=1;" edge="1" parent="ZWtzyO7zbN0nfAJwWL_--127" source="kOEdCS07rvlNoeLBa7wD-214" target="kOEdCS07rvlNoeLBa7wD-246">
          <mxGeometry relative="1" as="geometry">
            <Array as="points">
              <mxPoint x="950" y="1919" />
              <mxPoint x="950" y="2320" />
            </Array>
          </mxGeometry>
        </mxCell>
        <mxCell id="kOEdCS07rvlNoeLBa7wD-213" style="edgeStyle=orthogonalEdgeStyle;rounded=0;orthogonalLoop=1;jettySize=auto;html=1;" edge="1" parent="ZWtzyO7zbN0nfAJwWL_--127" source="kOEdCS07rvlNoeLBa7wD-214" target="kOEdCS07rvlNoeLBa7wD-248">
          <mxGeometry relative="1" as="geometry">
            <Array as="points">
              <mxPoint x="950" y="1919" />
              <mxPoint x="950" y="2469" />
            </Array>
          </mxGeometry>
        </mxCell>
        <mxCell id="kOEdCS07rvlNoeLBa7wD-214" value="&lt;span style=&quot;font-size: 14px;&quot;&gt;&lt;b&gt;Orquestrador&lt;/b&gt;&lt;/span&gt;" style="image;sketch=0;aspect=fixed;html=1;points=[];align=center;fontSize=12;image=img/lib/mscae/Kubernetes.svg;" vertex="1" parent="ZWtzyO7zbN0nfAJwWL_--127">
          <mxGeometry x="790" y="1880" width="80.25" height="77.04" as="geometry" />
        </mxCell>
        <mxCell id="kOEdCS07rvlNoeLBa7wD-215" value="&lt;font style=&quot;font-size: 14px;&quot;&gt;Tópico&lt;/font&gt;&lt;div style=&quot;font-size: 14px;&quot;&gt;&lt;font style=&quot;font-size: 14px;&quot;&gt;Produtos&lt;/font&gt;&lt;/div&gt;&lt;div style=&quot;font-size: 14px;&quot;&gt;&lt;font style=&quot;font-size: 14px;&quot;&gt;selecionados&lt;/font&gt;&lt;/div&gt;" style="sketch=0;outlineConnect=0;fontColor=#232F3E;gradientColor=none;fillColor=#7AA116;strokeColor=none;dashed=0;verticalLabelPosition=bottom;verticalAlign=top;align=center;html=1;fontSize=12;fontStyle=0;aspect=fixed;pointerEvents=1;shape=mxgraph.aws4.topic_2;" vertex="1" parent="ZWtzyO7zbN0nfAJwWL_--127">
          <mxGeometry x="370" y="1979.52" width="53" height="78" as="geometry" />
        </mxCell>
        <mxCell id="kOEdCS07rvlNoeLBa7wD-216" value="&lt;font style=&quot;font-size: 14px;&quot;&gt;Tópico&lt;/font&gt;&lt;div style=&quot;font-size: 14px;&quot;&gt;Finalizar pedidos&lt;/div&gt;" style="sketch=0;outlineConnect=0;fontColor=#232F3E;gradientColor=none;fillColor=#7AA116;strokeColor=none;dashed=0;verticalLabelPosition=bottom;verticalAlign=top;align=center;html=1;fontSize=12;fontStyle=0;aspect=fixed;pointerEvents=1;shape=mxgraph.aws4.topic_2;" vertex="1" parent="ZWtzyO7zbN0nfAJwWL_--127">
          <mxGeometry x="601.1199999999999" y="1880" width="53" height="78" as="geometry" />
        </mxCell>
        <mxCell id="kOEdCS07rvlNoeLBa7wD-217" value="&lt;font style=&quot;font-size: 14px;&quot;&gt;Tópico&lt;br&gt;Pedidos&lt;/font&gt;" style="sketch=0;outlineConnect=0;fontColor=#232F3E;gradientColor=none;fillColor=#7AA116;strokeColor=none;dashed=0;verticalLabelPosition=bottom;verticalAlign=top;align=center;html=1;fontSize=12;fontStyle=0;aspect=fixed;pointerEvents=1;shape=mxgraph.aws4.topic_2;" vertex="1" parent="ZWtzyO7zbN0nfAJwWL_--127">
          <mxGeometry x="1020" y="1670.96" width="53" height="78" as="geometry" />
        </mxCell>
        <mxCell id="kOEdCS07rvlNoeLBa7wD-218" value="&lt;font style=&quot;font-size: 14px;&quot;&gt;Tópico&lt;br&gt;Reserva estoque&lt;/font&gt;" style="sketch=0;outlineConnect=0;fontColor=#232F3E;gradientColor=none;fillColor=#7AA116;strokeColor=none;dashed=0;verticalLabelPosition=bottom;verticalAlign=top;align=center;html=1;fontSize=12;fontStyle=0;aspect=fixed;pointerEvents=1;shape=mxgraph.aws4.topic_2;" vertex="1" parent="ZWtzyO7zbN0nfAJwWL_--127">
          <mxGeometry x="1020" y="1823.96" width="53" height="78" as="geometry" />
        </mxCell>
        <mxCell id="kOEdCS07rvlNoeLBa7wD-219" style="edgeStyle=orthogonalEdgeStyle;rounded=0;orthogonalLoop=1;jettySize=auto;html=1;" edge="1" parent="ZWtzyO7zbN0nfAJwWL_--127" source="kOEdCS07rvlNoeLBa7wD-220" target="kOEdCS07rvlNoeLBa7wD-214">
          <mxGeometry relative="1" as="geometry" />
        </mxCell>
        <mxCell id="kOEdCS07rvlNoeLBa7wD-220" value="&lt;font style=&quot;font-size: 14px;&quot;&gt;Tópico&lt;br&gt;Retorno&lt;/font&gt;" style="sketch=0;outlineConnect=0;fontColor=#232F3E;gradientColor=none;fillColor=#7AA116;strokeColor=none;dashed=0;verticalLabelPosition=bottom;verticalAlign=top;align=center;html=1;fontSize=12;fontStyle=0;aspect=fixed;pointerEvents=1;shape=mxgraph.aws4.topic_2;" vertex="1" parent="ZWtzyO7zbN0nfAJwWL_--127">
          <mxGeometry x="1020" y="2650" width="53" height="78" as="geometry" />
        </mxCell>
        <mxCell id="kOEdCS07rvlNoeLBa7wD-221" style="edgeStyle=orthogonalEdgeStyle;rounded=0;orthogonalLoop=1;jettySize=auto;html=1;" edge="1" parent="ZWtzyO7zbN0nfAJwWL_--127" source="kOEdCS07rvlNoeLBa7wD-224" target="kOEdCS07rvlNoeLBa7wD-218">
          <mxGeometry relative="1" as="geometry" />
        </mxCell>
        <mxCell id="kOEdCS07rvlNoeLBa7wD-222" style="edgeStyle=orthogonalEdgeStyle;rounded=0;orthogonalLoop=1;jettySize=auto;html=1;" edge="1" parent="ZWtzyO7zbN0nfAJwWL_--127" source="kOEdCS07rvlNoeLBa7wD-224" target="kOEdCS07rvlNoeLBa7wD-241">
          <mxGeometry relative="1" as="geometry" />
        </mxCell>
        <mxCell id="kOEdCS07rvlNoeLBa7wD-223" style="edgeStyle=orthogonalEdgeStyle;rounded=0;orthogonalLoop=1;jettySize=auto;html=1;" edge="1" parent="ZWtzyO7zbN0nfAJwWL_--127" source="kOEdCS07rvlNoeLBa7wD-224" target="kOEdCS07rvlNoeLBa7wD-220">
          <mxGeometry relative="1" as="geometry">
            <Array as="points">
              <mxPoint x="1250" y="1790" />
              <mxPoint x="1640" y="1790" />
              <mxPoint x="1640" y="2689" />
            </Array>
          </mxGeometry>
        </mxCell>
        <mxCell id="kOEdCS07rvlNoeLBa7wD-224" value="&lt;span style=&quot;font-size: 14px;&quot;&gt;&lt;b&gt;Estoque&lt;/b&gt;&lt;/span&gt;" style="image;sketch=0;aspect=fixed;html=1;points=[];align=center;fontSize=12;image=img/lib/mscae/Kubernetes.svg;" vertex="1" parent="ZWtzyO7zbN0nfAJwWL_--127">
          <mxGeometry x="1209.75" y="1823.96" width="80.25" height="77.04" as="geometry" />
        </mxCell>
        <mxCell id="kOEdCS07rvlNoeLBa7wD-225" style="edgeStyle=orthogonalEdgeStyle;rounded=0;orthogonalLoop=1;jettySize=auto;html=1;" edge="1" parent="ZWtzyO7zbN0nfAJwWL_--127" source="kOEdCS07rvlNoeLBa7wD-228" target="kOEdCS07rvlNoeLBa7wD-246">
          <mxGeometry relative="1" as="geometry" />
        </mxCell>
        <mxCell id="kOEdCS07rvlNoeLBa7wD-226" style="edgeStyle=orthogonalEdgeStyle;rounded=0;orthogonalLoop=1;jettySize=auto;html=1;" edge="1" parent="ZWtzyO7zbN0nfAJwWL_--127" source="kOEdCS07rvlNoeLBa7wD-228" target="kOEdCS07rvlNoeLBa7wD-247">
          <mxGeometry relative="1" as="geometry" />
        </mxCell>
        <mxCell id="kOEdCS07rvlNoeLBa7wD-227" style="edgeStyle=orthogonalEdgeStyle;rounded=0;orthogonalLoop=1;jettySize=auto;html=1;" edge="1" parent="ZWtzyO7zbN0nfAJwWL_--127" source="kOEdCS07rvlNoeLBa7wD-228" target="kOEdCS07rvlNoeLBa7wD-220">
          <mxGeometry relative="1" as="geometry">
            <Array as="points">
              <mxPoint x="1250" y="2230" />
              <mxPoint x="1610" y="2230" />
              <mxPoint x="1610" y="2689" />
            </Array>
          </mxGeometry>
        </mxCell>
        <mxCell id="kOEdCS07rvlNoeLBa7wD-228" value="&lt;span style=&quot;font-size: 14px;&quot;&gt;&lt;b&gt;Logística&lt;/b&gt;&lt;/span&gt;" style="image;sketch=0;aspect=fixed;html=1;points=[];align=center;fontSize=12;image=img/lib/mscae/Kubernetes.svg;" vertex="1" parent="ZWtzyO7zbN0nfAJwWL_--127">
          <mxGeometry x="1209.75" y="2270" width="80.25" height="77.04" as="geometry" />
        </mxCell>
        <mxCell id="kOEdCS07rvlNoeLBa7wD-229" style="edgeStyle=orthogonalEdgeStyle;rounded=0;orthogonalLoop=1;jettySize=auto;html=1;" edge="1" parent="ZWtzyO7zbN0nfAJwWL_--127" source="kOEdCS07rvlNoeLBa7wD-232" target="kOEdCS07rvlNoeLBa7wD-248">
          <mxGeometry relative="1" as="geometry" />
        </mxCell>
        <mxCell id="kOEdCS07rvlNoeLBa7wD-230" style="edgeStyle=orthogonalEdgeStyle;rounded=0;orthogonalLoop=1;jettySize=auto;html=1;" edge="1" parent="ZWtzyO7zbN0nfAJwWL_--127" source="kOEdCS07rvlNoeLBa7wD-232" target="kOEdCS07rvlNoeLBa7wD-249">
          <mxGeometry relative="1" as="geometry" />
        </mxCell>
        <mxCell id="kOEdCS07rvlNoeLBa7wD-231" style="edgeStyle=orthogonalEdgeStyle;rounded=0;orthogonalLoop=1;jettySize=auto;html=1;" edge="1" parent="ZWtzyO7zbN0nfAJwWL_--127" source="kOEdCS07rvlNoeLBa7wD-232" target="kOEdCS07rvlNoeLBa7wD-220">
          <mxGeometry relative="1" as="geometry">
            <Array as="points">
              <mxPoint x="1250" y="2380" />
              <mxPoint x="1600" y="2380" />
              <mxPoint x="1600" y="2690" />
            </Array>
          </mxGeometry>
        </mxCell>
        <mxCell id="kOEdCS07rvlNoeLBa7wD-232" value="&lt;span style=&quot;font-size: 14px;&quot;&gt;&lt;b&gt;Cancela operação&lt;/b&gt;&lt;/span&gt;" style="image;sketch=0;aspect=fixed;html=1;points=[];align=center;fontSize=12;image=img/lib/mscae/Kubernetes.svg;" vertex="1" parent="ZWtzyO7zbN0nfAJwWL_--127">
          <mxGeometry x="1209.75" y="2430" width="80.25" height="77.04" as="geometry" />
        </mxCell>
        <mxCell id="kOEdCS07rvlNoeLBa7wD-233" style="edgeStyle=orthogonalEdgeStyle;rounded=0;orthogonalLoop=1;jettySize=auto;html=1;" edge="1" parent="ZWtzyO7zbN0nfAJwWL_--127" source="kOEdCS07rvlNoeLBa7wD-236" target="kOEdCS07rvlNoeLBa7wD-242">
          <mxGeometry relative="1" as="geometry" />
        </mxCell>
        <mxCell id="kOEdCS07rvlNoeLBa7wD-234" style="edgeStyle=orthogonalEdgeStyle;rounded=0;orthogonalLoop=1;jettySize=auto;html=1;" edge="1" parent="ZWtzyO7zbN0nfAJwWL_--127" source="kOEdCS07rvlNoeLBa7wD-236" target="kOEdCS07rvlNoeLBa7wD-243">
          <mxGeometry relative="1" as="geometry" />
        </mxCell>
        <mxCell id="kOEdCS07rvlNoeLBa7wD-235" style="edgeStyle=orthogonalEdgeStyle;rounded=0;orthogonalLoop=1;jettySize=auto;html=1;" edge="1" parent="ZWtzyO7zbN0nfAJwWL_--127" source="kOEdCS07rvlNoeLBa7wD-236" target="kOEdCS07rvlNoeLBa7wD-220">
          <mxGeometry relative="1" as="geometry">
            <Array as="points">
              <mxPoint x="1250" y="1930" />
              <mxPoint x="1630" y="1930" />
              <mxPoint x="1630" y="2689" />
            </Array>
          </mxGeometry>
        </mxCell>
        <mxCell id="kOEdCS07rvlNoeLBa7wD-236" value="&lt;span style=&quot;font-size: 14px;&quot;&gt;&lt;b&gt;Pagamento&lt;/b&gt;&lt;/span&gt;" style="image;sketch=0;aspect=fixed;html=1;points=[];align=center;fontSize=12;image=img/lib/mscae/Kubernetes.svg;" vertex="1" parent="ZWtzyO7zbN0nfAJwWL_--127">
          <mxGeometry x="1209.75" y="1970" width="80.25" height="77.04" as="geometry" />
        </mxCell>
        <mxCell id="kOEdCS07rvlNoeLBa7wD-237" style="edgeStyle=orthogonalEdgeStyle;rounded=0;orthogonalLoop=1;jettySize=auto;html=1;" edge="1" parent="ZWtzyO7zbN0nfAJwWL_--127" source="kOEdCS07rvlNoeLBa7wD-240" target="kOEdCS07rvlNoeLBa7wD-244">
          <mxGeometry relative="1" as="geometry" />
        </mxCell>
        <mxCell id="kOEdCS07rvlNoeLBa7wD-238" style="edgeStyle=orthogonalEdgeStyle;rounded=0;orthogonalLoop=1;jettySize=auto;html=1;" edge="1" parent="ZWtzyO7zbN0nfAJwWL_--127" source="kOEdCS07rvlNoeLBa7wD-240" target="kOEdCS07rvlNoeLBa7wD-245">
          <mxGeometry relative="1" as="geometry" />
        </mxCell>
        <mxCell id="kOEdCS07rvlNoeLBa7wD-239" style="edgeStyle=orthogonalEdgeStyle;rounded=0;orthogonalLoop=1;jettySize=auto;html=1;" edge="1" parent="ZWtzyO7zbN0nfAJwWL_--127" source="kOEdCS07rvlNoeLBa7wD-240" target="kOEdCS07rvlNoeLBa7wD-220">
          <mxGeometry relative="1" as="geometry">
            <Array as="points">
              <mxPoint x="1250" y="2080" />
              <mxPoint x="1620" y="2080" />
              <mxPoint x="1620" y="2689" />
            </Array>
          </mxGeometry>
        </mxCell>
        <mxCell id="kOEdCS07rvlNoeLBa7wD-240" value="&lt;span style=&quot;font-size: 14px;&quot;&gt;&lt;b&gt;Anti-fraude&lt;/b&gt;&lt;/span&gt;" style="image;sketch=0;aspect=fixed;html=1;points=[];align=center;fontSize=12;image=img/lib/mscae/Kubernetes.svg;" vertex="1" parent="ZWtzyO7zbN0nfAJwWL_--127">
          <mxGeometry x="1209.75" y="2120" width="80.25" height="77.04" as="geometry" />
        </mxCell>
        <mxCell id="kOEdCS07rvlNoeLBa7wD-241" value="&lt;span style=&quot;font-size: 14px;&quot;&gt;BD Estoque&lt;/span&gt;" style="sketch=0;outlineConnect=0;fontColor=#232F3E;gradientColor=none;strokeColor=#ffffff;fillColor=#232F3E;dashed=0;verticalLabelPosition=middle;verticalAlign=bottom;align=center;html=1;whiteSpace=wrap;fontSize=10;fontStyle=1;spacing=3;shape=mxgraph.aws4.productIcon;prIcon=mxgraph.aws4.dynamodb;movable=1;resizable=1;rotatable=1;deletable=1;editable=1;locked=0;connectable=1;" vertex="1" parent="ZWtzyO7zbN0nfAJwWL_--127">
          <mxGeometry x="1450" y="1802.48" width="80" height="120" as="geometry" />
        </mxCell>
        <mxCell id="kOEdCS07rvlNoeLBa7wD-242" value="&lt;font style=&quot;font-size: 14px;&quot;&gt;Tópico&lt;br&gt;Pagamento&lt;/font&gt;" style="sketch=0;outlineConnect=0;fontColor=#232F3E;gradientColor=none;fillColor=#7AA116;strokeColor=none;dashed=0;verticalLabelPosition=bottom;verticalAlign=top;align=center;html=1;fontSize=12;fontStyle=0;aspect=fixed;pointerEvents=1;shape=mxgraph.aws4.topic_2;" vertex="1" parent="ZWtzyO7zbN0nfAJwWL_--127">
          <mxGeometry x="1020" y="1969.04" width="53" height="78" as="geometry" />
        </mxCell>
        <mxCell id="kOEdCS07rvlNoeLBa7wD-243" value="&lt;span style=&quot;font-size: 14px;&quot;&gt;BD Pagamento&lt;/span&gt;" style="sketch=0;outlineConnect=0;fontColor=#232F3E;gradientColor=none;strokeColor=#ffffff;fillColor=#232F3E;dashed=0;verticalLabelPosition=middle;verticalAlign=bottom;align=center;html=1;whiteSpace=wrap;fontSize=10;fontStyle=1;spacing=3;shape=mxgraph.aws4.productIcon;prIcon=mxgraph.aws4.dynamodb;movable=1;resizable=1;rotatable=1;deletable=1;editable=1;locked=0;connectable=1;" vertex="1" parent="ZWtzyO7zbN0nfAJwWL_--127">
          <mxGeometry x="1450" y="1948.52" width="80" height="120" as="geometry" />
        </mxCell>
        <mxCell id="kOEdCS07rvlNoeLBa7wD-244" value="&lt;font style=&quot;font-size: 14px;&quot;&gt;Tópico&lt;br&gt;Pagamento&lt;br&gt;Aprovado&lt;/font&gt;" style="sketch=0;outlineConnect=0;fontColor=#232F3E;gradientColor=none;fillColor=#7AA116;strokeColor=none;dashed=0;verticalLabelPosition=bottom;verticalAlign=top;align=center;html=1;fontSize=12;fontStyle=0;aspect=fixed;pointerEvents=1;shape=mxgraph.aws4.topic_2;" vertex="1" parent="ZWtzyO7zbN0nfAJwWL_--127">
          <mxGeometry x="1020" y="2119.04" width="53" height="78" as="geometry" />
        </mxCell>
        <mxCell id="kOEdCS07rvlNoeLBa7wD-245" value="&lt;span style=&quot;font-size: 14px;&quot;&gt;BD Pagamento&lt;/span&gt;" style="sketch=0;outlineConnect=0;fontColor=#232F3E;gradientColor=none;strokeColor=#ffffff;fillColor=#232F3E;dashed=0;verticalLabelPosition=middle;verticalAlign=bottom;align=center;html=1;whiteSpace=wrap;fontSize=10;fontStyle=1;spacing=3;shape=mxgraph.aws4.productIcon;prIcon=mxgraph.aws4.dynamodb;movable=1;resizable=1;rotatable=1;deletable=1;editable=1;locked=0;connectable=1;" vertex="1" parent="ZWtzyO7zbN0nfAJwWL_--127">
          <mxGeometry x="1450" y="2098.52" width="80" height="120" as="geometry" />
        </mxCell>
        <mxCell id="kOEdCS07rvlNoeLBa7wD-246" value="&lt;font style=&quot;font-size: 14px;&quot;&gt;Tópico&lt;br&gt;Pedido&lt;br&gt;Aprovado&lt;/font&gt;" style="sketch=0;outlineConnect=0;fontColor=#232F3E;gradientColor=none;fillColor=#7AA116;strokeColor=none;dashed=0;verticalLabelPosition=bottom;verticalAlign=top;align=center;html=1;fontSize=12;fontStyle=0;aspect=fixed;pointerEvents=1;shape=mxgraph.aws4.topic_2;" vertex="1" parent="ZWtzyO7zbN0nfAJwWL_--127">
          <mxGeometry x="1020" y="2270" width="53" height="78" as="geometry" />
        </mxCell>
        <mxCell id="kOEdCS07rvlNoeLBa7wD-247" value="&lt;span style=&quot;font-size: 14px;&quot;&gt;BD Entrega&lt;/span&gt;" style="sketch=0;outlineConnect=0;fontColor=#232F3E;gradientColor=none;strokeColor=#ffffff;fillColor=#232F3E;dashed=0;verticalLabelPosition=middle;verticalAlign=bottom;align=center;html=1;whiteSpace=wrap;fontSize=10;fontStyle=1;spacing=3;shape=mxgraph.aws4.productIcon;prIcon=mxgraph.aws4.dynamodb;movable=1;resizable=1;rotatable=1;deletable=1;editable=1;locked=0;connectable=1;" vertex="1" parent="ZWtzyO7zbN0nfAJwWL_--127">
          <mxGeometry x="1450" y="2249" width="80" height="120" as="geometry" />
        </mxCell>
        <mxCell id="kOEdCS07rvlNoeLBa7wD-248" value="&lt;font style=&quot;font-size: 14px;&quot;&gt;Tópico&lt;br&gt;Pedido&lt;br&gt;Cancelado&lt;/font&gt;" style="sketch=0;outlineConnect=0;fontColor=#232F3E;gradientColor=none;fillColor=#7AA116;strokeColor=none;dashed=0;verticalLabelPosition=bottom;verticalAlign=top;align=center;html=1;fontSize=12;fontStyle=0;aspect=fixed;pointerEvents=1;shape=mxgraph.aws4.topic_2;" vertex="1" parent="ZWtzyO7zbN0nfAJwWL_--127">
          <mxGeometry x="1020" y="2430" width="53" height="78" as="geometry" />
        </mxCell>
        <mxCell id="kOEdCS07rvlNoeLBa7wD-249" value="&lt;span style=&quot;font-size: 14px;&quot;&gt;BD Pedido Cancelado&lt;/span&gt;" style="sketch=0;outlineConnect=0;fontColor=#232F3E;gradientColor=none;strokeColor=#ffffff;fillColor=#232F3E;dashed=0;verticalLabelPosition=middle;verticalAlign=bottom;align=center;html=1;whiteSpace=wrap;fontSize=10;fontStyle=1;spacing=3;shape=mxgraph.aws4.productIcon;prIcon=mxgraph.aws4.dynamodb;movable=1;resizable=1;rotatable=1;deletable=1;editable=1;locked=0;connectable=1;" vertex="1" parent="ZWtzyO7zbN0nfAJwWL_--127">
          <mxGeometry x="1450" y="2409" width="80" height="120" as="geometry" />
        </mxCell>
        <mxCell id="kOEdCS07rvlNoeLBa7wD-252" style="edgeStyle=orthogonalEdgeStyle;rounded=0;orthogonalLoop=1;jettySize=auto;html=1;" edge="1" parent="ZWtzyO7zbN0nfAJwWL_--127">
          <mxGeometry relative="1" as="geometry">
            <Array as="points">
              <mxPoint x="1966" y="2800" />
              <mxPoint x="140" y="2800" />
              <mxPoint x="140" y="2570" />
            </Array>
            <mxPoint x="1966" y="2347.0400000000004" as="sourcePoint" />
            <mxPoint x="140" y="2560" as="targetPoint" />
          </mxGeometry>
        </mxCell>
        <mxCell id="kOEdCS07rvlNoeLBa7wD-253" value="CDC para sincronização das Bases de Produtos" style="edgeLabel;html=1;align=center;verticalAlign=middle;resizable=0;points=[];fontSize=16;" vertex="1" connectable="0" parent="kOEdCS07rvlNoeLBa7wD-252">
          <mxGeometry x="0.0272" y="1" relative="1" as="geometry">
            <mxPoint as="offset" />
          </mxGeometry>
        </mxCell>
        <mxCell id="kOEdCS07rvlNoeLBa7wD-254" style="edgeStyle=orthogonalEdgeStyle;rounded=0;orthogonalLoop=1;jettySize=auto;html=1;" edge="1" parent="ZWtzyO7zbN0nfAJwWL_--127" source="ZWtzyO7zbN0nfAJwWL_--319" target="kOEdCS07rvlNoeLBa7wD-189">
          <mxGeometry relative="1" as="geometry">
            <mxPoint x="170" y="1980" as="targetPoint" />
            <Array as="points" />
          </mxGeometry>
        </mxCell>
        <mxCell id="kOEdCS07rvlNoeLBa7wD-250" value="&lt;font style=&quot;font-size: 14px;&quot;&gt;Tópico&lt;br&gt;PRODUTOS&lt;/font&gt;" style="sketch=0;outlineConnect=0;fontColor=#232F3E;gradientColor=none;fillColor=#7AA116;strokeColor=none;dashed=0;verticalLabelPosition=bottom;verticalAlign=top;align=center;html=1;fontSize=12;fontStyle=0;aspect=fixed;pointerEvents=1;shape=mxgraph.aws4.topic_2;" vertex="1" parent="ZWtzyO7zbN0nfAJwWL_--127">
          <mxGeometry x="1978.5" y="1671.92" width="53" height="78" as="geometry" />
        </mxCell>
        <mxCell id="UM05papVInRiucUio6Ng-61" value="&lt;font style=&quot;font-size: 16px;&quot;&gt;&lt;b&gt;Cliente VPN network&lt;/b&gt;&lt;/font&gt;&lt;div&gt;&lt;font style=&quot;font-size: 16px;&quot;&gt;&lt;b&gt;&amp;nbsp;interface&lt;/b&gt;&lt;/font&gt;&lt;/div&gt;" style="sketch=0;points=[[0,0,0],[0.25,0,0],[0.5,0,0],[0.75,0,0],[1,0,0],[0,1,0],[0.25,1,0],[0.5,1,0],[0.75,1,0],[1,1,0],[0,0.25,0],[0,0.5,0],[0,0.75,0],[1,0.25,0],[1,0.5,0],[1,0.75,0]];outlineConnect=0;fontColor=#232F3E;fillColor=#8C4FFF;strokeColor=#ffffff;dashed=0;verticalLabelPosition=bottom;verticalAlign=top;align=center;html=1;fontSize=12;fontStyle=0;aspect=fixed;shape=mxgraph.aws4.resourceIcon;resIcon=mxgraph.aws4.site_to_site_vpn;" parent="ZWtzyO7zbN0nfAJwWL_--127" vertex="1">
          <mxGeometry x="2550" y="1190" width="78" height="78" as="geometry" />
        </mxCell>
        <mxCell id="ZWtzyO7zbN0nfAJwWL_--302" style="edgeStyle=orthogonalEdgeStyle;rounded=0;orthogonalLoop=1;jettySize=auto;html=1;entryX=0;entryY=0.5;entryDx=0;entryDy=0;entryPerimeter=0;movable=1;resizable=1;rotatable=1;deletable=1;editable=1;locked=0;connectable=1;" parent="1" source="ZWtzyO7zbN0nfAJwWL_--18" target="ZWtzyO7zbN0nfAJwWL_--26" edge="1">
          <mxGeometry relative="1" as="geometry">
            <Array as="points">
              <mxPoint x="-4040" y="1299" />
            </Array>
          </mxGeometry>
        </mxCell>
        <mxCell id="ZWtzyO7zbN0nfAJwWL_--315" style="edgeStyle=orthogonalEdgeStyle;rounded=0;orthogonalLoop=1;jettySize=auto;html=1;movable=1;resizable=1;rotatable=1;deletable=1;editable=1;locked=0;connectable=1;" parent="1" source="ZWtzyO7zbN0nfAJwWL_--26" target="ZWtzyO7zbN0nfAJwWL_--319" edge="1">
          <mxGeometry relative="1" as="geometry">
            <mxPoint x="-3710" y="1115" as="targetPoint" />
            <Array as="points">
              <mxPoint x="-3820" y="1299" />
              <mxPoint x="-3820" y="1650" />
            </Array>
          </mxGeometry>
        </mxCell>
        <mxCell id="ZWtzyO7zbN0nfAJwWL_--33" value="AWS Shield&lt;br&gt;(DDoS)" style="sketch=0;points=[[0,0,0],[0.25,0,0],[0.5,0,0],[0.75,0,0],[1,0,0],[0,1,0],[0.25,1,0],[0.5,1,0],[0.75,1,0],[1,1,0],[0,0.25,0],[0,0.5,0],[0,0.75,0],[1,0.25,0],[1,0.5,0],[1,0.75,0]];outlineConnect=0;fontColor=#232F3E;fillColor=#DD344C;strokeColor=#ffffff;dashed=0;verticalLabelPosition=bottom;verticalAlign=top;align=center;html=1;fontSize=12;fontStyle=0;aspect=fixed;shape=mxgraph.aws4.resourceIcon;resIcon=mxgraph.aws4.shield;movable=1;resizable=1;rotatable=1;deletable=1;editable=1;locked=0;connectable=1;" parent="1" vertex="1">
          <mxGeometry x="-3931" y="1403.99" width="78" height="78" as="geometry" />
        </mxCell>
        <mxCell id="oXsWMwM0G2av0L4SChWs-6" style="edgeStyle=orthogonalEdgeStyle;rounded=0;orthogonalLoop=1;jettySize=auto;html=1;entryX=-0.005;entryY=0.376;entryDx=0;entryDy=0;entryPerimeter=0;" parent="1" edge="1">
          <mxGeometry relative="1" as="geometry">
            <mxPoint x="-4305.57" y="370.47368421052624" as="sourcePoint" />
            <mxPoint x="-4070.3" y="268.27" as="targetPoint" />
            <Array as="points">
              <mxPoint x="-4180" y="371" />
              <mxPoint x="-4180" y="268" />
            </Array>
          </mxGeometry>
        </mxCell>
        <mxCell id="UM05papVInRiucUio6Ng-29" value="" style="shape=mxgraph.cisco.computers_and_peripherals.ibm_mainframe;html=1;pointerEvents=1;dashed=0;fillColor=#036897;strokeColor=#ffffff;strokeWidth=2;verticalLabelPosition=bottom;verticalAlign=top;align=center;outlineConnect=0;container=0;movable=1;resizable=1;rotatable=1;deletable=1;editable=1;locked=0;connectable=1;" parent="1" vertex="1">
          <mxGeometry x="-200" y="317.92000000000024" width="90" height="108.14" as="geometry" />
        </mxCell>
        <mxCell id="UM05papVInRiucUio6Ng-31" value="" style="shape=image;verticalLabelPosition=bottom;labelBackgroundColor=default;verticalAlign=top;aspect=fixed;imageAspect=0;image=data:image/png,iVBORw0KGgoAAAANSUhEUgAAAIcAAACTCAYAAACkoAqHAAAABHNCSVQICAgIfAhkiAAAABl0RVh0U29mdHdhcmUAZ25vbWUtc2NyZWVuc2hvdO8Dvz4AAAAmdEVYdENyZWF0aW9uIFRpbWUAZG9tIDIxIGFiciAyMDI0IDEyOjQxOjM1JeURTQAAIABJREFUeJztfVdwlGeW9vN17la31EpIIIEsBCIYiWQyJtkEY2yCTfIY4/VSrtr1xdbW3uzd3u5W7V5N1W5t7dTOzvgHjwEbHMA2mGAQGBMEQiZIBIESyqFz+rr/C81zeLstJMZYlvD4VFES0N1ff+973hOe85zzabquJ/CUiqZpiMfjiMfjMBqNMBgMiEajiMViMJvNMJlMCIfDAACr1Sqv1XUdBoMBZrMZAJBIJJBIJOQzASAejyMSicBgMMBqtSIYDCIajcJut8NsNiMej8v7NE2DwWCQvxsMBmialvS5T6NoT7NyqIvPn1QSdeNisViSwgBAc3Mzampq0N3djVAohHg8jrS0NOTn56OgoAC5ubmw2WwIh8NIJBKwWq0A+pSmP0WgMsTj8R8oy9MqpuH+Ak8i3Hyj0Sgbo+u6WAj1Nbquo7KyEsePH8fly5cRCoVgMpkQCoVEeYA+C+N0OuF0OjF16lSsXLkSU6dOlU02mUzyWl6X11CVgtd/muWpthyapiEajSISicBiscBisQBAkovo6urC6dOn8fXXX+PevXuIxWLIyMhAIpGA3+8X92IymZBIJES5EokEIpEIdF1HcXEx1qxZg0WLFiE7O1vcVyKREAUB+pSFbonf42m2HE+1ckSjUWiaBovFgmg0ilAoBIPBALvdDoPBgO+++w579+7FjRs3EIvF4HA4YLPZJJYwm82IxWKiDHQRAERJHA4HdF2H1+vF1KlTsXHjRsycORMOh0O+RyKRQCwWE2VRRVWWp02eauXgyeTmmkwmGI1G1NTU4KOPPsKFCxcQj8dhtVrlhFMxAIh7AACDwSB/4vE4YrGYxC+0ILquw+12Y968eXjppZcwbtw4GI1GWCwWUSYqgxqoPq3yVCsH3UoikYDFYkFbWxuOHj2KI0eOoK2tDTabTTIak8mUtHHcNPW0qy5F/X8qnslkgsfjQTAYxNixY7F27VosXboU2dnZkvmo8qtbeQJJNeexWAwGgwEmkwnRaBS6rsNsNv9g84xGo7zXaDQiFArh3Llz+Pjjj3H37l3YbDaxKKlm/qeUUCiEoqIibNq0CfPnz4fT6YSu6wAgyqVaDroeBrX8faTKsCqHigXwd/47/1BUXCESiYg5r6ysxL59+3Dt2jXoui4pJxVtKJVD0zSEQiHouo5p06Zh8+bNmDVrFjRNS8JI6L7MZjOi0SjC4TBMJhOsVuuItizDqhxqykd/DyApVSQYZTQaJaMwGAxobW3Fvn378PXXX0PXdaSlpcFgMCAYDCIej8Nut4vbGSrh93I4HPD7/YhGo1i8eDG2bt2KCRMmIBKJAEBSwGw0GsWyqe5rJMqwKwctBGMHs9ksWEEsFoOmaTCZTGKuA4EAjh8/jgMHDqC7uxt2ux3xeBzhcBjRaBQ2mw0WiwWBQADxeFzS26EQKrSqzH6/H263G6+88gpWrVqFrKyspPvgfavvGaky7AEplUOFtlUAiQpjMplw6dIl/L//9/9QW1sLs9ksbsdoNMJsNovLAfpOq7oJQyHMZIiuxmIxBINBuXZRURG2bt2KOXPmyD2ZzWaEw2Fxi7+6lQEkFYaORCKSffBU3r59G/v378fp06dhs9lgt9sRDoflPbquJ1kYYhfqaR0KYYxjNpvh8XgkbaYi8LvNmDED27dvx6RJk5JSaSr+SJVhD0jj8XgS2sg/wWAQTU1N+Oabb3D06FH4fD64XC6Ew2HEYjFYrVaJJ1Kjf7PZLEoylCCU0WgU6J0xDot6uq4jEolIEGqz2bBmzRqsW7cOeXl5AEZ+qjsiYg4uJoGnQCCAM2fO4LPPPsPdu3eT4G2TyZSUxgJ9J5hmOhQKIRKJCMbBWGUohDEHATLek1r15ebrug6Px4OCggJs3boVy5YtQ1pa2pB9t59ChlQ5VHPPRQOQVCnlIhqNRkSjUVy6dAn79u3DjRs3ZMMfJY9z6p7EcjzpqSZmk4rJ6LqOCRMmYPPmzViwYAEAiEIB+EFWk4q8qjKUlnFIlYNugyfbaDTKKeOJY1X15s2b+Pzzz3HhwgX4/X6Bwp801RtO5YhGozCZTLDZbNB1XQ5IMBhEIpFAWloannvuObz22muYOHFiUlYTCoUkuKXLYiylZnRD6ZaGXDlS/86shO6kra0NX3/9NQ4dOoS2tja4XK6klG+w0vdgmz+cygE8rNSSM2Kz2cRKhkIh+P1+5OfnY926dXjhhReQn58vGZvJZJLDoeJBACROG8qAe0iVQ0UGeWpoKQDg+PHj2L17N1paWuB0OqFpGjwejwSVjEkGvIEB/j8VZf1L5UlPJot9dJ9EgdXvFYlEEAgEkEgkMH78eLz66qt4/vnnkZGRIVZWLeCpa6qiykMhQ245CHCRiWUwGHDt2jXs3bsXV65ckUViRO9wOMRHszo62DUGu/6PlSdVDjVYZWoeDodlw1n7IZDn9Xqh6zomT56MrVu3Yt68eUlWlJJavxkqGXLLEY1GYTabYbFY0NzcjMOHD+PIkSPo7e2VRTGZTHA4HPD5fAiFQnC5XJLiDmY2R7JbUQuKKq2AVpEulim53W6XrCY9PR2rVq3CqlWrMHr0aOGtqp/7U3zHgWRIlYOxBSHv/fv3o7m5GRkZGQJYqekmAaRAICCo55PS7YY75qD14j3SpRJZJYNNJQwxMPX7/Rg9ejTWr1+PxYsXY9SoUaJMKio8VDLkbqWyshLvv/8+rl+/LnUPoptcKCKhtBQWiyUpcH2UPA2pLN0H/05XyfskkYiEIcYnTPFDoRBCoRAmT56MjRs3Yu7cubDb7T/J9xtMBlUO3hijbrWsnlpuZ4oajUbx4MEDHDx4EKdOnXp4MSUG+CVQ938OoUL5/X4YjUbMmzcPGzZswNSpU5MOF4Ck/VBpi2TMA5CUmpnQQOs/oHJwIwlYkQ3F1AyAaDzz89bWVhw7dgyHDx9GR0eHaDk/71fleHzhplqtVqEjeDweZGdnY/ny5VizZg2KiopEEWiBDQZDEnjIeEdd/8eyugMpR2raRKY3kUtqNdBXSq+oqMCBAwdQV1eX9Bq52K/K8ReJejg1TYPdbkcsFkNvby/i8TjGjx+PDRs2YOnSpbIXPIxk0hE6SGWmpeIm/V5/MMtB35/KquKH67qO77//Hvv378fFixdhMBjgcDjkverm/6ocf7moDVPRaBRWqxU2mw1erxderxeJRAJTpkzBW2+9hTlz5kjgq3JmKSo6zb18Irei8jZZhWT62dTUhE8++QRfffUVwuEw3G63wOWqb0u9Uf7+q3IMLGowa7VaEYlE4Pf7YTab4XQ6AfRZFdZi5s+fj40bN2LSpElJewBAyhF/yboPqBxqX4jac9rW1oavvvoKBw4cQE9PD3JycpJSMRKDCQKpN/urcjy+qCgqADidTmGbcW+Y1bBmk5ubi2XLlmHVqlUYO3as0Cx5oJn+0lUNxEQb1HIEAgHhaIZCIVRUVODTTz/FvXv3JBZhHAL0xSd2ux2hUEiItOrn/aocjy9Ela1WKwKBgPBY6DJ4+ILBIDRNQ1paGgKBAHp6elBcXIzXXnsNixYtQnp6uuwTC3f9Ia+pMqByMKABgCtXruDAgQOorq6Gpmmw2WziQvhFqZEEd5hSycV+VY6/SNSUVD3xPIgqzAAA4XBYlMnv9yMUCqGsrAxbtmzBzJkzBT8ijjLY+mvRaDSh4hfkHFAB2tra8OWXX+Kzzz6Dx+NBVlaWsJwGw/YHq20M+uWG+P2DyXB/v5+itkP6w9q1a7Fp0ybk5OT84DswDea1BMui5UjNhY1GI27fvo2PPvoI3333nQQ0Xq9XIF+WjYfq5n9VjidTjkQiIa2gbW1tKC0txbvvvospU6b8gJmvxodi3WOxWIJao7qRmpoa7Nu3DxcuXJCKqdpvQY0bqPYx3Iv3164cBoNBmGc2mw0ejwclJSV49913UV5eLtlkquXgdzIwbohGo0K1v3HjBvbv348TJ07AaDSioKAAiUQCgUBAYonBrMavMvzCrNFms8FqtSI7Oxs3b97E7373O1y/fl2QV5WKqCKoBqKebM0LhUI4ffo0zp07Jw3CbB6yWq3weDwCpf+qHCNb6FbUfRszZgxu376NPXv2oLa2VpRBbacA/kyetlqtsFgsgsl//fXXOH78eNLsK6ZAjHJ/zTSeDmHnn8/nQ1pammQ8brcbly9fxoEDB9DZ2ZlUPVbjToO6wTdu3MCpU6fQ2dkJTdMQDAZhNBrhdrsRiUQQiUTgcDiEKPyrjGxhrEiQjDEI0+EbN27g8uXLElL8IObgBxkMBpw/fx7Nzc3Izc0VAEbXdQQCAWkfYKMyEdBfZeQKlYEoajAYFFae3W5HY2MjLly4AK/XC+CHAbKBpuT777+XMQYq+qYCXLwgM5vB3IpKhevvDwBhNrGV0Gq1ynVpBslLSCUqU4HJ5iZIxAXg5zMaJ6JLYI5xE92m2l/CQJ33rFaY1RYLfh8A4obD4XCSD1crojxUarb3qD9P6rbVbITWgWQjTdNgtVpx8+ZNXL16VRRDvb6JDOkHDx6gs7NTFlglkAyVcENtNhui0Sjq6+sRCASEMET+KXkKhI01TUN6ejpcLhcaGxvR3d2dBCmTk8l7U8lIRqMRaWlpsNvtsFgsSEtLg9VqRTgcRkdHB3w+nygHlY79u06nE3l5ebK5XHiHw4FAIIAHDx5IqZzN0qkostPpRE5ODmw225C3aw4mRqMRPT09aGxsFHSV/w4ApkSib6re3bt30dXV9YONGErlYEdYLBaD1+vFjBkz8MILL8Dtdkuhj6+Lx+PS5JOWloY7d+7gxIkTKC8vx/LlyxGJRBCNRpMmCqqddrQ8uq6jubkZlZWVaGhoSLKEK1euxNy5c+X1KtmGa3Lnzh1UVFSgt7dXeLA8VHPmzMHzzz8vxGkeMCq0zWZDfX09Tp48iZaWFoEFhkvMZjN6enpw9+5ddHd3Izc3V9YO+LNy9Pb2oq21VRqCaeaHOqbgKdc0DS6XC88++ywWL14Mt9stdQB1FJTqitLS0nDt2jVMnDhRyC4qK5s1HhJdSD8A+k7Gli1bcOLECXz88cdobm6GpmmYNGkSVq9e3S9jinSF/Px8NDQ0oKqqSqwBrdCCBQuwfv36fhnzdI+VlZW4cuUKHjx4kNQCORzCg9Ha2oqOjg7k5eWJq0skEn0IaXV1Nd5//33U1tZK697PoRzAQ7ZZPB6X1gTVL5KEGwgEJL3maVZHLtCcq/6V35/vYaROojMVLz09XSrJHR0dQnSmO2Bnv9PphNVqhd1uR3p6ulRJjUYjWlpa5LsEAgHhaKqEYgJS6enpss7DKZrWx3DPzc3FO++8g+XLl0uhDwBMmqaht7cXgUAAAH5WbVan+USjUTz77LOYO3cuMjIyJLhTm615Q1arFQ0NDTh16hQyMzPx3HPPCS2RpBgCQAAQDAah67psEK/NuOHmzZs4deoUSkpK8M4778ggFipZWloajEYjurq6oGka2tvbcebMGfj9fgBAS0sLysvL8fzzz4vi+f1+JBIJ2O32pIC4rq4OFRUV6OzsHHa3wr0Oh8PCKlNBMBOh8HA4nERJU184VMIFC4fDCAaDKCoqwpo1a6RyyIAQ6Dv9VGCHw4GzZ8/i22+/RVlZGbZt25YU+dONqGQldUFUd6PrOrKzs1FfXy9NzerhUElMtAY1NTVobm7GpUuXYDQaUVRUhLVr12LVqlVJfcDqZ/B+L1y4gCtXrqC3t1dmqw+X0NUyu0pNZbVYLJY4fvw43n//ffT29spQFGrVUFsR1X2oKKzf70d3d7csrK7ryM3NhcPhSCoU0T+azWb4fD60trbK5pvNZmRlZclnM0Dt7OwUkq7ZbJaMhf26XLDu7u4kF0PwyGQyISMjQ2iRHR0d8Hg8YonU2pPZbEZ6ejrcbrcEvhylybR7uMRgMKC3txcWiwXvvvsu1q5dm4SQmtQGGua5xBiAoU1lWdOhMtjtdhiNRnR0dMDlcmHLli0oKipCItE3ruD27ds4efIkvF6vbCRBHp/Ph9LSUmzZsgUul0vISGfOnEFlZSUyMjLQ1dWFjIwM/OY3v8Ho0aMRCASkN/fMmTO4ceMGTCYTAoEAJkyYgJ07d8p4a7Xn1W634+7duzhz5gyam5sxc+ZMLFiwIIllRcW1WCyoq6vDyZMnEQgEYLVaZSj/cMcdtIbEj1LrZcM6ITU9PR1+vx+RSAQZGRmIRCJyWktLS7F27VqMHz8eAORUVldXS/U4EAggPT0dkUgEwWAQkydPxubNm5NAJ13Xce/ePbS2tsLhcGDhwoVYuXIlioqKJPt58OABrl69KgtjtVoxc+ZMrF27Fi6XK+k7E38pLS1FR0cH4vE4Vq5ciRdffFGyFLoKm82GUCiE48ePo6qqSghSnL+eSqMcaaLF4/HE8ePHsWfPHnR2dkrKmJrKDYXwaQdknzEt1HUdXV1d8Hq9SfO9srKy4HQ6xa1QSaxWKzRNQ0tLCzweD2w2W9I1aMrJdVVZ2DabDaNGjUpqR2QwSi4Eg2IGyAx0GbAy/Q+FQoKk8u8ZGRnylAbeixrvDGdAqmmaWLO3334b69evHzmWg4sFQCgDanq1fft2jBkzBuFwGHa7Hbdu3cLZs2flZDIG8Pv9iMVimDlzJubNmwen04lYLCZxEyF5xg9sRB49ejSCwSCOHj2K6upqiVXi8TiKi4sxd+5cpKeny4ZTWZxOJ0wmE2pqatDT04OCggK43W6xCGrDkMPhQE1NDc6dOwefzwfgYZbAa41UGVbl4GO2QqGQVHvpZoqKirBo0SJMnDgRACRora6uFohdjQH4yItNmzYl4RvMvGgNCWZRQY4fP47m5mbBTdgbMn36dOzYsUMQXPU9HEbHeV6q66GrycnJEYWKRqO4cuWK9JyotamRXLwcVrfC2gnQZ/7ZeU44nYsJQB6iwzENalaQlpYmWUgwGEyqC6kYCZ/TZrFYJI20WCzIzs4WIm5aWpoQY9SGIbXwRqieBT4OZMnOzkYkEoHP5xML6HK5kJaWJiOfUimWw6kcI9qtsOBmNBrhdDqlR8bn8yEjIwPr1q1DZmYmotEonE4n7t69iytXrsBoNEoQarVa0dnZiXA4jNLSUjz33HOw2WxSnmatKCl///PmmM1mXLp0CTU1NcjIyIDf75f35eXloby8HJmZmXJYrl+/LoGvOumPQ+6bmprQ2NiIgoICafSyWCxobGxEdXW1KE1qdXikyrAqByuB1GCadYPBgGnTpuGll17C+PHjZWMrKipQV1eHhoYGmWRMWNtisWDevHl46623ftAnqppwFZDSdR1LlizBH//4R3z33XfSuBWNRjFv3jz85je/kVQ7Ho9j9+7d6OjowKZNm6RIpZbrP/74Y3g8HqxcuRLTp08H0KeIp06dwt27dyXAVofyjmQZVrdCXgTNK10LAa1QKCTKw647mnF181n+ZpedilC63W6pkjIo9Xq9Ml2YfA6LxSJxTyKRgMfjkcCRFoCZFacPEfuwWq1IT08XYhQVRn0fp/cwuGY8kopE/5w0zBHtVlSYXtM0OJ1ORCIR9PT0IDs7G6tWrUJmZib8fj8yMzNx7949VFVVIS0tTfpHTSaTbHZJSQnKyspkM8xmMy5fvoxr167BbDbD6/UiJycHq1evRlZWFsLhMFwuFzweD65evYqmpiaZpFNcXIyFCxcmbVJtbS2uXbuGwsJCzJo1S5TSYOh7xMeVK1fgcrkwdepUjBo1SlxXfX09KisrYTQakZGRgfb2dqnZqNmKWkti9jaUjwQZTIbdrRAOZ78nA8iSkhK8/PLLKC0tBdCnSKdPn0ZzczPu378vmUc0GkV6ejpCoRBmzJiBHTt2yCllqf/evXtIJBLIyMjArFmzsGnTJmm3YKOW1+tFXV2dpKPz5s3D9u3bhWkWiUSwb98+3Lx5E2PHjsXq1asxatQoAH2D3j7//HNUVFSgpKQEr776KiZNmgSgz+2cP38ebW1tuHfvHjRNg9vtloCXVpqDcVLZZcMpw+pWGGNw6EhnZ6cQjpi6ZmVlwWw2IxKJwOv1oqOjA5qmIT8/H1lZWWhra0N7e7vMrWAjN++jvb0dfr9fmoxNJhPcbrdsBE9zPB5Hd3e3VHBtNhvcbjei0ajA7ITSVRIRU1xOQKSbVCcIRqNR+Hw+mM1muN1uwV3UTErtX6W7Si3g/dQyot0KeQ4A0N3djdGjR+Oll16C0+mUE9vb2yvjJ/n4CqfTiYaGBpw9exYzZ87E7NmzZUEBCFM+Ho/LIz51XYfL5YLdbpeshNanp6cHVVVVKC4uxvTp06UoxhiIA+yvX78uGUtxcTGeffZZZGdn48GDB7h06RKam5sxZswYzJo1C06nU0A1bnRmZiba2toEyCOHhAEvq8ipvN3hkhERc5CnOX/+fOzatUsWhpE9ACm7RyIRxGIxVFVVoaamBuXl5XjzzTeTyvVMEWn9eDrVyTYqs+z48eO4ePEipk2bhq1bt8r1uLn8nvv378f9+/cRDAaRlZWFVatWYfz48fjss89w9uxZGI1GjB8/Xtwhr8+f4XAYV69eRXNzMy5fvizZi/qwYv4+EpRjWN0KAKlHcChMKBRCenq6ZAR2u10G2BJTYFZB19Dc3AyHwwG73Q6fzydxDDEUwuZceLK7HA4HnE6nWJFAIIBIJCInmnT+RCKB9PR02TBWifl3gnXkZKYyx1VlJCfEaDQiKysLRqMR3d3dQkjmZ/4cNZcR7Va4aQaDAe3t7SgoKMDMmTNhNBqTZpWqU2joinw+H77//nuZrMcqJwtowMNhaLQc3ACTyYS8vDx4vV5hdMViMRQXF6OkpCQprmAJPhQKob6+Hi0tLVI9Hj9+PDIyMoQ1HwqFkJmZiUmTJiEzM1NwHCqqy+VCd3c3Ll26hIKCAixbtgyBQACXLl1CY2OjKBUt1lATvAeTYVUOmk+WsefOnYs33nhDJhynvpZuIBaL4cqVK/D5fJgyZQq2b9+epAipbCwuME9jKBRCXV0dDh48KIGi0WjE8uXLsXXr1qTCmUoo2rt3L/bt2yfXyczMFOUA+tzWmDFj8Prrr6OsrCwJKufnXbp0CR0dHcI15chOXkslRA+3WxlW5WDKyVjh7NmzuHnzpsQNKnuLiCYApKWlobu7G+3t7WhpaZExEUwHWdBjl7mKFTCTYDsBU9dYLIZDhw7h3LlzwtkAIEU2ckh5qm02G27fvi2pJwfcNzU14be//a1cT3UTtECtra3QNA0+nw+6rsPv9wtRiLREvnc4S/ojIiA1GAxwu90IBAKora0Vk6rGPgwMGRMQ5Ort7cWDBw/AhnAW3lRAiYwsWiO6FuAh0djpdKKzsxP19fVJ3XJqF5vT6YTT6RTOJd2Y3W4Xrkg8HhcXoZbwiQCTfR6NRtHd3S2Kpz4smRbj54o9HiXDnsryJ+MKVli5ganldtYlqDzkiRJjoGKpw1oBSFVVHdyqtmXy2jabLcml8fUMbtV4hrEMYxbGSGxXoBXj6/ld2G9M4pGKhKqFuZ8DQh9Iht2tsETPZm2Hw5FEmKESMEhUUzzGFfF4PKnkzk2nKQce9uSqhGVuJCfycbPIHgMe8iz5PYl9MPvgpjocDvkurLgynuBGq32r/VWMqbT8nOEmAg17tqJS99RBdDytPI0UlT7PFklN0+TEp5ph9bUA5FQTyeQ1GP+oyqBWcvnv6tOX+P9UYL5OjTHUOVuprDfV2qiW4nGa1H8OGVblUKf+82TyJKkmlRgCF02NVbhhfGwo01WW2mkt1JoFLZG6MaqFUhWC70t1A6oCqOSdVFfQX9xAy0Kao8ol5etHQsYyIlJZwtWqm6B5ZuAHPIxRVLCIm0ITzhqH+sRqvofXVE8mTTvdVqr7oFLw31WwihsMIAlxJU+VsZMaN/G7Mbth4Jz6WnU9hksGVI7UDqifWmha+7sGN1b9v1RyDDdYbTZSyTc8heq8j9T5I+Sh8r3q+AYVeFPbKWlRUrEUftdUAjHBNFUx2Til3qdqkdTYQ/03fr4aWA+0vk9ieUZu08RjCDeGQaUaB7B5KB6PJ5GHCderp5TcEDW+SVUU/rvKI1Gxl/6EgSf7Vzj8l9xTHg4VdKNFVOtDqkVNnR4wlPJUKwcXVcUF+JPEYLPZLGV1VnR5chmzqHEMYxIAgj2wO5+Th+heBju5dEVdXV2w2+1wu90IBoNSi2FcpGYr6u+Mp9Tyv/pzqC37U60cPGVqxkPhiWb8QtMOQPpkCXapbkCNZxjrqPTAcDgs8cFgG8PPdTqd0HVdepFHjx6NcDgMv9+fpKBq/MJWSV6PikiLo4JrQyVPtXIASAokeSoJh7M5mignB6NZrVY4HA5pgSCTneTiVGYWScxut1s+i8oxkFtRwTvGK36/Hw8ePBAkV0WD1aoz54DwUeWE9InP/Bzk5KdaOdRxCgTS0tPTMX78eBnq39LSIkEvGV4OhwNer1f+LycnB7NmzcKsWbMwbdo0ZGdnS8YSiURw//59VFRUSLEvKytL0tGBrAfjHaCv2YnEnpycHCxcuBDTp08X5dV1HT09PWhoaMD169dx48YNdHR0yMAYpsypT6UYUqbekH3yzyA84Zwvous65s2bhzfffBMmkwn79u1DY2OjvI6daa2trfB6vSgqKsKKFSuwcuVKjB8/XlJi1kVMJhOCwaDwWdvb23Hw4EEcOnRIeCcDCa1Md3c3fD4fysvLsWPHDsyfPz+J0KQqWCzW9wy31tZWfPPNN/jmm2/Q09MjvT2s4/wc8lQrhwqGscJaVFSEUaNGobq6Grdu3RIuKk2y1+tFT08PFi5ciL/927/FtGnTkk4kEVQGnSyskavxd3/3d1i6dCn+93//F9XV1UIh7E+Mxr6nFRiNRrz33ntYv3690Af5/2r6y1gmOzsbWVlZmDJlChYvXiyPdufAPJXfMpRiUoEkNXjj4g8maq0CeEjnI/bA9Is/0pRHAAAfLUlEQVSBnvqobpWj0Z+k+mJ+DgtwfA2BtPz8fIwdOxZGoxH19fVJPAv2wnR0dGDDhg3YtWsXcnJyJKiLRqO4c+cOzp07h1u3bkkg6Xa7MXv2bEybNk066YqLi/GP//iP+OCDD/DNN98AQJJScdM9Hg+MRiPefvttbNmyJWmNPB4P7t69i5aWFoHw3W43JkyYgFGjRgmWMXXqVOzcuRMAcOnSJanJqCn3UMlPZjlSaYUqUSYVUVR5kgNF2yqSydoG8LBXVS29G41GFBYWYsyYMQgEAujq6oLNZhNWmcfjgc/nw+uvv46/+Zu/QXZ2tmQTlZWV+J//+R9cu3YNOTk5MmKKWcLnn3+OoqIibNu2DYsXL0YsFkN2djY2b96MYDCI8+fPIxwOIxqNIiMjQzCSWCyGJUuWYNmyZQAgcdCRI0dw7NgxtP55gqNatzEYDCguLsbWrVuxYMEChMNhjBkzBhs2bIDH48GdO3eEND3U0PoT5UGp9YBU1hN/ZwrGRzuo3IqBRP1clbBjMBhksqBa5SwpKcHo0aPR2tqKhoYGmfEB9AWH8+fPx6ZNm6TEDwB79+7Fv/zLv6C3txclJSXSmuB2u+FwOISxfvPmTfz7v/87du/eLV3+hYWFWLNmDZ555hlhuhO5DIfDyMzMxNy5c8VCtbW14fe//z3++Mc/wuPxID09HRkZGTJwlyM2r1+/jn/913/F/v37pe40ZcoUzJ49WygNBNWGUn6yJDkVAgYgKSZRSBW0oo+n9XjUHzVtoyUCHg6u1TRNRjgUFBTAZDKhoaEBTU1NMBgMyMzMlMEv69atQ3FxsfjsAwcOYP/+/eICeErJUVXhfTZG7927F1999ZWgo2VlZVixYgUyMzNlAgDf53K5kJOTI2DcxYsXcfv2bWlqIo5CnION1tnZ2TI3pKqqSuo0xcXFcDqd4q6GPOZ40g+gQqS6FXIkCOSkPhNOrWQ+SjiGWq1Squ9jXSQcDqOkpETmh7W0tKCjowMA0NXVhd7eXsyfPx8zZszou2mTCWfOnMGxY8dkMpDVapXHgdPC0QLEYjE4HA5kZGTA4/Hg008/RXZ2NlasWAGDwYA5c+bg6tWrOHv2rCCwiURCLAI3PxwOo7W1FdFoVAbIcUKimh0ZDH1DX5qamlBbW4uZM2cCAMaOHYsxY8agsbExqTo8VPJEyqGSblKVIxKJQNM0FBUVISsrSyJxBloqS+pRYjQa0dzcLBG/WuxiesqYhi6FaSDbGgKBAEaNGoXy8nIBvgKBACorK9Hc3CwjopgesltO13Wpw7hcLvh8Pul8CwaDqK2txdy5c+F0OjFq1ChMmzYNV65cSWKuOxwOYcMzW6I7pFLY7XaEw2EEAgHYbDaZSkSrePPmTRw9ehQOhwNdXV3S4KX26QyV/GQBqaooQN9iT5o0CTt37sSMGTOSCC0qO3wgzW9pacGePXvQ09OTRBrmddhXkp6ejgkTJsDlcqG6uhr19fUSp/j9fpSWlmLChAkCHF28eBH37t2TDCMajSIYDApNkD0ybNgOhULIysoS9NXr9eLy5ctYuHChWKPS0lJMnDgR165dE3fKQS60cFOnTkVWVpYEviQqcegdEVo1xb106RIuXrwIAEmTjH6O1oUnUrv+LAclFovB7/fLSaKPVel/asbS35+MjAxYLBb4fD7Jckgsps8lGJWfnw9N09DQ0IDm5mbpN7HZbMjJyUFmZqZA4V1dXWhtbZVgFugb1QAAPT09EgQS52DjETOK9PR0BINB3L59W2KSzMxMZGdnS/HObrejrq4ONTU1YuFKS0vxz//8z3jllVcQCARk1mpzc7NMHKJFpHVMS0uThi2O0GQhcajF1N8mPW7Hm1pBBJCUtnJjaGJVMoz6ueRKAEg6DZqmoa2tDZFIBE6nUxaLXE910OuECRMwduxYeDwetLe3i6UhqDVmzBgZmR0KhdDd3S1QtmrpgIeVWNUNqix0Ugs7OjpkLKbRaEROTg5yc3Nlg+PxODweD86cOYPS0lKUlZUhFouhoKAA//RP/4SdO3eisrIS58+fl4nI5HekpaXJUDreJ2sqsVhMFISEpKGSQck+g0mq9WCQROXgQnHxme6xEMbTAfzw2bbXrl3DhQsXZLhKIpGQxeegFJvNhoKCAmRmZqKlpQUNDQ1y+hj3sJDFFJCZCIO6xxW1OhoOh+Hz+aQh2mKxyIaq45xu376NL7/8Ena7HRMnTpR4Ijc3F6tXr8bq1auh632jNW/cuIGLFy+iuroajY2NMhUgMzNTpgSwWEj38iSjowbb30HVbrAPUNlL6mstFgtqa2vxH//xH2KiaQqtVquAVDt27MCqVasE4ib/88svv8T777+Prq4uuFwuSQ+JwKqo6IQJE2C323Hv3j3U1dWJWaapZmwBQEYqMJgbjOGt3pvKaOfsMhJ4NE2TAhkRT452OHbsGK5fv45XXnkFy5cvl15gfifOIMvLy8PSpUvh8XhQX1+PS5cuoaKiAg0NDejt7YXb7UZ2dja6urqS5pkMlTyR5Ug9dVxAFpQ4sa+np0dmZ/CxFaFQCNu3b8eLL74oARZP1fnz53H48GH4/X5pYKZZZUDLKmVhYSHGjh2LRCKBtrY2cSmpaZ7K71CR18e9R15XZWvxuTT9daip5XyHw4H29nb893//Nz7//HMsX74cc+fORWFhYZLVJF0gPT0dZWVlKCsrw4YNG/Dpp5/is88+Q29vr0xPTEtLG/K44yfDOVJF1WgWiwBIvWXZsmVYt26d9Jlwil9XVxdOnjyJuro6ST1J5uGmGAwGYWIVFRUhNzcXnZ2daG5uFro/FTQ1I+JpU8cxDCSpSsSfBoMB5j9bKLVUoGZiKj/VYDDA5XLB6/Xi//7v/7B3717k5+cjLy8PZWVlmD59OgoLCwUaZ6DrdDrxxhtvYNKkSfj973+PhoYG6athfDRUMqByDOaP1YVL/V2ls3Eso67raGlpwYQJE2ToPZFT1kEOHz6Mr7/+Gi6XK4nYq7YZsA3B6XSiuLhYHuvV3NwMAOKeiM7SzDP95cA2tSXgUZJ6b8DDoTNOlyuJJcZN4+tMJpN0w6n0RLfbDV3X0draiqamJlRUVMBsNmP06NEoKyvDokWLUFZWJl17JpMJM2fORG9vr4zK4BjwYaUJDqQgA9VUaIIJ+Oi6Do/HA6fTiddeew2zZs2S6JwPrNm7dy9OnDiBvLw8SV9VZjiFrqGwsFBQ0cbGRrS0tCR9P03TEIlE0NXVhUAgIGlhdna2kJIfJyBVrQXQpxxmsxnZ2dlS62Cxj5aLCsp4ic3S6iPCAUjvLN3iJ598gqNHjyIvLw9r1qzBmjVrxCUvXrwY9fX1+OKLL2QNngRCf6KA9HHgWTVYUy+ossEZkMZiMWzZsgWrVq2SAbNc2MrKSpw7dw7d3d1Jp1H9HD4mg2DY6NGjkZubC13XJbVUy9k8zVQOp9Mps74Idj1Oqk5hAEt34XK55GFCvb296Orqkgf98gFDbNPMyckRN8mYiUE2IXOn0ylD9D0eD/7whz+gpaUFO3fulDR/1KhRErv9pdnWXyom9eSnuga1ZvIoUZt3VE2m32URq6urC+vXr8e6deuEEU6X0dbWhpMnT+LGjRtyElnzoCkm8MMNstvtKCoqQk5ODu7cuYP6+noBxtTAWNM01NfX4+7du8jJyYGu6xg1ahTy8vKE8Mu4gSm22nKgNk+zS97v9yMvLw+lpaUSSLOeQ8XNysrCihUrMH36dBiNRnz77bc4ceJEUtuEynNRU37SGTVNw4ULFzBr1iwsXboUAJCbm4usrCzcv3//iR8DpsZLqfUxTfvz48pTayP9pab9CReSpl+d9gv0+cpAIIDu7m688MILeOONN6TOQrzA5/Ph6NGjuHz5ssDIBILULIDX0DRN5pKOGzcOmqahqakJDQ0N8p3U2RpWqxUdHR1ob28XCzR9+nRMmTJFlIHPOKOyqu6Gm0UX2d7ejng8jgULFmDChAmisHfu3MGdO3fgdrtl3UpKSjBjxgyUlZWhvLwc6enpwjpXYzG1pED0l6mq3+9HS0uLBOJcg5+C5NPfXjOoBtCnHP0pyGBEHODhw/jUrjBG2Vzknp4emdv5zDPPSC2D5vn06dM4c+aMPLSPj8by+/1ihXi6iIjquo5nnnkGEydOFF/d2dmZ1PfKk2i1WhEIBHD+/HnU19fLgsyfPx9TpkyRmVhpaWkCrHHh1TZFfr9YLIaysjIsXrxY4PT6+npUVVUlTU+mtaQbGT16NPLy8iSO4pqxf0XtjuNBI+GIIy8J4NF1/RQYB9eDFlrFfUxqZgEgycwMJmpfhUrXZ89Fe3s7srKy8Pbbb+P5558XheKJ+eKLL/Db3/4WdXV1MkdURVhZweQC8macTieKiorgdrvR2dkpLHIqkzpKmkWwGzduoLq6GuPHj5ei4Jo1a9DZ2Ym2trakqX7kZTDdpZK1tLTA7XZj48aNopixWAynTp3C9evXZQIzs5SqqirMmzcPhYWFKCwsxKJFi1BXV4e2tjZkZWUlBa79WRAAmDRpEqZOnSrxltfrhcfjSRpL+WMl1Vukxo0SkKZaELW+8ihRo27yH3i6u7u7oes6XnzxRSxcuDDJp2qaJsPUNm/enLQgXq8XLpcLLpcLnZ2dqKqqEi4oAHi9XowaNUraD6qqqnDr1i1J6/q7D1ZIT5w4gYKCAsyZMwexWAwvvPACTCYT/vM//xONjY0SNKqniaa9rq4OEydOxD/8wz9gwYIFwks9d+4cLly4kITjAH2o5/3793Ht2jXpd1mzZg0A4He/+x2amprk36lQnATU3t6Ozs5OzJkzBxs3bhRKo9/vR1NTEzwejyjzYAjv4yqHuqcMDUypjTV84eO026U2FfOU0eevWbMGmzZtkiidASMbfFasWCHXIOdBTVu9Xi9CoZC0F7CmkZOTg8LCQmiahgcPHqClpUU+kzM/TApARbd069Yt7N69G5FIBHPnzoWmaViyZAkmT54sKOSdO3ek5ZGKnJ+fj/feew/r1q2Th+xYLBZcuXIFH330ER48eCAKyB4Uq9WK9vZ2nD59GiUlJSgsLEQwGMTq1asxe/ZsfPXVV/jyyy8l/Q4Gg/D5fLDZbCgvL8eqVauwYMECFBQUSEZUUVGBixcvijWku/uxoloqrpcqJgBSBicU/LiZCmMMvo+nPxaLYdy4cViyZAlGjRqV1HpIdBOAbAKVQ9VaEpJ9Pl8SjO50OjF+/Hjk5ubC4/FI5ZaRO99PRad107S+FoVbt27h4MGDsNlsmD59utQ1du3ahTfffBN37txBbW0tdL3vKQ3FxcWYMGGCKCcX9cKFC9izZ4+0P/De1e53TdPw7bffwmKx4K233kJRURFisRhyc3Px1ltvYfv27fB4POjo6BA+CZ9jpz4LNxKJ4OrVqzh58iRaW1tldAOR4x8rKrO/v+mNJgZcLHFzsx7Hn6mLrrK7eKOZmZlJ3ATgIXpJn8qfqeMT+DMtLU2akWhOmcLW1NTg3r17YrFondRHcqoFOKBPoauqqtDa2ootW7Zg6dKl8sRpo9GI8vJyoeXx9WpdR9d1fPXVV/jggw/Q29ubNGNDtYwA5Hm13377LQKBAHbs2IFnn302qUcmNzcXubm5STAC4x0q+7lz57Bnzx40NDTI93ichGEwUe9NjXsk5tB1XXLnuro60Xrm+oN9Af4/f3IYq67ruHXrVtIJSBXVjfUnHR0d6OjokEwhkUhg7NixGDduHBKJBOrr69HV1SV4CK2EquCqFWK9xWTqewzHf/3Xf+Hzzz/HunXrsGjRImRlZUlPKi0p0GdZe3p6cOHCBRw5ckTGYTLDUQNI4OGQGSqo1WrF9evX8W//9m+YOXMmnn/+eUyZMkWUSHXNtASRSASXL1/G4cOHUVtbK72/ajykHrpHra+KoZBOQIvDSnhubi7GjBkjSYUEu4lEItHd3Y29e/fiyJEj/X7oQIqhIpk0perkXj7vvT8ZLCPiYpCyx/fwefVUAPWhPSrDPTXgUrMw/j/BNYfDgaKiIkycOBFZWVmysT09Pbh+/ToaGxslCFWvM9DhUdcnGAwmTfSx2WwYM2YMxo0bh4yMDAmEWa6/e/cuAoGAxFBpaWlJDWGpytSfqGUNHhpad0ICHR0dWLZsGd577z3k5+fL+3Rdh4kXLiwslNxaLZEPJKknn9rJAMpk6nus96NkMOVQ02MVQ/B6vWLd1Ok4qSl4f7/zdVQsdrPHYjHU1tbi+++/l9eqHWrst1HT9sHuQUV1OWedrK5wOIza2lpUV1eL5WCpgUpAvENlwgOQNR7s+qmHlv9GVJvFy0mTJgnFkYYhkUjAxA0dN24c8vLycPPmzR8MOBno4qp5oy8lLqFmLv3JYMqhugJ1M9TaCRFDLoSqUFSC1OuoC6XiO9wIxg1cA15X5XOoTPpHiTrmkq8l4sq4i2CWmjnwftS/qwG76joH2h++hodG7Rm22Wzo7u5GUVERpk6dmuQBJH6kBpaUlGDWrFm4ffu21DUGq1qqloVfQkVIuaiPksECXvVZKYwb1OCQvl49ealI70DXZhCuPkacuIPP5xMl4cOG2bWXSCTkAcIDxVTq+nET1bZHpu+p66giwowPeK/8dyrqQMJAM/XQMEvUdR1TpkxBcXGxrJvKITbxjUztLl68iJs3bz7W/Aduglp76O9UPkoex3KorCuebvW9KrJHhUyNPdTvmvq7Op+LNRYAYvnC4bDUjHjyNU2TGGEgy8HFfhQ4x0xPVWa1Es01VYNQlWrJdX6UqBkIvz+/c0tLC8aNG4elS5ciMzMTwEM3KqRw9eZKSkqwYsUKdHd3o6urq19gRBWVekdzr57q1I1IlcFg+tTF5bVSaXnqwqvKwmukxhn8bH5XbjgtA2MFleXO+1OzssHuj69VDwrviSeaSsDPVnEaNdXkvfKP6oYGEjVzU4Nsp9OJNWvWoLy8POmgqT8NrHbGYjHY7XYsWLAAzz77rNRMBhMVs2AaSJPFG/ixf+imuECMYVTOhro4VBx1Prp6s/0tXOrIa7Zu8vNSrSJTwb8EtuZ34WGjMquYiFrHUfEjduCprlONDwYTKga/M1HmWbNmYcWKFcLS5+eSKxIKhfqe1MQb5QUbGxuxe/dunD17VuaTq5kBo3tulBqUktTDnpWforT8Y+VxgLyBZDDLNtyiuk/GT1Rm9d55uILBILq7uzFz5kzs2rULM2bMGPD+xK0IKmYyobi4GNu2bUM4HMaFCxdk8xkg9vT0CBeTloLlZz7eilHxrzJ0wsNJ10d0mFkjLanB0Pc4j46ODkyePBlvv/02pk+fPqhb0nRdT9A30mzR7zU3N+OTTz7BF198gUQiIU2+rCGwpqGaRp62n2s00UDyS7ccLDSyXYENT8RHEok+amVXVxeam5vx4osv4u///u8xceJEcSUqspsqWiQSSagkGWILDGDC4TDOnz+PP/3pT6ivrxfmNCuQajAKJD/fZDCEdajll64cXHfuE3tpPR4PgD4IvqGhAZmZmXjnnXewYcMGmSqgPtPlUaLF4/GEmgfTaqjwsqZp6OrqwocffoiPP/4YmqYhKytLLIZaTON7+Jz2gTRzqOWvQTkYuLKCzWfWcGLi8uXLsXPnTkycOFECeTXjGUi0RCKR6A+rV1M/tcReU1ODDz74AKdPn4au6zL+0GAwyBOI+HdaoeGSX7py0DJHIhE4HA7YbDbU1dWhtbUVc+fOxVtvvYVFixbB6XQCeJi10boTQ3nk54fD4YSaP6t/1OJSIvHwefOxWAwVFRX46KOPcOvWLdhsNnmiI8csqNjCcMlfg3KwcaulpQU9PT2YNGkS1q9fj+XLlyM/Pz+pPUQNUFPxqH4/X9d1uXs1d1aLNakQMF1NZ2cnjhw5gs8++wytra1IT08XboeqZMMlfw3KEQwG0dHRAYfDgRdffBGbNm1CaWmpYFepgOSjipT9fr6qHD/my2mahrq6Onz88cc4evQoQqGQdJQxIlbjGOAhspqK+gHJZNfhVq6hFhVgU4uU6iFk0KnWq2jRHzx4gFgshhUrVmDbtm0oKyuTz2EW+STK/cTKocLaNTU1+PDDD3Hy5Enp8kptFGJ9hO6HabGKiaTC3L9U6Y+sQxggGo0mPYpMjQe7u7vR3d2NWbNmYcuWLZg9e7YMoKMiqfNNf6w8kXKopol1gd7eXpw9exZ79+7F3bt3hWFNGl08HpfnjbC7TQXM+Dm/ZKVQpT8ryTVVGe18KsT9+/dRUFCAbdu2YdmyZcjPz5e2BdVKPG5GMpD8JG4FSK5DxONxdHZ24tChQ/j000/R09OD9PR0OBwOWQgqhNphptZMaDp/yUqiVkG5bupBYcU4Go1Ku+eWLVvw+uuvo7CwUOgEtDJ8rQohDKtycNQ0p9qkxhO3bt3Chx9+iBMnTiAej8PlcsnrSQRWgbLUyupP0dU1UkWFC9TiHN1COBxGV1cX/H4/lixZgl27dmHSpEkAkIQp8X3qmlFJhtWtMAJmux45kvF4XP5usVhw+fJl/OEPf8CVK1ek250anlq9pfw1uBfVrRAyCIVC8Pv98Pl8mDp1Kt555x0899xzspaEDFSLoQavqZ/3Y+WJlAN4OA2QvEY1l2Y6xXjD5/Ph2LFjOHDgAFpaWoSSpyKzqvb/kq0G8JDnQRpkIBBAT08PACAzMxOvvvoq1q9fLxgSgUUg+VGo6pqpXJTBQK7B5CexHCqRhBtKkwc8LBBxIe7du4dPPvkEJ06ckN4PjhxIZUz9tUgkEkF3dzc0TcOCBQuwY8cOlJeXA3jYusC4jBvOuor678xqVEvyY+WJLceTyI0bN/CnP/0JJ0+ehKb1DSZh9qKSY9RIPDUiH05JZXcxDaUloFUllkHOKK0ig89AIIBQKISpU6fijTfewKJFi+TzhrU2NZzKwX6Oq1evYv/+/aisrITNZkNmZqY8Xy2VqqgOaFEH3A7X9wd++Dza1LYJ/q5pWtJsVp/Ph87OTmRnZ+O1117D+vXrkZOTA7/fj0Sib3b6sCLMw6kcvPFoNIqmpiYcP34chw4dQlNTE/Ly8qTPA0h+zJUK8gxnXPIo5eB9qZRA9vKQKdfe3g6Xy4WNGzdi06ZNKCoqSnq+3JNiFD+FDKtyqORfbvy9e/ewf/9+fPHFF4jFYjLolXRF+l/1M0aKpJKbVfdBheFkoKVLl+LNN9+U3lmmncw2RkL5YFiVA4AsHMdHAn2g0PXr17Fnzx4ZOaC6FxUPGE4yEYXKnVrkUqWnpwd+vx/Tpk3D9u3bsXDhQiHeqAqhpu/Drfgjwq2oEbe6qKFQCKdOncKePXtQX1+PnJwc2Gw2BAIBCQJHAk9VVYzUbvXe3l60tbVhzJgx2LlzJ15++eUfPFNFbU1QkeYnxSmeVIbdrahKEQwGAUCIy0BfGtzS0oJPP/0UBw8eRG9vL/Ly8iQ9Hk6zq2Yrao2JAFVXV5eMiVq7dq1MB0jtte2vMp16jeGQYbccdA1qcKk2GRErMZlMuHPnDvbu3Ytjx45B0zQZ7jpcoiq36lq8Xi8CgQCWLFmCN954A6WlpeJCVGWmxVRbR/ur0g6XDHvMMZCk4hscc3Tp0iXs2bMHVVVVMiQGgIw4UFnZan8pzbcaAKbiKI/ilaRyKfrrYmOn4LRp07Br1y4sWrRoWNn3TyojXjn4k5vLjKWnpwfHjx/HwYMHUV9fj/T0dGRmZkrHGiN/dnpxhDanBfPv6vNKVJYUuSYE5VSlUscuGQx9YyXb29sxevRobNu2DWvXrk2at/q0yohXDpXkohKHCB3fv38fhw4dwtGjR+H1epGVlSVURY47IJgUCoVgMpngcDik5U+tUai9rexjVS0PxyX4fD5hWbW2tsLhcGDNmjXYvHmzjLJUkdKnVUa0cgD9c0Zo0pnixuNxXLt2Dbt370ZFRQWsVqsMmFO5I2phkHPLg8HgD/y6WiU2Go3Scc/HflitVrS1taG3txdz587Fjh07MHv2bLEu6nyP4U5Hn0RGtHKoqS7TO+IbQN8mRiIReVCfrus4c+YM9u7dK6z49PR0GI1GwVDIIWF8QuVSsw0VmOPgek4p6urqQnt7OyZPnoydO3diyZIl0oJIa6E2Jw9nbeRJZUQrh8oXUbEDbhpnXDE2YAzQ09ODL774AgcPHkRnZyfy8vKQlpYGv98v8zaAh0ysVKojr8FU2W63w+PxoKmpCTk5OXj99dfx6quvIi8vT97XXzX5V8sxhMKAVB3jlLoBDAwByDQAYiT19fXYu3cvDh8+jGg0iqKiIlgsFhliR6pBKmWf8QYtTktLC5xOJ15++WVs3boVJSUlYhnoPqhYalw03CDWk8qIVg51s9RGnP6gZrUErgaC0WgU165dw759+3Dq1Cl5VDhpduqkY74+GAzKo8stFguWLl2KLVu2oLy8XFLfgbAJlfr3VCtHLBZ7er/9IKJmNoFAAHfu3MGFCxdw/vx51NbWore3N2nQDNBnpTIzM1FYWIgFCxZgxYoVeOaZZ4ThrcrTnKY+jmjxePwXqxxqIEvXxGA0HA6jpaUFTU1N0vTtcDiQlZWF/Px85OTkyOcw2GVqrabYv2QF+UUrB0XluabyLlTuqlr8UgejqO9XWd6/ZMUAfuFuRfX3qaOQVHRUpQKkVorVohoVK5Xk+0uV/w9y8QpXtZTImgAAAABJRU5ErkJggg==;" parent="1" vertex="1">
          <mxGeometry x="-530" y="330.00000000000006" width="91.84" height="100" as="geometry" />
        </mxCell>
        <mxCell id="UM05papVInRiucUio6Ng-32" value="IBM DB2" style="image;aspect=fixed;perimeter=ellipsePerimeter;html=1;align=center;shadow=0;dashed=0;spacingTop=3;image=img/lib/active_directory/databases.svg;" parent="1" vertex="1">
          <mxGeometry x="-360.00000000000006" y="320.98" width="96.94" height="95" as="geometry" />
        </mxCell>
        <mxCell id="UM05papVInRiucUio6Ng-51" value="Kafka Connector&#xa;IBM" style="shape=image;verticalLabelPosition=bottom;labelBackgroundColor=default;verticalAlign=top;aspect=fixed;imageAspect=0;image=data:image/png,iVBORw0KGgoAAAANSUhEUgAAADYAAABOCAYAAABrNOVxAAAABHNCSVQICAgIfAhkiAAAABl0RVh0U29mdHdhcmUAZ25vbWUtc2NyZWVuc2hvdO8Dvz4AAAAmdEVYdENyZWF0aW9uIFRpbWUAZG9tIDIxIGFiciAyMDI0IDEzOjA4OjQ4OuoZyQAAE4ZJREFUeJztW2uIXGf9fs5tzmVmZ7K3ZjdJdZO4sUm2xoAhpLQhpjUBI00V22q9IH4wIKsfikKDGKMiWmwFpYgiUugXCQilWNQGXLNUtKYtVm20VG2UtJtss7fZmTlnzvX5f0h/P+e0SVwTYvGPLyx7O5f3d3t+z/u87xh5nhP/D4f5Zk/gWo3/GfbfNv5n2H/b+J9h/23j/61h9kou6na7cBwHpmkiTVN4ngcAeOqpp/Doo4/iqaeegm3baDab2Lt3L+644w7cdNNNSJIEjuMgSRIAgGmasCwLJGFZFtI0hW3bIK8BR8jznP/qK4oiZllGkmy1Wjx9+jRvueUWmqZJ0zTp+z4B0LZt1mo1AuCmTZv45z//mSSZZRmXlpYoIwxDhmGoz1zJHP7drxUZRpLz8/NsNps8efIkXdclAPq+z0qlQs/zGAQB6/U6TdNko9EgAALgsWPH1Bh5FkkmSUKSXF5eviaGGSvhinEcw/d9LC8vo9FooNFooN1uAwAsy0KlUkG73YZhGDAMAyQxODiIOI7RarUwPT2N3bt3I4oiFEWBarWKNE3hOA7iOIbjOG9OKna7XZLkli1bCICWZdFxnFJkarWapmZvegZBwBtuuIHz8/PsHZKKSZJck4itCBVd18VPf/pT/OlPf8KaNWuQ5zlIot1uY3JyErOzs5idncXCwgImJyfheR6iKEKlUoFpmnjhhRfw61//Gnmeo9PpIEkS/d81idZKI9Zut/mJT3xCa8txHALgkSNHmCSJgkAURSTJBx54gAC4atUqjegdd9zBdrut0RfQ6Ha7by54jI+P0zAMTbGhoSGeP3+eWZYxyzIuLy8rAuZ5zrVr1xIA6/U6Pc8jAKZpSpLsdrvsdrv6+5uWigAwNzcH0zQRRREAYNu2bRgaGkKe57AsS6+L4xhpmuLWW28FAGRZhm63C9M0ce7cOQCAbduwLEvvM01T783zHKZpoigKFEUB0zRhmiYMw9Cf5fokSfTn148VGSZIZlkWqtUqACAMQ3Q6HVQqFURRhFqthiRJUBQFXNdFu92G67rIsgwA4HkerrvuOp2QbdswDANhGCLLMkRRBM/z4DgOWq0WDMOAbdvodrtqdKvV0vvlmcvLyxef9EpTce/evYqIeK1uWq0Wm80mSXJpaUnrJwxDTb96vU7DMDg6Oqqp11uTWZax0+mQJNM01TqVHtd7XS9CF0WhSHtVqbh582b1Uq1WAwDcfPPN6OvrQxRFaDQaAIA0TXH77bcjjmMMDw+rR/fv3680SiiUpDFJRFEE27bheR7SNAUA9PX16TslLUmi0+nAMAwMDAxcmo6tNGJ/+9vfaBgGAbBarWqPWrNmDY8ePcrp6Wl++9vf5o4dO0r9LQgCmqbJX/7ylwoccRxrJMIw1Aj9/Oc/58GDBzk+Ps6NGzdy3bp1vOGGG3j//fdzbm5O2QpJttttkmQcx1eOipJun/nMZ+g4DiuVCiuVCg3D4ODgICuVihoixvf19dGyLFYqFR46dEgnJc8U44qi4F//+ldOTEzoffIsx3Fo27by0B/84AdcXFxUZ0gKXxXcdzodxnHM97znPToBiZz0t7e97W3av6Q1rFmzRmuh0+kwSRImSaLOmpqaUocMDAyoIYODg0qohZMC4NGjR3VOJNlsNq/cMPGuTO7d7363gojv+zRNk57nKZ2SqG3fvl2NEiCI41ifNzc3p+AiKwPDMGhZlhoozhsaGtIofuc732FRFOx0OgoqVxwxQStBtkceeYSrVq1itVrVSUjKNBoNPvjggyRZQk5JR0G5m266iY7jsK+vj6ZpMggCjd673vUurl27Vp1Uq9VK75ElUZqmV2eYrKGKoiitrb773e9q6gDgfffdp/9bWFgoFXuSJOqgl19+WVlMtVrV9vDFL36xlB2/+MUvODIyogbJPYcPH776iL3yyivqHfH24uIisyzjz372M30pAD766KMKCnEcl/qUGJUkCT/1qU/RNE2tI8Mw+IUvfEGNX1xcVKf+8Y9/ZK1Wo+u6yj+DILhsxFbUx9asWYN2u41ut4uiKGBZFlatWlVaSzUaDQRBgCRJkGUZWq0WKpUKDMNAEARYWlpSSQEAXn31VRRFof2KJA4dOgTHcVAUBYIggGmaaLfbmJiYwO7duxHHMUzThG3bCMMQs7Oz2vNeP1bcoB3HQa1W05flea5/sywLnU4HYRhieHgYtm2jXq8jSRLllsLp0jSFYRhoNpsAgHa7jVarhfHxcaVclUoFlUoFWZahUqkgSRIcPHgQvu9jYWFBad2ZM2fg+/6VG5YkiTIEz/NUjHEcB8eOHSutq6amptSLWZbBdV0sLS2hXq8jTVMURQHbttHpdOB5nnLGmZkZhGGIbrerbIKkGvmrX/0KURSV+Gej0dCov2GspMaktpaWlphlGX/3u99x9+7db+COpmmyv7+fALhr1y7+5Cc/eUO/abVaJMn77rtP4Vsg/ZFHHiFJLi4uKqLKHAYGBui6bokMZFnGKIquHDxkMiT54Q9/WJHMNE1lF0EQqJGCcL7v8+DBgwom0irm5ub4vve9j6ZploQhy7J48uTJUlvpdrtKwH3fV7A5cODA5ZmHTDhNU22caZrqTcLF0jTljh07dNKO46hR0oeEDsk1gmCrV6/WCRw5ckSZizR2y7LoeZ426gMHDvDw4cO85557ODIyQsuyVAGTaJ06dUr54kUNE0/GcaxwLDAtjVWaKXp6iaScNFAhvp7n0fd9jYTQpJGREY6NjdG2bV533XWlFrF69WrNAkm1IAi0Z0k05Zo777yTc3NzmkWXjFiapkySRNc6knpi2OHDhwmAlUpF6wGvrbVs2+bg4CA3btxYIrCWZalxhmGUGIZc02g0eOedd+qzhX+KpiKsRr57nseNGzfy73//uxp1KZULwgXzPGdRFMzzvKRfvPTSS0pper/bts2JiQlOTU0xyzLOzs6SJJ955hnu3LlTr/U8T50hEQDAyclJvvjii2y32/z6179eAgXbttnX11eiUAB48803c2ZmRo0SEfaihgkplVWtRC9JEhZFwXvvvbekTIlht99+u+Z4URTqCPnbV7/6VY1Er1HXX389n3322RKxTtOUp06d4sc+9jFdFokxhmHw7W9/O48dO1aa46uvvnr5VBTaImqTgIbU3oYNGwiAw8PDatQ73vEOva7ZbLLb7TLLMp4+fVpf1ul0eNttt2md4bXlTaPRIEmdmKS9OGR+fp7PPPMMjx8/zqmpKZ47d07RUUqj3W6rkZdctvR6LUkStlotjcDMzExpLSRo9vDDD+tDkyQpqbxpmipJfvzxx/U+MQ49zPz1vS3P8xJxJi8AWbfb1ZXB+fPn1SFxHGv5XNSwOI71RkHILMs4PT2tjVcgGQBffvlljYog6cLCAvM819WtPK+vr08d47oua7UaH374YZ1Qb6RkCBHOskyd3G63lRSLIySdL0mCReoKwxC2bes+1uzsLBzHgW3bKoWZpon+/n4URQHDMOB5HrrdLur1OoqigOd5Ja2xv78faZoq7RIybRgGut0uXNdFGIYqzLTbbViWpdSNJLrdLqrVKgzDQKfTUTEpTVPkeX5RRmUCUEFSCKXoduvWrUOapkjTFJVKBcAFxejs2bMwTRO+76t+aBgGiqJQXikMv9lswvd9FEWhHHJoaAhRFMGyLCRJgiAIcPbsWQBArVZDlmUIw1CVKc/zVGsMggAkdU69Ym3JMPEmSRiGAQBKQsfGxvTCXtVWNhiazaZOZHl5WQnrwsICKpUKfv/736PZbCIMQ4yMjKh3N2/eDN/3Yds2giBAq9XC6Ogo0jTVpZA8iyTiOIZt28jzHEVRoN1uaybFcXxRwxQ8pI+R/xQ0u90uN2zYoF1flu6bNm3SepB8n5ubYxRFTNNUG/2uXbu0kQtwbN++vfQOQVd5TpZlfO655zg1NcUTJ05oPZMXRFkBJlk5X6rGIP+QYuw1irzAwqVRyp6YaZr8wAc+oPdIc+5FtA996EPqDMuylDeuXbuWTz/9tJJc8sLK+qWXXuLHP/5xBkHwhvfdeOONfOyxx9g7ZFV/SV0xSRJ9SZqm+rN48Pnnn1e4dl2XlmUpt9u8ebOy8WazySiKeOrUKW7bto2maaqWYRgGXdfV+wDwIx/5iDri/vvv13bgeR77+vo4MDCgpEBQddu2bSUkJS9DqSSkvWnYK5Hlec7JyUnlbvKy/v5+pUr9/f185zvfWZq4bCNVq9VSD/N9X7nfpk2b+MEPfrC0rvM8Tw3xPI+1Wk1LwHVdvuUtb1Gjzpw5c/lU7E29oijUI1IzJJX/ua6rLxJi2svpfN/XmpL/A+D4+DhvvPFG7Yu90ZDli1xrmmbpmfJ3ee+ePXvYO+8rXmiKkePj47QsS+Vr0eXlhZZlKXvvJb6ySUiSX/rSl/R6McCyrBJBfu9738vvfe97PHToEIeHh0sOkGt//OMfX77GVmKYcDSS/OQnP1nyYi/rF2MkGvV6nbfeemtJhyTJf/zjHzxw4IDWrqi8APj888+zKAoFpDzPFYg8z1ND77rrLs2wq4rYK6+8wjRNWRQFjx8/zrvvvrvEH2XtJaCxdetW1Tyk4Nvtttbu5z73OY28OOL73/8+Saoj5AxImqZcv359CUgAXHZ/bMWGZVlW2hgXjx45coSO42jk7r333tJJHhE0ZSwvLzMMQ+7bt69US/39/crae/UReadoLaLxB0HAF1988ZKGrUh+W15ehmVZcF0XCwsLSJJE+dq+ffuQpqluxu3fv1/PXAEX6FmSJMjzHGmaoq+vD77vo9Vq6bauZVkIggBFUSDPcxiGgfn5eQBQNrJlyxYEQaB807IsPURzsbEiw+r1OhYWFgBc4HKVSkX1vKWlJQDA8PAwSKLVaqkG2Wq1EAQBAOhmepZlSNMUo6OjAIAoipDnOWZmZvT8R7vdxurVq0ESQRDAdV2cOHECYRiqutxqtTAwMHB1hnW7XQwMDGBubk7FSvGu53nwPA+Li4sAgCAIYFkWfN9HrVbD4uIiXNdVzigGbtmyBcAFQiyOeOCBBxCGoW7U56+dIHjhhRfw7LPPAgBarRY8z0O1WsXg4ODVbdX27pLIwk/GQw89pP3NcRz+8Ic/LG2ip2nKdrut94ue8txzzymKisJlGAa/9rWvaX2S5PT0tCJhvV7XWr7nnntIXlr3+LfOUsmkSPLBBx/kjh07FIYdx9HGe/311/Nb3/qWFn+vYiuTLoqC+/bt0/4luykAuH79et52220cGxuj4zglUoDXeqT0xavqY1EUqY4XRRH379+vL3EcR42SI37VapVBEPCtb31riWCT/5T0iqLgzMxMCcJrtVppJSCZIM6TaH3jG99QR191HxNY3bx5c0nD6NUSpdHK7qNlWRwbG9MohWGoholIMz09rTxRtmn7+vrY39+v7UCi5TgO7777bvaOy+qK/+pLdjM//elPq/YhW7J4XdOs1WpKf4aHh2kYhrKE1w/ZfHj66adVnxdlufdLDP/mN7+p0Zc67nQ6Vxexs2fP0rKskmESpa985Ss8efIkH3roIW7dupW2bev6SzT+3/72tyUlTMbc3JxKf48//jjf//73c8OGDQyCgNVqlbt27eKRI0cYRVFpxSE7P/L7FRkWxzGPHj2qqScnA7Zu3arp0DukBkdHR2nbNn3f50c/+tHScSJRxpIkYRzHJWOllkXxWlxcZFEUzLKMc3NzusS6avAgye3bt5dSrlKp8Ny5c2y32yyKgt1ul2fOnGFRFAzDkCMjI6Wlx/r16zV1xPOCbIK6URTx/PnzOnFBZDF+aWlJ/9dqtfS+KzasKAqOjo5qatXrdW7atEnzvHenRnbyhb2vWrVK98EEMHqNkWf0qruv75VFUZSi1IvQl5rzio/1eZ4HwzCQ5zmiKMK6detQFAWyLINt28pIZMt2cHAQAFRGi+MY/f39SJIEJJFlmWqTRVHA93392bZt3WQvikL1RflddE2RBC82VmSY0CCSGB4eRpqmePLJJ1GpVGDbNubn51Gr1dBqtRDHMSzLwm9+8xsAF6Q83/f1tLdMuFqtIgzDa/NhgpUaBgC7du1Co9HA7OwsGo0GLMvCZz/7WQAXCLAIo7VaDV/+8pfxl7/8Bb7v60HNvXv3Is9z1QYBKLO/JmMlNZamqer40pilV01OTuqCb3FxkZ///OcVMGTXEwAfe+wxRlGkCCqLyWt1PH3Fhgkyiu4QBIHSHQAcGxujYRh6UEw2IABw586degKgF9Xk+7UwbEWflDBNE81mE91uFyMjIwAu1J1hGKhWq0iSBHEcw3VdPdgi9VOpVPDEE0/glltu0fWY6PVyqvRapOOKUdGyLAwNDeH48eMALqy7sixDp9MBAP0QgdSR53lwXRc/+tGPsGfPHtXtBREBqBOuyVhJWF+/2X769GlOTEyUDq/gNT1C/jYxMcE//OEP2pek78iQtdqlGux/JBXlc2CCZo7jIE1TnDhxAk888QSefPJJzM/Po9FoYOfOnbjrrruwZ88eABdW35frN9dqrLjGgAupIx+Sk8n27o/Ztq2SgXwooNch/8mxohqLokhPrbmui6IotJ5qtZoe/pKR57nW0Zs1Vhwx9mwMAlA5DYCelc+yTBmGDPlUxH96rNgw2bI1DAOO4yhEC5PohWxBRsuySp9F+U+O/wOnm1ik8psPxQAAAABJRU5ErkJggg==;" parent="1" vertex="1">
          <mxGeometry x="-680" y="320.98" width="69.93" height="101.01" as="geometry" />
        </mxCell>
        <mxCell id="UM05papVInRiucUio6Ng-57" value="&lt;font style=&quot;font-size: 16px;&quot;&gt;&lt;b&gt;VPN Connection&lt;/b&gt;&lt;/font&gt;" style="sketch=0;points=[[0,0,0],[0.25,0,0],[0.5,0,0],[0.75,0,0],[1,0,0],[0,1,0],[0.25,1,0],[0.5,1,0],[0.75,1,0],[1,1,0],[0,0.25,0],[0,0.5,0],[0,0.75,0],[1,0.25,0],[1,0.5,0],[1,0.75,0]];outlineConnect=0;fontColor=#232F3E;fillColor=#8C4FFF;strokeColor=#ffffff;dashed=0;verticalLabelPosition=bottom;verticalAlign=top;align=center;html=1;fontSize=12;fontStyle=0;aspect=fixed;shape=mxgraph.aws4.resourceIcon;resIcon=mxgraph.aws4.site_to_site_vpn;" parent="1" vertex="1">
          <mxGeometry x="-820" y="1420" width="78" height="78" as="geometry" />
        </mxCell>
        <mxCell id="UM05papVInRiucUio6Ng-64" style="edgeStyle=orthogonalEdgeStyle;rounded=0;orthogonalLoop=1;jettySize=auto;html=1;" parent="1" source="UM05papVInRiucUio6Ng-62" target="ZWtzyO7zbN0nfAJwWL_--35" edge="1">
          <mxGeometry relative="1" as="geometry">
            <Array as="points">
              <mxPoint x="-4000" y="1903" />
              <mxPoint x="-4000" y="1903" />
            </Array>
          </mxGeometry>
        </mxCell>
        <mxCell id="UM05papVInRiucUio6Ng-62" value="&lt;font style=&quot;font-size: 16px;&quot;&gt;&lt;b&gt;Cliente VPN rede&lt;/b&gt;&lt;/font&gt;" style="sketch=0;points=[[0,0,0],[0.25,0,0],[0.5,0,0],[0.75,0,0],[1,0,0],[0,1,0],[0.25,1,0],[0.5,1,0],[0.75,1,0],[1,1,0],[0,0.25,0],[0,0.5,0],[0,0.75,0],[1,0.25,0],[1,0.5,0],[1,0.75,0]];outlineConnect=0;fontColor=#232F3E;fillColor=#8C4FFF;strokeColor=#ffffff;dashed=0;verticalLabelPosition=bottom;verticalAlign=top;align=center;html=1;fontSize=12;fontStyle=0;aspect=fixed;shape=mxgraph.aws4.resourceIcon;resIcon=mxgraph.aws4.client_vpn;" parent="1" vertex="1">
          <mxGeometry x="-4079" y="1850" width="78" height="78" as="geometry" />
        </mxCell>
        <mxCell id="UM05papVInRiucUio6Ng-65" value="&lt;font style=&quot;font-size: 14px;&quot;&gt;&lt;b&gt;Colaboradores / Gerenciadores / Fornecedores (críticos)&lt;/b&gt;&lt;/font&gt;" style="fillColor=#EFF0F3;strokeColor=none;dashed=0;verticalAlign=top;fontStyle=0;fontColor=#232F3D;whiteSpace=wrap;html=1;movable=1;resizable=1;rotatable=1;deletable=1;editable=1;locked=0;connectable=1;" parent="1" vertex="1">
          <mxGeometry x="-4624.07" y="510" width="406.14" height="390" as="geometry" />
        </mxCell>
        <mxCell id="UM05papVInRiucUio6Ng-66" value="Mobile (app)" style="shape=image;verticalLabelPosition=bottom;labelBackgroundColor=default;verticalAlign=top;aspect=fixed;imageAspect=0;image=data:image/png,iVBORw0KGgoAAAANSUhEUgAAAGkAAACECAYAAACTWAVmAAAABHNCSVQICAgIfAhkiAAAABl0RVh0U29mdHdhcmUAZ25vbWUtc2NyZWVuc2hvdO8Dvz4AAAAmdEVYdENyZWF0aW9uIFRpbWUAcXVpIDA0IGFiciAyMDI0IDEwOjQ2OjQ0xBtkfAAAIABJREFUeJztnXmUJUd1p7+IyHzv1d6belF3a2m1utGKULMJiU0CsckyYsYzGGzAxow9ZwB7bGMPxsf4gLAZYzHgYcwBxmPZLGYENmDEokErogUCgQySAEmtXiR1q5fqrba3ZETc+SMy8+Xbql5VdRfSObrnZNV7+TIjI+NG3Lj3d2/cUCIiPE1PatK/6Ao8TXPT00x6CtDTTHoK0NNMegpQdCIKERG899RqNZxzeO9PRLFLQlqrHr8oSqUSpVIJpcI12f+lpkUxKWPO9PQU1jqUUjjnAGjySVBKIeJRShf+C3DiFUsRYTH6aqbsGmPw3pMkCVproihqYdhS0qKYVKvVqNVqiAjOOay1eO8RERSBBe3/A2VnyBtUqR6fEfw8W73YjFmjt5eg2s4Vv2e1q1YhjiLKlQpxHANQLpfnVZcTQQtikohQrVaZmprCmIh6vZaLuKw9WxiiVEuDiHT2RhHfvLdwcd5wko3IuRnW84o2hnnCpCzpT0oBSgWGSeggSZJQazSoVCp5HUql0px1OJE0byaJCI1Gg2q1itaaWq2aipjC4fvr+UopjFHMdXk+GtoZVBBtShXGZ/pFwp/sYlyXudIDOhVhPpXASqXzjwosNErRqNWp12usYAVKKaIoWjLRN28mee+ZmJgAoNFopIzxeC9opajWauzbu49Go1G4K5t4m2dEwBjFWZs3Y4zpeE5fI6bLJZL9UBw1IiSJZeeuXTibtNZJG0yb8lAql9m4cQOlksE7AZXy3QvHjx8DYGxsbM76nSiaF5NEhMnJSZRSgQkiiPd4Eer1Bt+589t845vf5OjRoyCCF49Yiwec8/lI82kjWi/87jvezkteejki89QICxzK57B0YhEERVNZQSm2b9/OZz7z6SB6RRDv8BI6nfeuKWrTOXXt2nW88Y1v4DnPeU5T0dGaJLFMTU0RRRFDQ0Pzq/MCSc0Xuzs8Po4tKAnee7RSXPfhD7P/if1MTk3kyoP3kmuAzRHnQcCn54eGhvj4xz/eIT5mrVZPDU5yJkDKMxGiOOYD117LY48/no/+7BlZ5yjWV0TQWlGr1XnlK17Bb771reEan76DCMuWLWPlypXzaboFU9/GbKbBzdRqWGubo8J7Pv2P/8ju3buZmDyOcy5vBK1VemiMMRgTEUURJjIYE84dPXqUz332c7lSID5l6mxHqr5LOlq9eITAOPE+ZaIEUac0n/3sZ9n3xBMtDGp2nNYjI+c8cRzzla98hTvv/A5aqbQThf+HDx9uedeTSfMSd0mSoLPGlKb4+8E992Btkla4TdmWwCzvg2aklEm1JI3WwvDwMF//2o3s3fsEr3vdaznllFX5RL4Y8sChQ4e49Vs38bOHdlCv1wt1ajIZaBlB2e/ZO46OjvCFG77Ai174QiCdVwWcczjn0PrkgzbzYtLMzExLz9FasXPnThJrsdbO68FFK35gaIgdjzzEX7zvvYiOWtV1aCoBfSkTwUaLtaI0NEQcxVRrtfy34tyXMaf5WyeTEuvZ/eij7N37OOvWnZprP0opkiTJ7aeTSfNiUuuc4VEoDo+P41OUoRtloyi7v2jvFMvz3mMqg7PANNlzm1piaNPmqM4+Zz/Wa3WqUgVa7ateKr3PbYHWa8VbDh85GphUOD/fjrlQWpCdVGxcV69jnZu1cfP5pkUjU12/9wP7NY3eZqN2NHj+vT/R6Wcx1kSCqFe6oJQsITx0QgRqu/ocxEjzs/ceY0687O7VULM1+FORTkjLaaXzhgkjrdVw7QbnnEytqMi8E9Hhu5XRL6pyIuiEMElpnRqUTVGYibfwVVrmEug9ChbOvBZYteW8Iu046VXdXA9zzYXtxap+rj9BtEh/kkBqhIoEMWNMkUnkYq4ogtrnp8WMsnZtrVsZkiKoUjghkJoEs4O2HQb2L8CltEgmKXAOa5MAv9BkTvbyG8szvHjzMkYqMwDEJiJxFqM0Lm/ghb+5+FS2+qb7oxv5fFSDco5EGabHj3HzvgF2HBOMMS0ukq5vqxQZq5cyyGpxTErfOjPoMlxTKTDi+Y+bPa957gZiVcUlA4BH4/AMoEnwlNC0qrHifQ7tBES7R8NJ9qcJzuYORe+a12R+h0KdlRjEe9Smlby6XueGu6f47CNl0HMAvQU7/amj3aVcyXxJ2bzkvXD2aI3XXrYG6sfwST1lhsIRo0lwXqHweGcR73HEeGexXgW7K8X5nHU46/DO5Z+ddanF73HO463FJw28E3zSwFmPsx7xDnGuBVJySYKMnQGrL8DW6zgRrtk2yCYOIOi+G9+7pQsRWBiTir0rivJTAeoJ6PPVm4TG1BGUFlxSx6VquCzfEkBZHH7kTKKhlUFFH1yJjJyBJowC56RFlcc7lLjwIO/AW5S3kMZUBNwui68I13jn8S4wWLwH71FnvYrpygVMu+WoTa9ArEUpeNu2AVxSo6fLUFr9ZEs5khYm7orC2xcn7uYcs3ldjHI2uA2UQmyCvPjPiU7ZSvLDz6BdjfILfoeZwwcofe8vUFd+CDwkX/09TO2JdJR6gozxeHR6zuVTj2TXpDEUAfykKe4KlAGusvpC1Pf+gRITHD3jXYw0voIua1ZWoOxqOOkB87TzZAkViIUxKZvwc3mvUnhfh1GiFUcOHOPU01bkkI3YhKTRYPrYJBN7J1gxokgmpzhe9QzMxJRrdaZmLDI+w2jFFvT1dOQon6K1UZNZAMo0PxdhIVJbpnhCK/QPP075ivdBaZDSXal/yTlqopgmptyGqDSp9dyTfyRlFHRsoMmgjG7aJbxlg8/VX601jTv+O/XGKMNHdmCWDTD9+H2Y4wdBT1P/4tuZOFZlBUdxUQkT6bQzpLN/1hmsQ+mm3SWpMzFDp4UMF2wGw+BT1dkJycQR+NrvkTQUAy95J40DdxMzxU0/PgqydraXbXv1p4p2VwAuW3qwwPeOLuNljx/l1HWjKKVxTjBMsUxP4VcMIiIM+X3IMCAxyo2zdhiEEOQh3oEoRBkUgohK/4N3CqUESV3bgsI70BnzAO81SuWqWPjvMzXcUa4o7G0fxGjNz/ZN8qUDY0QDpmOE5N/bebKEyNMCo4XmvmbKx/zhd8f4jQ2HuOSsEgOVZoRNYiJiF9zqGdkoxqTxB4k2RN5h0/8ZOZ/6b9L5RSuN8xajw2vUtSH2riU0q50aaCKxKKWo1urc9vMqn7q3QbRq3awirINHT/aR1M3o61ZpE8Vcv3c1/7BzGiMWmzhEGWLdwHqFMZBYRawtXuqolG3W0zXWrhU1N0g6FykanRO5gJDGOEiKTKTuDK8MWims0zT0KNHKgJqoWRx4Hex7sisO/fYhpRQmihEzFtAFCQEiSTqHWAGtwGZWMKlOACAhdgIRfFpWsQkzsSa0yVkRJA0c0emveZmAEo8XhaRYXqkFUywoK3O885NfcZjnSC+6zbsWlzPIFzqo7vKpeE+KBhXR6BaXSTOWzqQjP4xOjelSj1b3RhNayOvcji8uIQp+QgL2u1ERDW8/1/se08Kw2a8N/1vRa5NjhxlpPEIYNh0SsXCh1qpwbx91VlCr1YnjKoODg7PWdbG0pEtfMtS5eBTPt16jC8fcoqV4fxalFIJ7dFoeecRP+C1EMbWi3Hlp3R7Q+hXFwYMH2LNnT0sU0smgkzaSMmpxwKEYGR3BFCZoKfzNKBc94nFeOH70WJhDMhRbdfYtpRRjY6Md51sar+i+AJJGg+MTEx0hAV2ppZzgT6pN1xGpzn7fCaCFxTgUvs8npOl9738fmzZtystpiRfIfDzhREvjTk5O8vv/9feZmp7sYJBSitNOO533vvfPGBwcnNfaKPGen/z4x7znz/6M8hxB+N00v3lH3S6QFi3u+tNyhGuuuYazzjqrgGr7EBHqBe88Lo2Gtc5jbYZwO6x1DAwM8vKXv5zJqZkWJmThztdc81pKpVII2kxjKjKEvHmEspqHxTrHRRdfzAsueUG+rqrnG7QwfwktWRbNpP4ru/qUU1JkR3U/aEaHKpW6vAkquoiwctUq6rVaing3G8w5x7Jly4N6n8Z9q3weKsx1aVlaNeutlMJ7z+rVa0gajbTcpWVAP7QkikO3eLYiFcVeuzs72Dmh8ZxN8tDeXFz2MHqLsd0tdWl3q6cfvA9ujSx+r/93O/ki7xe6sLl9Xrp1h/DNB+p5pYTixJ/aPV5SpocjW+rpi4wDDs0Y7j9kmKxmZTXXQfXg7YLG0FIYtYtk0iJiE1CI0lRtqMJUQ/Hp+xXTMzXqTnI0u3hH9r9baHBRoRCl+ej3hD+/2fJP9zWdh0opvJjgge1Vr75U6ebdT9mR1GulQkZRZNh9VHHtbcKH70hQCI8cUUxWPWeuqvD+OzSPHVUYY3pihJ0RRs3Gmklg34Snohw/3OupNjzWwQ33a/7oW3Dt7bDjaNQR/jAbddPuliJYH06y4tAhCgQOTSv+7FuOv7ljmlP1MX79nEm8wK2PeC5aVmPzKssFKy0fuM3y0e8qHj2eldEjWrWtlZVS3PMYNBLhNWfUmEgMOw5axmc09z1W49zBSQ5NOf7h+8Gl3wXe7v6mXbS7pUqFcMK7wmzxdCAkznNgyqOc5dKtQ6xbPcbeCcO/7ff88qZpyqWYq89VvOMSz/37HZ//YT01fgs21SzPdh5u2SUMaYeKIkoR3P5oiZGy46zVZXZWh/GimEgUSWLTWi3ModdMdXBy6aQjDtB8aS/CumHhupc1+Or9hvffoXnzxYajdVgeW87aMMjxRsxfblccOCxcvmGGV22tkVjTUVbnMwCEJ2YMPz+UMKAVtz0aocTzg8c8m5YrbnnI8cYtk9y+b4AZiVAplK7mObc2IailURzmz6QcFiickrl7eU5KUSqXeN3FnhdsstSqVT728BCXrp7GxMPounD56mNceAGcsrxEFI3Rr96llOL+JxxGPH/4rAk2rIz4+eGY635QYfehKhIP8NVHR6iJYVBbnMociJ0rPmZtglxL7D7nnmhawEjq5FIWZtxfhQXwKKVYt8ywR0pUawnP26jQSlg24Hj1hcO5uhwMzlnQgGLjIpy/vMp/PrfKmWvLlEoxzxpU/G5tgtOWe16zFXbtr7F2xJOoCK0G0vCJ+TZ2d+XlZNGixd38TL/MWde0WTaOJXz4ygZRXGmGKtMBOreV0bkAAFJxuiJm3XKTl6+B520dykplw8oYpUmD+DOko9Vw6gW45qvZl5gWzSRFiObsVx0tpqEJAfCaUmX+qWACo4o+q+YIFzQUIih0FpCCFKKS8+C9ENTZJZdER907wN2lYdiimTQnMJky5IknnghQTW4/ZSMhi/Bp17HyElLfzcGORsl6/LGjx/LvQez2pxqLKMQIB/bvpyjC55xbuzg0TybNi0nztQuKCsUXvvhFtj37OWzZcvY8nhf+Hzt2hC/9y5eptI04EaFULvP5z/8T2569jXJ5oO+ys2Ca72zfzm13fJtybALE24dEyLTBWq3KVK1MHMcnVcubF5PmY2G320vGaP70T/+U0ZHROdfYFhc/O+c4dOggNknS5Smq49rH9u7lTW96MyMjo+m8kf3WDt6G896H0GVrLfv3H8BoYB6iKxvzW845n+WjQyddDT8pdlJvW8Zx+Mg4SSPBFVLF9ENRHGOM6eLyDjmNkqTBwYP7sUnIJ9EJJKQRrenSGkRQ2qCUEMel3KXe9zt6oRybJcnYdVLFXUbh5XU6ogyqrAqp1zqt/W7My0Ze0UfULDtQGGkh8aHMs66ZmOuXUU/a4MiiuOutpnavfGugSVZWhoH1fuH28roxKKtLGGmCiO4a+dP+vTt1j72Ttg/6JKym70XzztKVUa8eN9saVK11qg2qlijYNHK42xPJvLWzPTtjvHO+7Zp2w7vte6pidn92G7OKbi3hyRt3164MzEeGa62x1rJ2zVriOMalC77CUhndU5Raa9m3dy9RqkF1f2ZI0rF27dqW0e59QDaKZoIxBuccxhhmZmY4eOAAURzn/qZ+xdhTQtxB6Fwd53qIp1KpxF/91V+xdu1aOnt3fjXtYsZ7YXpqij95z5+ktlIT3Myed955F/Cud72rZ37U4soPpVrPP/TQQ7znPe8phFuoLtGsnfSkXTPb3tu7VbNb5b33XH311WxYvz5Xi5tH5hLPEgRK4QhBJwODA1xx+RVMT02Rr0VKqV5v8OpXv5ooinK3eGsZzUOyWIb8EM455xwuvfSyPLVaeIc+GmPpeHTi/EndPLFFhq1csaIld0J7NepOU3dFl0SrF3Z0bJRGYtO84wWx6z3Dw8MtpTVHm0aUQVSUam+d0areC2Njy0iSJGTBzFO+zf6+T/6A/SIVtLZu6vTsL6NDQL1RXPdtj9Tr/MFLYkqRzpfBFMk7m+eYE+ndkCKKPcc1N+2MeGQ8wXpheUVxxZmK523oDgl75/GRoFW/SaiepHPSbDTXion2c4Lm738kTDUUyyrC3imo1iNueEBzaEaxpgJvuKi1jM4AFNWluRU7jho+cY9jfLqBdRAZODwjPDgu7D6m+ZXzLIqwWrBQq7zcORcWhOWFS0aLF3d99Kj2xvWiEYEzlwk/OSjcucczaiyrhjR37BF+fsBiJsep1hpdy2o58jSd4bfpRPGx73vGpwPC8JqzFS4FGSKj+OIDnh/ucU1Hn0DO7J7v0sm0pcwttKTOkXxiRkicYnwmvOgrTznCmzcf5reeMcnL1k0x4xSRhrqN5kY5iqFcaB44CMdmgsodGcWrt2o+eKVhpJTObQOab+/yGCmi99JFr+z5wHD1U2okLYCiSPG+2z037YTIWc5ekbBm1SDrVlV48eYKAyXNN4+u5lPfT5WEPhvEaNg3AS1uB3FsGHW87wrNylJgzMEpqCXzww476Kmo3fVLAdn2PH/FJEOuzozX1PUQ5fIgxkQ0iGnULSv8DJtGatRqM2Qhw7OVCUFTG4h87lS0XnASUg2Mj0/x6M4pvPMoH7KgNNeHdJvbCqTav3YJ9DiJNP+lL3RWb77og/eOl51bYdmY5+N3O762u0w0CFEUcf0PEzTwy2t/zpYzN6DNUOp+mCs4RPDecd4phqmaMDoQFo0NlSxf/9EEn7jFEi8bJKk7Lji9M6YhW3LjvCEy7SxrenyDc3IJhxEnSLubD4Oyl4xjw12PC0Mlx55j8NfbBfF1KhGIh3smz+KioYhyHGyn3qKp6RpXSrNuxPGr5zm+8nAMCNd+dYp/2+EZWDVMVDGsosoLTkvQulzwBgtog3hFFGWpcgI530TwgydJI/jURb80dMI2ueob4k//RsrxyjMdkyPjxJHm+odXUq4e49fOt+ybjjhjmYBUQIU0Nb3tklaISQRee55mqtrg1scidqlhBk91aDxrGhP89otgzYoKSut0RKg8mD8qqORC0AojHUSt1qpltbv4pclkDIvd5GoR9zqBc9ZAffkw1sGldRhLPKeu1Jx12iCRdkRRb4da3jHEtzAwA7/fcLHiNVuq7NhfZ6YGa8ccq0djhofLGNPF3S3gxVAMR1EorMvcIW0VMJVFvP38aFFMUh0rH5rUbXQVYSMRj9KKcnmAkndcc15CvRZhojLlkkGrCFTTpTE/kRqA32UjZZ49XAo4HSHBhtbdR32m6XtRIEE1iHTACatKhb01UtVbUOATuu0DdTJo0YK1F6KQ/c8+79y1pwCoNpMYohTaaOLIMDw0wkA5DqvEC+5spRQH9h/oirgrpTh0aDztMK0OxCzLiTYGo8kZFOaTIOoSB3sfPUqI3Rec12glIQmIV9QTlZftJKQAVQA6XjIF4oSvqug1sm786r9y11135V7Z7IiMSjcaiTGxwUTppiNZPAOK3Xt284UvfoFyZaDlGVm00Gc+/Y/sP7Af5wVUhNYGrQ2eEp4Sosqgy4gqh+9EeGI8MV/80re47c6bQOk8CihxOlUYOt/TeR1GG7BUavjiE+W2n+kAWoNWZCLDRz/6UT75iU/Rf1ycxwscPTwO2mB0cy1s8xrh8JEjvOMd76QyOBoWTAeZlLsunJM0LbbG2QRtDN45TBwzfugAUVRC6xABm6E92b3hpQzeRbk/KmPgHNbVCaNF7o7Z2didIykDXELOu2pthiSxYWOp1HPaMy5CpzmC4hJGgU5HV8d16dxVnTpO4izeeawr9vimaGxmmAy/RVHIFOlc5vTrnLOSxCI+NQXS51mvl0zcLcnSl4xC2JRGqRjvTUt4VUa9gIVu0ULFxgy800SqhFVQjqDRqON8FgWUXdndxVEul2g0GmitSZKQ0q1UivJO4T04l2BMTN0VQ5dPPp2QlNNzX5btLxuuN0aluXw6k0IZir1+9oZoX3KjNTgfjNokaaBNCeuqeNtABKztHPnaRIj32MYMoiKSpJGXmSRhzyWXNPBSw2Hw1uG8YmLSsXbN0jj/Fpnes/BxjgZtWXjcbtcUi5TOazKmZYwrhnJl1LDFpWBCpGHGeUZOfx7RlstQZn77HGkdI+IwpoRzCQ/Fz2L68WIMRZk9P6szNKJn3d2zFwvHSsLZK4SNqwbnjAyeP3bnfZp3FeZjznrvOf/8C7n66qswhSTpUvjbrcgkSbjllpu567vf7QgzLo42SfOsOh/mHUHzjLdcD0PLmKmHVNUqar5uPlq9z3tGcEFk8I/K8QiAuw9rONTA0VyCqbUFqfWNpnsbbEOlA8oxVFY8d2ON//bKFcSzxPHNfyTNEQPXi7Zs2cq73/3HRMZ0lJFRr5e9eNvFfODaD3DPPT/IQ7uKI8o5YaCiqTeCOPO2wfo3fIrG4Arwnig2aNU+36X1LvRi55vLafKoO+9BaSo+2/o0xJp7STcSlpShqnhvKwgrqVo4bcKigFAPYbIm3PJwg0gO8u6reifpXWB6z06xM1uwpPeel77kxURRlAYwdsZCdH4viLKG4+Jt27j9jjtYtmysY84yRmFdOgK8JV57Ln5kXdAe0zJGSkLJwHgtZKBcPQRHq1BzMBhBxQhH6iplVFoPLxiEtzQ+x4VHv47oCJUsMCuXUvxs4Nn87/J/omqG8vd0aG56yHLV3joXrO8ekrb4RWR9uBAA4jjuwYzsc1DVe81RWhtcGogS8ju0zlnG6GAj2QS16bKWHWiGS4oPX1XCGMMf3Fjl0jPLvP6ZEePHavzx7RF/+xooxREfvnWS7+2lGVyjFZdO3MHF+z/J6BVvREyF+gPfIKKeu2zES5awKLSFoiMTvwBKhEsat7Dn+Gq+PParOaSmccyI5ue7jnLB+u6jaUlXn3eSCglzNTSc4o7dwp4JxTNWCJed3rk9aBZylcE7zdGUAq0E4HawFHpqlg58WVmQxgyT9TrL6nVKbpTp4w7qdcaqGmkMcPhYlWiqTqM2SmkgCqNVhJ2V84kHI9yR3eiNz0dpAxhUij0qo3JxlpsGbdNLliquUh7g+NEIW7JElZCc1ynFoILjtjeYvEhjdjH3KhKv2DcFyyuKrz/ouemRkHT99l3gag1eeHbcZWRJh7jLOrP3rShAhuM9clj421unKbsG3/uZ4pFJy/F9x3jwENz/eIkPflPYPDjOTT8ZQq9wSAyigkf3UVZwW+lVPPOxn8Oj/0ocDwD9L1bL6w08VD2Nb1VfgF7RnCa0hETAp4z11j4Xh4Iv0ETwEkDMz98Ht+3yuViC0LCxVnzpp4ptGy0Dlfa1rE3cTqeIhPeCNgqjpWWPWo2EqB6Bu48OUqtWqKwBr+DGgyupTjaorI75yXHF3Y+vJjolZllJmBFQeERptPZ8euSd/N3xKlNH6osCggYqBrM8QqeOTJ2KaIBDx5Oe9y0wefvCqyoSrPVHDivu3gco0km/FThFoFqtUioN023JcXEkRQYaic/nNS2eVYNBvQ5Gs8JbYEC3Bj4OlBAvQTzln3U+TpRKt3EoKxgawK0pB7VcKZx1mMiEebBbe3hBtEKsQGTQWc7zKMa4sBeHKCFS4Kxn1eiJHkltUE4/lLkprGg++2/w3ceFxBU0qSKgiXCciH95eJRfvyjptvdUh0YZR0EVr4nj7S8oc9llAaNrJhoMKHcWb1eEiTLgtP1zRmFfEg3YQuhXiB1U6CxAItQrg7qy4EtpproOl0m4JytfgVIxoyO9F4gvTAXPKzrP+5Ri52HF7bts2CQ49f8oRTqhZDuaBdf1zbuFs8ccl22eHS0ojqoMRM20L93S4MF68amZmp8r4HBN5jXPBYnp8nuyaCGlMmd66liXdFRSMCFUyEveVuP8PUO1Z/cKLBnA2jQ863jfXImnUreCR6PF4/KKh3smpmp41x+Gl5Fzrjk3dRnxxRSf6ZOykoJG2CYoUt9k4Y6UySIpw0KASqc5MnumlWxnmrloQU6//uYk6fjmvGfDmGJNKcE6wXnB+nRvCu+pu3TX5lQZWBknbFlV2F2sB7U3TnGp5/xIoVXOgsJILF5ReKM5Nae5V2f0QwtXHHo8vdXHFMSCpBOOQhiMPdde6bnxniMcnOrdkGMDimetq7JiuDyP1ASpSu59IVyr8/dW2LN7HbLXK9iq4S7JNoRMM/LnJXYP81KkBu4ilK2FKw4pNWO1MzmdiSspnG+5Ga01r3zWALVqrWdGFa0V2gxRLpdp5gDqTt0awLf1I4WCA/ej0Pi155FpCGp8B+bgj+d44R7PBRhaS7LxUpDu7xEU1cUo7gtkUggPTOPQOlwK0N5jFYJLktALFaA1cRwTmSgfeYGvrRpbgFmCUelc7zi3nr6n5uSG3nET7u6PgwiNF72P0sYL0Qjc87+wkwfINyORcF8G5bQsGMg6nwISC1GEdwr/ivVEq09Pn9dFPi6OR/OfkzJUONeZ0zTNsVg0HtUh7kI+uf93883kS1V8cAQoBcYE76fROg8+yQ6lgtIcxzE/+tEPiUoh1m02DLAbKaVw00dxxCiExsRhvHd4m+AnDyFOEK/CISpgbz5L1qsI6nZwLwgaEY1EpWB/Oc/M+L6mGOxosEVyiAWMJJWu5w/GmckrIiK4tEIl5WjQ8mbpAAANHUlEQVRIyn+l0ErxyI6Hufb97+d5z3s+5Sj85vrQbaxz/OhH97J9+/bc5zJXis+Oc94jz/gljlcroKC04VlBFdcx9fPeRuP+m1pv0JAPgbBlIaIKqw8lE+7QWH0G5dMuzDecTGHiQoOx6JG0AKefgygi22MvShJK2LC5r08QFHWlQQllA41sVzGluO/++/j+d++iZh19ZVfJ3O1RiVJs0Kb/zXo76h0PsPy5V5PYYKNJOkrLW1+E2Xwp1nq0SrfxEZUanWniDnywlbxHMkNVPGjNgG7fmSZTy9NvczConxDtBTBJwsa86WdnDPV6A5uuODBaowihN3VC0LzSGvEeoxSDQ0PE6d4U3ajomCuqv1prlG6NFpqPxpTZTaU41ClTLJSCkjLEUVMqFO0mcpwCcgNWgOKYUdAZzdrc5nWxEm8BntnmR+MT7MRx3vTs1TxzQwK2xsOPTvORexUDcQQ2oRwb6tbnHlClFFEcoaW9kduNz0w9C+d75RbKKDOOu5OgqkfQP/hbpDSK3/bb6LiMUgb96HbYfdu8m6FfktIw7plvxcULjx2fP5NcumNy2uO0WLadOsm6kQjvNKvWaz5y1wSJHiM2mnrDgjaUJaHuIUSKErbYbmvUMPRb0zh3S1HT/lmKjO1GSsOOm7F7f4IkDRqj51M593JUUsPf+3+Q+nRaTmrvSNb9C+W2u0iyAddNqcwLU2ATZvwaBp/77zsu7VcSzC9tTWMaxGN8AC+1T/AIkli8DSJNnMUeP0LdwsjYKJHWiLNM1tN9YHWA6LVz6ChKxU6rO76feWdec5MIfnQ9ruFBlaiVVlLyHhPF1OuCyUO9fOppNeku0SFNaJh/6YSMZmljseEC7R02saG8bkhxH9Q3kxo7v4O/46PE615MffOV6Onj6Chiw6BhTWUEadRBaYZHy2zbOMgt+xJETUJU4uWbDL9z+SnccOcB/u8Ow/BgOc95muFoARubv1LQN0R12qXYqzZRrTWorFgDQOIFLvtjjv10e6dWlt7X6/xsxnWR3PAqyltfmNuV86t3oL6YVHvkTo7d+tf46WOY4/9MZCdQo+uRgw9w6bIHsXULpdDoLhrg/a8/jV97vMZt942zfM1yfuV5K5H6JG9+/jDOHuMb+wyis009CuIrVD/9ewJAr5aShfKy1ZQJ6nSuOa7ZzLK1Z+Ot7bglq4PKPcDSMpIyhUIrlbojUrHYwhCF0hmSTlMMzoP6YtL0z25FahM53CMPfxNlInSpRKNeQ0fNYay0Bl1iy0bDuZuX463D1qcgjft+0eYKX9wpjMaS4mKSipW0d2YuB/pbm9pvZi2lFEYaIB4bD6XORwW2iqoexSwavJmbREf48nJEzU/szckkEWH0Rf+FA7vuRfnxYKvEcVjPYxsB3U4cOgqamLfN9NO2niXLCKj28eNV3nvjAVDDJHaMMkCULpLNojcKURxK/JyM6lds6CfuRbZfhyVCX/5e1IozADDb/xJ/ZGd4HipFQ1KwtEV5IHfo5UGV7WRtUKy0Tg8T3i3La5RYknNeR3zRf2jpELNrpn3AQkop4tFVrH7D/0SXKmBM+iIpymAt33lkhs99+wDX33mEex6eoFq3LZOqQhgsC++/8Qkeq5dABGstiQ/pAsKeVb6Jn2WV73MkzX2Rxu9/gCRpINPHmN63IzCgNo07tANvfXpYxDmcDQqQeJfuO5juUpZ9tjaFt3z6WzhEa3wU47XBo0LcuBV8YnGJxSuF3XN/V7R8NupbcdBRhIpifGLzAJBpWcMnvvcYN9z6MMPlsNfRsZpn3YoB/sc16zn7tCGUOIQQtlWzigFXA6+w9XqKz6VzkdZBiSiAoicAUQFCSgJ3xstg193URlbAqq04EVRlBLvsQmTfj3G215O6uTd6dwznQ0BMt6nH1SzTZ19CZBuYPpLFZzQrk4qi5NjtH8PXZ0CHHlJVa9hZegGjtU/yld99BqtHI7Stc+BwlXfecJA3Xf8IN7ztbDaujtFamKpprjp3gPfefIzhqEzF2JBGWmsiQJRK8bFio8ytRbWvrOg2srRSyNhq5KoPY5IGUVwCNPgE89J3UZueomEdSmm00jhn80Vnfhb0vRc175CmyEznoZHBCnqemfl7MskmCRx/DIDk8C6SR7eHed2HhtsdbyOeeIzfuGI9ka6HIW8qnLK6zN+9ucQbP7mLd3z5IP/0lrWUI4PSwpUXreT2h6d5eMqjpEbNRXgpBfsjNxaDmFN9zDUdCTNmEX1aKSSOqMTFV9YoI1SGhymj0lGfl5YVSo6o5g/2eYfqZtdK7lYv+HFzGErP1e86qCeT6g/ezOTd10MyhdHgbdZjoSoVZswoGxp3oUv1PHYse7mRoTLvvnIVb/vnQzy0fzkXbBgAgagc8ZHf2op3QkUnfOhfx/nm4Uqa8SpbSddUxHu9y+yx55oj4+NA5y5l3SlLqaZARb2fWQwWUSY3H3JxXahvN2VmLr7MNrX2HnfJJFI9iKtO0ZiaCNE84hHvSKKV6KTKWDyd1Sp7ExBwynDGmkFiDbsP1dLQ3OCxbTTAJp5aHQZKHpskJD3asl1xaE0x0P2mUinm5ltuabm2WYDP3WAtR49mCBBR6762s1HXZ/a6Nt0IWbyQJAk67h0V25NJ3nrE+gBnBFCLzLPqalOo0hBOFUUC5FxSmqmZOk4gjgJcRJpBRNL0nKIUcWTy+AdJ86JmL9rt6NUozd+Da37vvv3ceeedRCas4sjzsIrqXbY0GSLig7Lhe9elexlzXFNgjKTYsSCMjo4yOtR755ue4q688SKOjJwT3APT+1D1Q2kPgAF/HHE1JmU1g/Jo+rRmbzM+YfsuS+IVW04pgXg8GiXC4YkZDk2BFsuPD2lMFHLaeUnjolOjt1uijl5UtDNCEnfFX3/oQ0xMTPHSl76YcrmSe3l7icCuZwsytwX0DQ9qniuocv2OpAyTGB4eZuXKlbNfK7OUmscf2ITHr3sJOgrOLe9hp3sW1dHNnDX+eYaGI4SQx9RE8OMHj/Gmz+3lZes11/3m1rA6znmOTtT5d589jDKGqDxAOTYhEYYJ/wNzdMtmI92WXrbWsWgINkWheI+zFo/izDPPoFQqzXsbB6UU9Xqdyy65hEtf+CIgBYe15siRI1xyySXzKq9ISaPOsuUrerpeijSrCp6vc41KjL3knUzc+bFcA9uQ3MtjtWEe2vTbrNpzG/UD9/Lg/mkeOtjgqz+dYsuqmD9//Wlpak2Ljgxf+ckETjQjcRQYnsYyAEGUpnaTCLTvCtPLh9TzBbUmKpXwzrFz566wHTcgzrZFHzW3S8jPpz/NTM+wdcszuOCiizBR0+HYaDQ4++zNHVmU50NKjfR9bV/GrFKK4fOvZOq7n8QnAQoqV4TTq9vZv/co02c8nwOyhTt/9Hnu232cyzcP8keXr8KU4+Am8JpB7fjWTydRZpCaKAZSiMXTdOR579OEGvRlxeZalWqeEUn1sILdFEcmiLp0va/zGRDa+hARIfGCUTBQGeTyX7qC17/+9ZTLrbF/jfokZ565qZ+mOyE0q7jLSESo/ezrHP3Wh3CNBHFZbiAVMom40EM9mkrk8Bisb+3hcUXzjUc2MLXhIsYqZUY2ns7IyAjGGMqVCgMDg0RR69Y7WcPoHqOlOL8URZlLIRwvniSx1Gs16vUa09PT1Go1JianAQkwUVqGtS5//soVKzj99DOIS6WOwMyJyUlO27iB008/fcHxFvOlvpg088CNHLv1I4hNEGvDKuo2373SqnXybG5viYkUaI00LE+svQp9/iuIS2XiKEIb3UxHo3VgSDYKsr892mK2WDuBpkZF2Cwr++5SLXK2Oarohc2YUavVGBsbYevWZywZg6BvV8XtJN5h0o2pVHkYFVWQmfFcLEm6kMs7n6rrjsTHRBFBE/ICWhg58hNq+lV5Ji6tdVPoiDR9LqTKVWukfAdlqnfoNAXEOisnRUnyTUs0GKXDmlqt89GYa5WQu19zgEqFtVJxHC05g6CPkSQi2IlD7P2bq4iHK9hoLae//fMAHL/nSxz42nVUyq1FNOqaw5teS/305zA4dYhV934IU46pTTumrvggamQ5cRRhUj9UUcT1o+30Q91GSXE/iqb7Snpus6O1xjrLvn372LZt25yq8smivuek5PCjTNzzZcae/3qisdW5KLDHnuDgZ34TGtN456jXhAc3vZWBUzcRi8ObmGhiP/FPb6J23quR0dXEcRzSqCnARDmm1RJkQtFMmY1pnc66bLuf9ncoMi7znzYzerWmPLDWUamUWb9+PcuXLz/pmyvORn0xCXqru74+zcHr34idOow4BwNrWfUbf0+1MfvWpk9W0loRRYbBweF5bTR5Mqlvf9JsvaiEx6ngbkBpBobHqPRpeT9Z6Rc1arpR3yOpJ4kws/NukiP7QQnldVuprD/3BFXvaYITwaSn6aTTk0PoPk2z0tNMegrQ00x6CtDTTHoK0NNMegrQ00x6CtD/B2EjhAc66XUMAAAAAElFTkSuQmCC;movable=1;resizable=1;rotatable=1;deletable=1;editable=1;locked=0;connectable=1;" parent="1" vertex="1">
          <mxGeometry x="-4364.42" y="556" width="58.85" height="73.98" as="geometry" />
        </mxCell>
        <mxCell id="UM05papVInRiucUio6Ng-67" style="edgeStyle=orthogonalEdgeStyle;rounded=0;orthogonalLoop=1;jettySize=auto;html=1;movable=1;resizable=1;rotatable=1;deletable=1;editable=1;locked=0;connectable=1;" parent="1" source="UM05papVInRiucUio6Ng-69" target="UM05papVInRiucUio6Ng-66" edge="1">
          <mxGeometry relative="1" as="geometry" />
        </mxCell>
        <mxCell id="UM05papVInRiucUio6Ng-68" style="edgeStyle=orthogonalEdgeStyle;rounded=0;orthogonalLoop=1;jettySize=auto;html=1;movable=1;resizable=1;rotatable=1;deletable=1;editable=1;locked=0;connectable=1;" parent="1" source="UM05papVInRiucUio6Ng-69" target="UM05papVInRiucUio6Ng-72" edge="1">
          <mxGeometry relative="1" as="geometry">
            <Array as="points">
              <mxPoint x="-4440" y="690.99" />
            </Array>
          </mxGeometry>
        </mxCell>
        <mxCell id="UM05papVInRiucUio6Ng-79" style="edgeStyle=orthogonalEdgeStyle;rounded=0;orthogonalLoop=1;jettySize=auto;html=1;entryX=0;entryY=0.5;entryDx=0;entryDy=0;" parent="1" source="UM05papVInRiucUio6Ng-69" target="UM05papVInRiucUio6Ng-77" edge="1">
          <mxGeometry relative="1" as="geometry">
            <Array as="points">
              <mxPoint x="-4440" y="796" />
            </Array>
          </mxGeometry>
        </mxCell>
        <mxCell id="UM05papVInRiucUio6Ng-69" value="" style="shape=image;verticalLabelPosition=bottom;labelBackgroundColor=default;verticalAlign=top;aspect=fixed;imageAspect=0;image=data:image/png,iVBORw0KGgoAAAANSUhEUgAAAGEAAABnCAYAAAAQXyy+AAAABHNCSVQICAgIfAhkiAAAABl0RVh0U29mdHdhcmUAZ25vbWUtc2NyZWVuc2hvdO8Dvz4AAAAmdEVYdENyZWF0aW9uIFRpbWUAcXVpIDA0IGFiciAyMDI0IDEwOjI2OjQ2pVXw8AAAIABJREFUeJztnXl4VFWa/z/33tpTlVSSSip7QghLAgFCWGVTXHAZbcSNbgWH7p4etdVWHEZbHbXbXmzHUUaHHuy2VRoUxcYNaEQEFBNlVRAIkIXs+1JVSe1V997fHwVRTIAAUfKbzud57kOoOvfcc+73nnPPec973hJUVVUZ5IIiXugCDDIowoBgUIQBwKAIA4BBEQYAgyIMAAZFGAAMijAAGBRhADAowgBgUIQBwKAIA4BBEQYAmgtdgNMRCoVobGykqqqK5uZmOjo6cLlc+P1+gsEgADqdDr1eT3R0NPHx8dhsNjIyMkhNTcVoNF7gGvSNASdCe3s7O3bs4NNPP2X//v20tbXhdDrxeDz4fD4CgQDhcBhZllFVFY1GgyRJ6PV6TCYTRqORmJgYbDYbY8aMYcaMGUybNg2bzXahq3Zq1AFAOBxW9+zZo95xxx1qamqqajKZVI1GowqCoAK9HqJWp4pa3Sm/FwRB1Wg0qtFoVBMSEtTbbrtNLSoqUoPB4IWubg8EVb0wizqhUAiHw0FxcTFLly6lqKgIRVFAEJD0JiSjCZ0lDm1MHF3lBwj73IhaHTEjCsm6/g7iC2YhiBIdB4qpemc5joM7UIJ+RK0O64gJhNwOgq52wn4Pst8LqoooikyaNInFixczc+ZMYmNj0el0F6L6J/G9i6CqKrW1tWzZsoVXX32V4uJiZFlG0hkwJmUQlTYMa94krLkT0MfaqXx7GfUfvo4qh0m59BaGzr8fQ0LqSXkGOpqpWruMuk2voYRDJM2cS86tSwh1OXAe2YuzZCeeunK8jVURQYDJkyezaNEiLr/8cjIzM5Ek6fu8DSfxvYoQDAZ5//33WblyJdu3b8fpdCJotMTlTyV+3CysIydgHpKLxmhGDYdo3P4upa/8hqCzleRLbmTEov9AF5vQe96dHZSv+gN1G1eitVgZ+sMHSJtzG6JOjxL0464+gqNkF+37ttOx71OUcAiLxcK0adO47bbbuOmmmy5Yq/jeRKisrOTpp59m3bp11NfXI4gS1rxJpF99OzHDx6GPT0bUaLvT+1sb2P+Hn+E6+gUxI8Yz7pGX0ccmnvYaQWcb+37/U5wlu7BkjyJ/8QuYM0d2f6/KIfztzXQdO0jN+ldxHChGVWSSkpK44oorePTRRxk2bNh3dg9OxXcugqqq7Ny5k/vuu4+9e/cSDofRWW0MueleUi6eh8ZiRRB6Tleq3/0zpS//ClGnZ+zDf8E2/uI+Xc9Vto89D9+IHPAzdP59ZN9yH4L0rUGgqhJyu2j4+D2q3vpvAo4mJEkiLy+PpUuXcskllyAIQj/Uvm98p5O1YDDIO++8w/z589m5cyeqpCFuzHQKf72azOt+ijY6rlcBwn4PNev+jIqKffp1xAwb2+drmjNGkHr5DwGo37yaUJezZyJBQGuxknH1Akb/+yvEjrkEVdJx4MABFi5cyIoVK/B6vedc77NFeuKJJ574LjJ2uVysWLGCxYsX09jYhNGeQfrVt5N7528x2FJPe27tuldoKlqHPs5O1vX/SnT2aOjjkylqNIg6Ax0HivG3NqAxmYkdPbXXtIIoYIhLJGbULARBQ6CjEUdTHZ988jF6vZ5Ro0ZhMBjOuu5ny3cigsPh4Nlnn+WJJ56gy+0mOns0Q3/0AGlX3IqkO32lwp5OSpb9OyG3i7gx00i/6nY0xqizuLqAxmTGW19JV9VhPPXHSL1s/imvK4gCGoMBU+ootNYUgh2NdDXXUFRUhNfrpbCwEJPJdBbXP3v6fcbscrlYunQpL7zwAj6fj+icMYz4l18RM7wAUXPm0Uf7/k/xt9Qj6QwY4pNwHd1LoKOZoLONoNuJ7HWjBP2ochhQEaTIk68xmtFaYtDG2NDH2tFZbWiMUQTaG2nb/RHJl9xwymtKWglDnIXY/JloLfHUvvssneV7Wb58Oaqq8uijjxIXF9ePd+lk+vXFHAqFePnll3nwwQdxuVwY7ekUPvkmpqTMM3YnIbcT56FdVK5dhvPIHgBEjRZBEFFVBVVVQVVAVYmU+ESxheNZCyCKkReqIIKqooSDoKpYhuSRfcv9xI6ejC4mPpK2FwJdAfwON4G2Bsr+/As8dUcwm8088sgj3Hfffd9Z19SvInz00UfcdtttNLe0EJWaw/hfvYYxMa1HOlUOE/Z2EXS20b5vOy07NuEq3Yvs931dMFFE1OoRNNqIGJIGQZQQRCki6AlRVTUijCJHDjmMEg6jhoMooSCqInfnKWp0RA/Nxzb5ChImXIo+PgmNydI9NFbCCj6Hh7AvRNDZwpFld+BrLCM+Lo7ly5czb948RLH/xzL9JkJZWRnXX389hw4dwpwxgryf/wFr3qST0sh+L566Mlxl+2nbsxXHoR2EPZ2RgkgaBFFECUWso/bp12IZMgpjYurX3UtUNBqjGVGnR5C0IIAaDqOEAoR9bsKeToLONgKOFvyt9XRVltBcvB5VDn/jRocAkAwmYvMmEV94CTHDx2POHInGGEXIG8Tn8KLKCt76Uir++jDeuiMMHz6cNWvWMHZs30dqfaVfRGhra2PRokWsX78egy2ZnAW/JGnGdYjayDtA9ntwHtlL667NOA7twFNTGrkZgoAxKYOYnLFEpQ/DcWgnHfuLkAwmZry083jXce4EOzv47K6LCbraiBleQMLEy/DUVeAq24e3sQpUBUGSMKUMJXb0FBImXo41dyIhv0jIG2lFjgPbqHn7GQJtdVx66aWsXr2ahITeZ+3nynm/mFVVZfny5WzatAlRZyBp5lwSp17ZLUDXsUPUrP8LHQc+w99Sj6rISHojtrHTsV90DZbs0ejjk1DlMO7qowBYcyeetwAAuug4rLkTaNnxARqTmeSL5yEZogh0NNNVfZiWz/5Ox1dFeGpL8dSV07ZnK7GjJpF0ya3obMMis/rcafimVtC4+WW2bdvGM888w1NPPdWvk7nzFmHHjh2sWrWKUCiEZWguWfPuQmM0o4SCVL39R6rfeZGwz42qyAiiSNKMH5B1w51EpQ1D1OoifTzQdewgvqYqAGwTLj3fYnUTP2E2LTs+wN/WiL+tkdjRU9BZbZizcrFP+yd8DZXUbHiF+s1v4G+to2l7A627PyJh2s2kXX0nos6IfcYtdJbvpfPI56xatYo5c+Ywe/bsfivjeYnQ1dXFypUrKS8vR9TpGX77Q2hMFpxH9lD68pM4D+9GEEW0ZivxBTMZctO9J9lyvknA0YK3qQZBELGNm3k+xToJ27iZIIgE2pvwtdQRe/xzQRSRdAbMWbnk/fxphtzwc469uZTW3VsIdTlo/PAlXAe3k3nzLzFnjSF1zr/grT5EU1MTL774IuPHj8dqtfZLGc/5VX/CJrRp0yZkWSZl9s3EDCugfvMbHHz2XpyHd0e6ncLZ5N3zDHn3/NcpBVBlGV9LHWFPJ/o4OwZ7+jlX6NsYE9Mx2JII+9z4W+siw9be0iVlknvXHxi9+HkSp16FxmTB21BKxasP0bx9NcakoSRMvR5FUSguLmbLli2R9Y9+4Jxbgsfj4d1336WyshJTchbpVy+k4s2lNG77G0FX+/HPbsc+7Z962P+/jRIO4m04BoBlSF53F9UvCALROWPxtzbga65F9nkRLb1PGkWtDtv4i7Fk5dLy+UZq1r+Mp66chg/+RKCtjsRpN+I48DENDdW8//77zJo1q1+WTc+5JTQ0NLB27VpUVSVh4uVUrH6W2r+vINjZQdyY6eTd/Z9kXPuTMwoAoISCeOsjIkRlDEfo57G4ZcgoAHzNNch+zxnT6+PspF15G3n3PIs1/2LCvi5aP3+H2nX/Tfz4OaiqysaNGykrK+uX8p2xJSiKwu7du6mtrUWWv574bNy4kaamJjRR0bTs3IS/NTLyMSZlEjfmIgKOFpqL1/epEGFvF52VhwAIdTlpKlrXr6OPUFcHAJ66MpqL16OPs/fpPFVRiRkxkUB7Hb6GcpyHivA1VaIxRdPa2spzzz1HdXV1d1klSSIlJYXJkyef3UrdqRaf/X6/+s4776gjR4485WL64NH7kZaWpr7++uuq1+vt00J/ry0hFAqxYcMGFi9eTHV1NTHRehLijH21Jv/joaqoaghVCdPhkqmrq+P+++8nEAjwox/96IzLpr2K0NDQwKpVq6iurmbk0DgW/6yA9JRoxEERekVFRQk0E/Y10NAS5PnXOygpb+a1115j6tSpjBgx4rTnn1KE3bt3A/DgXRP40dyRg63gDChBEyG3H0X2E2/VcNPiWg4ePEhlZeUZReh1GOL3+3E4HAgCTCpIGhSgLwhaEDQIAkwbb0IQImsrbrf7jKf2KoKqqpyw64mDCpw1YreVvW+20X8Ir2xZOXdDsaqqtDv8OJx+vnlPQ2GF+iY3Pn/4vMt3zjPm1nYf23fWM26UjexMKwKRyh4p76CiysmsqWnEWPR8caCF/YdbUXrcCIGMVAsXT0lDkgRKyjrY81UzstzTFGCLM3LtZdkIApRWOtm1r4lgMDJnkSSR5MQoJoy1E2/9euVLUVW+PNjC5k9rcDgDJCWYmDEplbF5CWi1fX/2auq7eP6VfXh9IZ55dCZRpsi6xLbPanllTQn5I+N5+O5JZ8jl9JyzCK++VcL/vLqPhTfksuTOCUSbdThdAZa+9CUfFdXw7GMz+cEVQ/n3333KwaPtfLtlCgLEWHRsem0esTF6/nP5Hj7cXk1v5hiTUUNasoXsjGj+9NoBVr93FFk+3l2KYDbpmDDWznOPzSQpMeIUsLWoll8v3cGXh1oJhmRMBi1Ds2J4+ZkrGJPbN1ODoqjs+LKJv7xxCFVVefKBi4gyaXG4/Ly5rpR3Pyjnq8OtF06EoxUOGls8VDd0EQjIYIZAMExFjZP6Jjc1DV0ARBm1dDj9veZhidJi1EtIoojRoKHd0Xs6WdaREG/E75epqu2krcN30vftDj+1jV3ExehZ9tvZNLd5WbG2hJ37mlFVlTirAYcrQNkxB27vyQa8moYu3J4gecN6rl94fCHWf3QMry/ErClpmI63giMVDnbva0JWVK6fM/Ss7923OXcr6omFdvUbf0P3E6+qKqIo8Ob/Xs3RT27nteevxBZnRKeV+I9fTObwtoXs3fgj7AlRmKO0LH1iFmWf/jPb1tyIQS9h0Evcu2gcJVsXUl60iIwUy/EpaeQCP75lFCVbF/L5u7dwy7XDQYXV7x0lLEf66pLSDlRV5T/unUzd7p+ye/0P2bhqHuNHf22yqKzt5KdLNlNw5esU72nsUcfmVi8ffFKFJAncdM0w9DqJUFhhz/5myqqcmIwa7lx4/sud572o4/GGqGtw4/OFaW7zRlrFNzDoNQxJj6GpxYskRTwjEuKNDM209kiXmRqNJIndtpi4WAM5Wb3b7K0xenKyrITCCqNH2Hh3UwX+gEww+K3+TIAvDrQSZdIwangcet3XNh1JFEhPtpA3LA6pl5no6+8exdUZZER2LJMLkpEkgfY2Hxu3VSHLKtfMHkKK3Xwut+0kzluEvQeaeeTpYnQ6CX8gTEW167wL1Rc+39vIr5fuwOcPs6W4lkBQZvzoRIwGDSn2KEbmxHHwaDvPv7yPtzeWE23RMSE/kXsWjSMrPQaAtBQzD941gQ6nn0njTjbqdXYFWbn2MIIgMHNKGplpFgAOl3ew44tGDHqJm64Z1i9zqPMWoaHZQ0Pzmc3D/c3OL5vYvT/S58uySoxFx6P3Tjre0kzccWs+NXWd7NrfzKHSdgC+ONCCosJzj88CInOg4dmxvea/bssxauo7scUbmT4xhZjjaxCr3zuK2xtiSkEyY/L6Z8H/vEUYkR3LjMmpGA0aPN4QH3xcTUPzmWeJ54uiqCiKik4nUZifwC/vnsgVMzOBSDczbWIKG/46l/2HWmlocbNhSxVvrjvKqrcP8+xjs077BCuKyourDqACOVlWphYmIwgCrq4Aa9aVIghw6Yx0Uuxn4555as5bhILRiTyxeAqJ8SYamt0cPeb4XkRY/LPxPPXQ9F6/U1UVrz+MqqpMKUwGFdyeEG9vLMfrCyPLChqNiMPl59dLd7Ljy0bW/PEa0lMiXU7xngaOHnOg1YpMHZ9MVlo0AC+9cQi3N0RmajRTxydj0PePF+mA273ZHzS3efnTaweobXAzdpQNRYHV7x4hGJKZMj4ZjSYyKGzr8HOotJ2S0g4Ol3WQnmIhFFZ4f/Mx3J4g0WYdc6+MDEE7u4KsWFOCIAjk59oYm9t/vkfnLIJGilREFIVvrIIJ3aOME9+fQJQETriM9jYS+TrfyHeCEMn7mwgCSMeXPr+d/zdpaPbw3ofHOHCkDf729ecp9ijuWTSu+//pKWZ+8ZMCahu6mDI+GYC2Dh/7S1oJhRTG5ycyfnRkd9C+klZqGjqJMmqYOTmVRFv/eWqfswhXzMxgxxeNTBxnJ9oceWlFm3VMn5SKqzNAYf7JW5tyMq1MGGOnpqGLyQXJp8w3LsbANZcOoazSyZRvpYux6JkyPonyKiczJ/f0cT3BsCFWltxRyFvrS/nqcBuKCuNGJXDb9SOZMyurO51Br+Ga2UNQ+dpF2BKlo2BUIm0dPh66cyI6bWRIm55iYdyoRKzROuZdmdOvluVe3SC3bt3Ktddei8/npWTr7QzNjOlxYlhWCARkdFrpJFtMMCgTCisYDZoeT7LPH0ZRVIxGzWmts/5AGFlWMRg0PVpNMKQQCskY9Bok6dR5yLJKMCR3mzckSUCvk3qUqTcCQZnwt+qgquDzhxAEAYNe00MEJeQi5C5Bld14fQrJFx9FrzewcuVKbrzxxtNe77y6I42pZ5eg00nodL0vchsNfbvc6V54Oq2Irg8GOEkSMH57r1of0eukkyZ1EOkKTUbtKc44P/4hTNkDnV4fFUEQEEURVYVwuH+8zP5/o77JzYYtlZiMWlLsUaQkRZFiN3e//3ryda8eCkc2soii2CfXnV5FMJlMxMfH43a7Kd7TwIihvc8q/y+z9KUvWfG3ErQaEXOUFnOUDotZR5LNRM4QKzlZkWNYlpVEmxHUUOQAPt4dsSBYrVbM5jPblnoVISUlhQkTJlBdXc2DvysiGFKYMSnltC/C/2scrXDg7AwA0PoN07kgCEhSZCge+VckLtbA6GEGpuQLGHQCT/5vCwCjR48mOzv7zBfrzRlJURT1vffeU7Ozs08baeUf4UiwJ6m3/+s96o/vuk+dddmVamZ2jmpPTlVj421qlNmianW9R5pJS0tTX331VVVRlHNz/hIEgSuvvBKfz8fLL79MWVkZHo/nJC9kRVFwOp0oioKkN6IqcvdWJwQBbVQ09NWxV1WRfW6UcAhJZ0A09O+WVSXgQw74EDTayHbcXjaw9zxJIeSO1K9w0kX80w3zAfB5vdTXVlFbXUltdSV7Pi9m43tvIcsyBoOBxMREsrOzWbhwIfPnzz/3dwJEImrdcsstTJkyhZKSElwu10kidHV1sXTpUo4cOYIpJZvEqVdSs/4VQp0dCAiYM0aQfNnNZ9y3DKAE/dR/tCYSkyJnDGlzbkXox6gr9ZvfoGN/EZasPFIvvwVNVPTpT1DB2+qgYtXjdDodNNTVoCgKoihiNJnIGZFHzog8Whob2FW8HUVRsVgsLFiwgDlz5vS9GzrOGQfSmZmZZGZm9vg8EAjQ2trK448/jq+1noQJlxGVkk3ZyqfwNdfiri2lfc82sn+4GEtW7mmvIQf9eBuqcZbsApXj+930fa7Emaj/cDUAMcPGkjxr3hlF6Koupemz50BVCYVC1NVW4/W4MVtOPm/b5r/zwftvo6oK06dPZ8mSJWRlZZ11+c55nqDX65kzZw6jRo0i7HZStuJ32KdfR/6/LSN6eAEht4vmzzfy5a9uo3rdS4R9p7asihodUWk5ALirSlDk83cjOYGqKHSW7wcEjMmZSKeJDqAE/dRvXs2+39xO28513Wu1dTVVdLp6xsjIL5iA4XicvZ07d7JlyxZCodBZl/G8Jmtjx45l3rx5GAwG2vd/SuMnb0fC4vzyT6RcejNaczT+9iaO/vlxvnj8Vlp3bSboakcNn1xQQRTRxyehi4kn7HPjrjp8PsU6CXf1EcJeN1pLDAZbSo8NKKocJtjZQcf+T/niVws49MISfE01iPooDIlZANRVV+FyOnrknZc/jjfWf0xa5hAcDgcPPPAAb775ZneQxL5yXrEtJEnCbreza9cu6uvr8dSVEztqMlGpQ0mYeDmmlCGEPZ2E3S689RU0F62js+IrlKA/MtQzRHV3O0rAh6NkF4H2RvTxScSNmXauxTqJhq1r6Nj3KVEpQ0i55EYMtohRUPZ78NSU0rp3K5VvvUDF6/+Fr6kayRiFZcg4Uub8FPusH9L6+TsEfF4uv/oHxMbFs2dnMYGAnxhrHKIokpicQl7+WI6WHKCurobNH35IfHw8ubm5fQ5idd4BRmw2G2azmQ0bNuB3dSD7vcQML0ATZcGcMZy4MdMwJqSiKmH8bQ1464/Rsf9TnIf34qk+QsDZEtlcaLHSVXEAd9Vhwp5O0q9c0OfILqdEVSl79Tf42xqIzhlL0owfEGitp3XPFuo/epO6jStp3PYWntqy40GwJmOfPp/ky/6Z6GETESSJjr0f4HO1MSIvn60frGfZM7/l4L69pGdlk5ySGtmRmpJGds5wjpUeobamiu3bt5ORkUFBQUGfinneIgiCQE5ODg6Hgx2ff4avpRat2Ur00NEIkgaNyYJlSB6xo6cQmzsRJRTE11yDv62BzmMHcR7eTfuXn9BxoBhvYxXBznZCnQ5SLrkBrfn8dkf6W+upeONZlFAIUHEd2Uv9R2/S8vlGnCW7CHQ0I0gS8eNmkXPrv5E0az5RWePRmGMjD4AcprN0F4G2WipKj7Cz6BNczg4aaqspPXyQvDEF2JNTEUWRpJRU2lpb2LdnBz6vl5iYGObOndu3e9hfYRUCgQBXXXUV27ZtQ2u2kv/ACz33I6sqciiAv7mO+o/eoPHjtQQ6WgD15FgVgNGejiU7H3PmcExJWRjt6eii49FYrEhGM5JWF5kVhYKE/R7CbidBZzu+llp8TdW4a0rpOnYQb1N1JM9v5a+1xJE08wekXT4fU1oOokaHp9mNHP7aZaezfC+ly3+O/I1BRVxcHB6Ph2AwSHpWNivf3Ux6Zhafb9/GY//2c46VHUWn07FmzRquu+66Pt27fg0wUlJSwk033cThw4fRxtgoeGwF0UPzT7kbUwn6cZTsOv5k7o60gi4nSijQX0UCItFitJZYNJZYrCMLSZx4OXEFM5H0X0cQ9ju9BDojHoCqouCtLeHoH+8i5I7sdxNFkdzcXN566y0+/PBDnnzySTo6OohPsPPob5/hzy/8F4e++hKr1crSpUu5/fbb+1y+fhUhHA6zceNGlixZQmlpKbo4O6Pu/k/ixs7oDrNwKuSAD09dOVVrl0U2HAoixqQMNCYLss+DHPCiBAORyC1yuNvtXBCESHASjRZJpz8eUzUKOeDD11SNEgqSMOkKsm++l6j04WhMPQ1qYX8Ib6s7siUgHKKzbDdVa35LoLUGu91OdnY2NpuNp556itzcXLq6unjppZd4+umnaWpqQpI0yHKY1NRUHnvsMX72s5+d1X3r90CEfr+ftWvX8vDDD1NTU4MpdShDb7mPxIuuPunJOxUdX33GF0/cCqikXDaftDm3EvZ2IfvcyH4vcjCAGg6iHp+9C6IYCcej1SMZTGiMZjQmC83FG6hZ9xfkoI/CJ98gfuyMXq+nhBW87W7kQCRajPPgJ9T//X/xNpYTHxfHk08+yezZs4mJicFut3ebIdxuN3/961955JFHcDqdpKSk8NBDD/GTn/zkrCOF9bu3hcFg4IYbbsBoNLJo0SI6G45R9tffE3C1k37VgjMKYR1ZiDljOJ0VB/DWV6AxWYgemn9WZQi0N+Kpr0AO+rBkjiQ2r3evaVVRCXb5kYORWEmtn79D40evEOhoINpi4fnnn2fu3Lm93lSz2cyPf/xjMjMzKSoqorCwkDlz5pxTqLbvLCSnoijs3buXuXPn0tDQgKjRkTTrenLv/N0ZhWj85F0OPBMJVDLyX39Dyuyb+j5cVVVad2/h4LP3EPK4GPWLZ0m9bH6vSUOeAD6HF9nvo/pvv6d15zrUcBC73c7KlSuZPXv2Gfcjq6pKOBxGkqRzDkj1nS1viqLIxIkTWb9+PdOmTUMjQsOWN9lx/5W0f/lJxIxxCv2TZlyHZcgowj43zcXr8bc39fm6YW8njR//jZDHRVT6MOzTru01nRwI421z4Dqyk5LnFtJSvBYJhcLCQt544w0uvfTSPm0IFwQBrVZ7XhHBvrOQnCdISkpi+vTp+P1+Kisr6Wyup23PFkKdHWhMFnQxth7BYwVBQGOMov2Lj/E2VmNKziQ6p28u6C07N1G59o+IGi3ZN/8C68jCHrFX5UCAtv27adjyOnUbluFvqcZisXDDDTfw+9//nilTpnwnYdZOxXcugiAI2Gw2pk6dSnp6Oq2trdQcq6CzbD+u0r34WuoRtTr0sQkniaG3JuKpLcNdcxR3bRlxoyejjz19OISuqsMc/uNDBF1txI+dQebcfzlpwqeEAjiPfkHN+hXUbXwF51dbUQIeCgoKWLJkCffffz85OTnfa3Rg+J4DlsuyTGlpKatXr+all16isbERQdJgTEzDMjQf+0VXYyu4GI05BlVRaP/yY468+CjexiosQ/MZ++CLmJKzes3b11LLwaX34zjwGQZbCiN++gSJU69CECVkv5f2L7fT/NkGXGX78DVVo8phbDYbCxYsYMGCBeTn56PRXBiv0Avy+wmhUIijR4/y1FNPsWbNmoj5VxARtZFJVcKEy0mcOoeYEeOp3fAqlX/7H2S/j5iRhYy65xnMGcNPys/bWMXh5Q/TsW87gqgh47qfkH3TvXQeO0jLZxtp2bXpuPX266HtddddxyOPPMK4ceMu+G8oXLAfsTjBV199xbJly9ht4D60AAABWklEQVS0aRMOhwO32929gicZozAlZR3/3YOIB8OJcM+2wtkIkkT7vu3UbngVT105EIlZZM7MxdtYRdgT2bAiCAJRUVHExsYyc+ZM7r77bqZMmXIhqtsrF1wEiAxnjx07xocffkhRURHl5eXU1dXR2tpKONz7Ao8gabpDcvaGRqMhLi6OtLQ0hgwZwkUXXcScOXMYMWLEBet2TsWAEOGbeDweKioqKCsro6Kigurqaqqrq7t/XcrpdHb/upSiKGi1WkwmExaLhfj4eOx2OxkZGWRlZZGdnc2wYcMYPnx4n/x/LhQDToRvEg6H6ezs7O6mvF4vPp+PcDjc3UJEUez+ma8TYlitVmJiYtBqvxvf0f5mQIvwj8KgQ/AAYFCEAcCgCAOAQREGAIMiDAAGRRgADIowABgUYQAwKMIAYFCEAcCgCAOAQREGAIMiDAAGRRgADIowABgUYQDw/wBDK3glTr8hbQAAAABJRU5ErkJggg==;movable=1;resizable=1;rotatable=1;deletable=1;editable=1;locked=0;connectable=1;" parent="1" vertex="1">
          <mxGeometry x="-4475.57" y="559.11" width="63.81" height="67.76" as="geometry" />
        </mxCell>
        <mxCell id="UM05papVInRiucUio6Ng-70" style="edgeStyle=orthogonalEdgeStyle;rounded=0;orthogonalLoop=1;jettySize=auto;html=1;movable=1;resizable=1;rotatable=1;deletable=1;editable=1;locked=0;connectable=1;" parent="1" target="UM05papVInRiucUio6Ng-69" edge="1">
          <mxGeometry relative="1" as="geometry">
            <mxPoint x="-4535.57" y="592.99" as="sourcePoint" />
          </mxGeometry>
        </mxCell>
        <mxCell id="UM05papVInRiucUio6Ng-72" value="Internet (Web)" style="sketch=0;aspect=fixed;pointerEvents=1;shadow=0;dashed=0;html=1;strokeColor=none;labelPosition=center;verticalLabelPosition=bottom;verticalAlign=top;align=center;fillColor=#00188D;shape=mxgraph.azure.computer;movable=1;resizable=1;rotatable=1;deletable=1;editable=1;locked=0;connectable=1;" parent="1" vertex="1">
          <mxGeometry x="-4364.42" y="669.01" width="50" height="45" as="geometry" />
        </mxCell>
        <mxCell id="UM05papVInRiucUio6Ng-73" value="VPN" style="outlineConnect=0;dashed=0;verticalLabelPosition=bottom;verticalAlign=top;align=center;html=1;shape=mxgraph.aws3.vpn_connection;fillColor=#F58536;gradientColor=none;" parent="1" vertex="1">
          <mxGeometry x="-4250" y="566.99" width="58.5" height="48" as="geometry" />
        </mxCell>
        <mxCell id="UM05papVInRiucUio6Ng-74" style="edgeStyle=orthogonalEdgeStyle;rounded=0;orthogonalLoop=1;jettySize=auto;html=1;entryX=0.2;entryY=0.55;entryDx=0;entryDy=0;entryPerimeter=0;" parent="1" source="UM05papVInRiucUio6Ng-66" target="UM05papVInRiucUio6Ng-73" edge="1">
          <mxGeometry relative="1" as="geometry" />
        </mxCell>
        <mxCell id="UM05papVInRiucUio6Ng-76" style="edgeStyle=orthogonalEdgeStyle;rounded=0;orthogonalLoop=1;jettySize=auto;html=1;entryX=0.2;entryY=0.55;entryDx=0;entryDy=0;entryPerimeter=0;" parent="1" source="UM05papVInRiucUio6Ng-72" target="UM05papVInRiucUio6Ng-73" edge="1">
          <mxGeometry relative="1" as="geometry">
            <Array as="points">
              <mxPoint x="-4270" y="692" />
              <mxPoint x="-4270" y="593" />
            </Array>
          </mxGeometry>
        </mxCell>
        <mxCell id="UM05papVInRiucUio6Ng-77" value="Terminais de Trabalho&amp;nbsp;&lt;div&gt;remoto&lt;/div&gt;" style="image;html=1;image=img/lib/clip_art/computers/Netbook_128x128.png" parent="1" vertex="1">
          <mxGeometry x="-4370.57" y="756.01" width="80" height="80" as="geometry" />
        </mxCell>
        <mxCell id="UM05papVInRiucUio6Ng-78" style="edgeStyle=orthogonalEdgeStyle;rounded=0;orthogonalLoop=1;jettySize=auto;html=1;entryX=0.2;entryY=0.55;entryDx=0;entryDy=0;entryPerimeter=0;" parent="1" source="UM05papVInRiucUio6Ng-77" target="UM05papVInRiucUio6Ng-73" edge="1">
          <mxGeometry relative="1" as="geometry">
            <Array as="points">
              <mxPoint x="-4270" y="796" />
              <mxPoint x="-4270" y="593" />
            </Array>
          </mxGeometry>
        </mxCell>
        <mxCell id="UM05papVInRiucUio6Ng-81" value="" style="verticalLabelPosition=bottom;html=1;verticalAlign=top;align=center;strokeColor=none;fillColor=#00BEF2;shape=mxgraph.azure.user;" parent="1" vertex="1">
          <mxGeometry x="-4583.07" y="567.99" width="47.5" height="50" as="geometry" />
        </mxCell>
        <mxCell id="UM05papVInRiucUio6Ng-82" style="edgeStyle=orthogonalEdgeStyle;rounded=0;orthogonalLoop=1;jettySize=auto;html=1;entryX=0;entryY=0.5;entryDx=0;entryDy=0;entryPerimeter=0;" parent="1" source="UM05papVInRiucUio6Ng-73" target="UM05papVInRiucUio6Ng-62" edge="1">
          <mxGeometry relative="1" as="geometry" />
        </mxCell>
        <mxCell id="kOEdCS07rvlNoeLBa7wD-103" style="edgeStyle=orthogonalEdgeStyle;rounded=0;orthogonalLoop=1;jettySize=auto;html=1;entryX=0.333;entryY=1;entryDx=0;entryDy=0;entryPerimeter=0;" edge="1" parent="1" source="ZWtzyO7zbN0nfAJwWL_--397" target="ZWtzyO7zbN0nfAJwWL_--155">
          <mxGeometry relative="1" as="geometry" />
        </mxCell>
        <mxCell id="kOEdCS07rvlNoeLBa7wD-108" style="edgeStyle=orthogonalEdgeStyle;rounded=0;orthogonalLoop=1;jettySize=auto;html=1;" edge="1" parent="1" source="UM05papVInRiucUio6Ng-52" target="kOEdCS07rvlNoeLBa7wD-105">
          <mxGeometry relative="1" as="geometry">
            <Array as="points">
              <mxPoint x="-930" y="360" />
              <mxPoint x="-930" y="990" />
            </Array>
          </mxGeometry>
        </mxCell>
        <mxCell id="kOEdCS07rvlNoeLBa7wD-109" style="edgeStyle=orthogonalEdgeStyle;rounded=0;orthogonalLoop=1;jettySize=auto;html=1;" edge="1" parent="1" source="ZWtzyO7zbN0nfAJwWL_--304" target="UM05papVInRiucUio6Ng-83">
          <mxGeometry relative="1" as="geometry" />
        </mxCell>
        <mxCell id="kOEdCS07rvlNoeLBa7wD-110" style="edgeStyle=orthogonalEdgeStyle;rounded=0;orthogonalLoop=1;jettySize=auto;html=1;" edge="1" parent="1" source="UM05papVInRiucUio6Ng-83" target="UM05papVInRiucUio6Ng-84">
          <mxGeometry relative="1" as="geometry">
            <Array as="points">
              <mxPoint x="-1794" y="350" />
              <mxPoint x="-3660" y="350" />
            </Array>
          </mxGeometry>
        </mxCell>
        <mxCell id="kOEdCS07rvlNoeLBa7wD-111" value="CDC para sincronização das Bases de Produtos" style="edgeLabel;html=1;align=center;verticalAlign=middle;resizable=0;points=[];fontSize=16;" vertex="1" connectable="0" parent="kOEdCS07rvlNoeLBa7wD-110">
          <mxGeometry x="0.0272" y="1" relative="1" as="geometry">
            <mxPoint as="offset" />
          </mxGeometry>
        </mxCell>
        <mxCell id="kOEdCS07rvlNoeLBa7wD-257" style="edgeStyle=orthogonalEdgeStyle;rounded=0;orthogonalLoop=1;jettySize=auto;html=1;" edge="1" parent="1" source="UM05papVInRiucUio6Ng-52" target="kOEdCS07rvlNoeLBa7wD-250">
          <mxGeometry relative="1" as="geometry">
            <Array as="points">
              <mxPoint x="-910" y="380" />
              <mxPoint x="-910" y="1931" />
            </Array>
          </mxGeometry>
        </mxCell>
        <mxCell id="kOEdCS07rvlNoeLBa7wD-258" value="&lt;font style=&quot;font-size: 14px;&quot;&gt;&lt;b&gt;CRM&lt;/b&gt;&lt;/font&gt;" style="fillColor=#EFF0F3;strokeColor=none;dashed=0;verticalAlign=top;fontStyle=0;fontColor=#232F3D;whiteSpace=wrap;html=1;movable=1;resizable=1;rotatable=1;deletable=1;editable=1;locked=0;connectable=1;" vertex="1" parent="1">
          <mxGeometry x="-770" y="970" width="700" height="270" as="geometry" />
        </mxCell>
        <mxCell id="kOEdCS07rvlNoeLBa7wD-261" style="edgeStyle=orthogonalEdgeStyle;rounded=0;orthogonalLoop=1;jettySize=auto;html=1;startArrow=classic;startFill=1;" edge="1" parent="1" source="kOEdCS07rvlNoeLBa7wD-260" target="UM05papVInRiucUio6Ng-52">
          <mxGeometry relative="1" as="geometry" />
        </mxCell>
        <mxCell id="kOEdCS07rvlNoeLBa7wD-262" style="edgeStyle=orthogonalEdgeStyle;rounded=0;orthogonalLoop=1;jettySize=auto;html=1;entryX=0.5;entryY=0;entryDx=0;entryDy=0;startArrow=block;startFill=1;" edge="1" parent="1" source="kOEdCS07rvlNoeLBa7wD-260" target="kOEdCS07rvlNoeLBa7wD-258">
          <mxGeometry relative="1" as="geometry" />
        </mxCell>
        <mxCell id="kOEdCS07rvlNoeLBa7wD-260" value="&lt;span style=&quot;font-size: 14px;&quot;&gt;&lt;b&gt;ERP&lt;/b&gt;&lt;/span&gt;" style="fillColor=#EFF0F3;strokeColor=none;dashed=0;verticalAlign=top;fontStyle=0;fontColor=#232F3D;whiteSpace=wrap;html=1;movable=1;resizable=1;rotatable=1;deletable=1;editable=1;locked=0;connectable=1;" vertex="1" parent="1">
          <mxGeometry x="-770" y="614.99" width="700" height="270" as="geometry" />
        </mxCell>
        <mxCell id="kOEdCS07rvlNoeLBa7wD-263" value="&lt;b&gt;&lt;font style=&quot;font-size: 16px;&quot;&gt;SAP HANA&lt;/font&gt;&lt;/b&gt;" style="image;aspect=fixed;html=1;points=[];align=center;fontSize=12;image=img/lib/azure2/other/Virtual_Instance_for_SAP.svg;" vertex="1" parent="1">
          <mxGeometry x="-510" y="693.17" width="68" height="62.839999999999996" as="geometry" />
        </mxCell>
        <mxCell id="kOEdCS07rvlNoeLBa7wD-264" value="" style="image;html=1;image=img/lib/clip_art/computers/Server_Rack_128x128.png" vertex="1" parent="1">
          <mxGeometry x="-670" y="1060" width="80" height="80" as="geometry" />
        </mxCell>
        <mxCell id="kOEdCS07rvlNoeLBa7wD-265" value="" style="image;html=1;image=img/lib/clip_art/computers/Server_Rack_128x128.png" vertex="1" parent="1">
          <mxGeometry x="-600" y="1060" width="80" height="80" as="geometry" />
        </mxCell>
        <mxCell id="kOEdCS07rvlNoeLBa7wD-266" value="" style="image;html=1;image=img/lib/clip_art/computers/Server_Rack_128x128.png" vertex="1" parent="1">
          <mxGeometry x="-530" y="1060" width="80" height="80" as="geometry" />
        </mxCell>
        <mxCell id="kOEdCS07rvlNoeLBa7wD-267" value="&lt;h1 style=&quot;margin-top: 0px;&quot;&gt;Legado&lt;/h1&gt;&lt;p&gt;&lt;font style=&quot;font-size: 16px;&quot;&gt;Vários sistemas para atendimento ao cliente&lt;/font&gt;&lt;/p&gt;" style="text;html=1;whiteSpace=wrap;overflow=hidden;rounded=0;" vertex="1" parent="1">
          <mxGeometry x="-310" y="1050" width="180" height="120" as="geometry" />
        </mxCell>
        <mxCell id="kOEdCS07rvlNoeLBa7wD-268" value="BANCO DE DADOS SAP" style="image;aspect=fixed;perimeter=ellipsePerimeter;html=1;align=center;shadow=0;dashed=0;spacingTop=3;image=img/lib/active_directory/databases.svg;" vertex="1" parent="1">
          <mxGeometry x="-370.00000000000006" y="677.09" width="96.94" height="95" as="geometry" />
        </mxCell>
      </root>
    </mxGraphModel>
  </diagram>
</mxfile>
